<svg width="46" height="32" viewBox="0 0 46 32" fill="none" xmlns="http://www.w3.org/2000/svg">
<path d="M37.9062 14.1719C38.0938 14.5469 37.9062 15.0156 37.4844 15.1562L31.9531 17.4531C31.5781 17.5938 31.1562 17.4062 30.9688 17.0312L30.8281 16.6562L26.3281 18.25C26.3281 18.25 26.3281 18.25 26.3281 18.2969C26.3281 19.0469 26.0469 19.7969 25.5781 20.3594L27.7344 26.5C27.9688 27.1094 27.6406 27.7656 27.0781 27.9531C26.9375 28 26.7969 28 26.7031 28C26.2812 28 25.8125 27.7188 25.625 27.25L23.6094 21.5781C23.375 21.625 23.1875 21.625 22.9531 21.625C22.7188 21.625 22.4844 21.625 22.25 21.5781L20.2344 27.25C20.0938 27.7188 19.625 28 19.2031 28C19.1094 28 18.9688 28 18.875 27.9062C18.2656 27.7188 17.9375 27.0625 18.1719 26.5L20.3281 20.3594C20.3281 20.3594 20.3281 20.3594 20.3281 20.3125L14.375 22.375C13.9531 22.5156 13.5312 22.3281 13.3438 21.9531L12.9688 20.9688L9.96875 22.2344C9.875 22.2812 9.73438 22.2812 9.6875 22.2812C9.40625 22.2812 9.07812 22.0938 8.98438 21.8125L8.04688 19.5625C8 19.4688 8 19.3281 8 19.2812C8 19 8.1875 18.6719 8.42188 18.5781L11.4219 17.3125L11.0469 16.3281C10.8594 15.9531 11.0469 15.5312 11.4688 15.3438L27.1719 7.75L27.0312 7.375C26.8438 7 27.0312 6.57812 27.4062 6.39062L32.9375 4.14062C33.3125 3.95312 33.7344 4.14062 33.9219 4.51562L37.9062 14.1719ZM22.9531 19.375C23.6094 19.375 24.0781 18.8594 24.0781 18.25C24.0781 17.5938 23.5625 17.125 22.9531 17.125C22.2969 17.125 21.8281 17.5938 21.8281 18.25C21.8281 18.8594 22.2969 19.375 22.9531 19.375ZM25.5781 16.1406L30.0312 14.5938L28.0156 9.76562L13.6719 16.7969L14.8906 19.7969L19.625 18.2031C19.6719 16.375 21.125 14.875 22.9531 14.875C24.0312 14.875 24.9219 15.3906 25.5781 16.1406ZM32.5156 14.7812L35.2344 13.6562L32.375 6.71875L29.6094 7.84375L32.5156 14.7812Z" fill="currentColor"/>
</svg>
