<svg width="46" height="32" viewBox="0 0 46 32" fill="none" xmlns="http://www.w3.org/2000/svg">
<path d="M36.5 4C37.2969 4 38 4.70312 38 5.5V17.8281C38 18.5312 37.4844 19.1406 36.8281 19.2812C36.8281 19.2812 20.6562 22.9844 20.5625 23.0312L16.4375 27.1562C15.875 27.7188 15.125 28 14.3281 28C12.7812 28 11.375 26.7344 11.375 24.8125V19L9.125 20.4062C9.03125 20.5 8.89062 20.5 8.75 20.5C8.32812 20.5 8 20.2188 8 19.7969V16.75C8 16.3281 8.32812 16 8.75 16C8.89062 16 9.03125 16.0469 9.125 16.1406L11.375 17.5469V14.5C11.375 13.4688 10.5312 12.625 9.5 12.625H9.07812C8.46875 12.625 8 12.1562 8 11.5C8 10.8906 8.46875 10.375 9.07812 10.375L9.5 10.4219C11.75 10.4219 13.625 12.25 13.625 14.5469V17.5469L15.8281 16.1406C15.9219 16.0469 16.1094 16 16.2031 16C16.625 16 17 16.3281 17 16.75V19.7969C17 20.2188 16.625 20.5469 16.2031 20.5469C16.1094 20.5469 15.9219 20.5 15.8281 20.4062L13.625 19V25.0469C13.625 25.4688 13.9531 25.7969 14.3281 25.7969C14.5156 25.7969 14.7031 25.7031 14.8438 25.5625L19.0156 21.4375C19.0156 21.3438 22.7188 5.17188 22.7188 5.17188C22.8594 4.51562 23.4688 4 24.1719 4H36.5ZM35.75 17.2188L30.2656 11.7344L35.75 6.25H24.7812L30.2656 11.7344L21.5 20.5L35.75 17.2188Z" fill="currentColor"/>
</svg>
