<svg width="327" height="334" viewBox="0 0 327 334" fill="none" xmlns="http://www.w3.org/2000/svg">
<g clip-path="url(#clip0_4235_9688)">
<path d="M122.171 71.398L122.32 70.9469H122.74L122.86 70.8271L123.009 70.4975L123.698 70.3478L124.088 70.1381L124.597 69.8085V69.1795L124.777 68.4904L124.956 67.6517L125.526 67.3521L125.406 67.0525L125.436 66.2437L124.956 65.4948L124.687 65.5547L124.417 65.7943H124.028L123.878 66.1538L123.369 66.3935L122.919 66.4534L122.56 66.1538L122.081 66.1838L121.691 66.2737L121.032 66.6631L120.403 67.0525L119.534 67.1124L119.055 66.9027L118.696 66.6331L118.666 66.1239L118.935 65.9441L119.355 65.6146L119.325 64.5661V63.8771L118.965 63.7573L118.606 63.5776L118.306 63.3379L118.486 62.4092L118.696 61.3608L118.845 61.1211L118.905 60.9414L119.295 60.9114L119.654 61.0612L119.834 61.3308L120.283 61.2709L120.463 61.1211L120.673 60.8814L120.523 60.4021L120.433 59.9528L120.134 59.6233L119.295 59.6832L118.486 59.5933L118.336 58.9642L118.516 58.0356V57.5263L118.935 57.1668L119.594 56.8373L120.253 56.1782L120.343 56.0285L120.164 55.9086L119.385 55.4293L119.265 55.2795L117.797 54.5306L116.898 54.2311L116.359 54.0214L115.97 54.2011L115.221 54.5905L114.921 55.639L114.682 56.0884L114.262 56.2382L113.843 56.5677L113.573 56.7175V56.8373L113.813 56.9871V57.3166L113.663 57.3466L113.274 57.4964L112.735 57.8259L112.435 58.2153L111.387 58.5448L110.937 58.6946L110.668 58.5448L110.338 58.1254L110.099 56.9871L109.799 56.8673L109.05 56.1483L108.481 55.9086L107.852 55.6091L107.403 55.4293L107.223 55.6091L106.893 55.9686L106.714 56.0285L106.085 56.6276L104.916 56.8673L103.988 56.6276L103.748 56.4479L103.418 56.358L103.389 56.1184L103.059 55.9087V55.6391L103.149 55.4593L103.898 55.3095L104.317 55.5792L104.527 55.8188L104.736 56.1483L104.976 55.8787L105.276 55.0998H105.425V54.9501L104.677 54.6505L104.287 53.9016L103.928 53.6619L103.209 52.913L102.909 52.8531L102.64 53.0628L102.19 53.3923L101.352 53.3025L101.202 52.7333L101.292 52.1341L101.441 51.9844L102.58 51.6848L103.119 51.6548L103.089 51.4751L102.849 51.3553L102.67 51.0257L102.25 50.816L100.962 50.6962L100.333 50.0372L99.9736 49.0785L99.8538 49.0486L99.9137 48.6292L100.782 48.5094L100.872 48.09L101.411 48.06V47.7604L101.292 47.4309L101.322 46.9516L101.441 46.3824L101.322 46.2027L100.962 45.5436L100.752 44.615L99.9736 44.8846V45.0044H99.7339L99.6141 44.8546L98.985 44.4952L97.7569 43.896L96.5287 43.207L96.2591 42.4282L96.1393 41.6493L95.9595 41.17C95.9595 41.17 95.9595 41.17 96.0794 40.481C96.1992 39.792 96.1093 40.481 96.1093 40.481L96.3789 40.0316L96.5287 40.0017L96.4388 39.4025L96.2591 38.6236L96.6485 38.5937L97.1578 38.9831L97.3375 38.9232L97.0679 38.6236L96.8283 38.2043L96.4388 37.3056L95.9895 37.2456L95.8397 36.9161L95.1208 36.7364L94.971 36.3469L95.0309 35.8377L95.1807 35.3883L95.4803 34.7592L95.8996 34.6394L96.1393 34.1601L96.4688 33.8006L96.4988 33.3812L96.4089 33.1715L95.3604 32.842L94.8512 32.5424L94.342 32.4825L94.282 32.3028L94.5816 32.0032L94.4618 31.6138L94.1622 30.9847L93.8926 30.5953L93.1737 29.9961L92.6045 29.6666L92.1852 29.2173L91.5861 28.6181L90.8971 27.989L89.579 27.3L88.3509 26.7308L87.602 26.3414L87.0029 26.0119L86.4936 25.8321L86.1042 26.0119L85.6549 26.4013L84.9959 26.9705L84.6963 27.5397L84.5166 27.7194L84.7562 27.9591L84.876 28.1089L84.7862 28.3485L84.3668 28.9476L83.8276 29.1274L83.6778 29.5168L83.528 29.4569L83.4382 28.9177L82.7193 28.6181L82.5994 28.4983L82.4796 28.6481L82.21 29.2772L81.8805 30.3556L81.4012 30.4455L80.862 30.2957L80.4426 29.9662L80.173 29.3071L79.8735 28.8877L79.6338 28.3485L79.4242 28.1388L79.2145 28.2287L78.6154 28.5882L78.2858 29.6366L77.1176 29.9362L75.9194 29.6067L75.7097 29.367L75.3502 29.6366L74.9308 30.1459L74.6612 30.3256L73.3732 30.5353L71.6657 30.9248L71.0067 31.2543L70.797 31.5838L70.4076 32.183L70.138 32.123L70.4076 31.6437L70.1979 30.805L69.449 30.6252L69.0895 30.2358L68.4904 29.9362L67.8314 29.2472L67.1724 28.6181L66.1839 28.2886L65.5548 27.989L65.1654 27.6595L64.5663 27.33L63.2482 26.6709L61.361 26.3414L59.7434 26.0119L58.9047 25.7722L58.8747 25.5326L59.0844 24.9934L59.4439 24.2744L59.6835 24.1246L59.8633 23.7951L59.6835 23.4057L57.7065 22.7766L57.1074 22.477L56.8977 22.2074L56.9875 21.8479L57.4069 21.2188L57.5867 20.6496L58.0959 20.1404L58.725 19.9007L59.1443 19.5712L59.3241 18.4928L60.4324 18.1932L61.0016 17.9535L61.391 17.5941L62.0201 17.3244L62.2897 15.8865L62.6491 14.868L63.0385 14.3587L63.5478 14.0592L63.7874 13.9394V13.7896L63.6077 13.6098L63.4579 12.9208L63.2482 12.4116L63.0086 11.9322L62.3196 11.6327H61.2113L61.1813 11.3032L60.9117 11.2432L60.732 10.6441L59.9831 10.3745L59.1443 10.3146L58.0959 10.0749L57.0774 9.95511L56.9276 9.62559L56.5083 9.38593L56.0889 8.15771L55.8193 7.10923L55.5197 5.55148L55.1303 4.92238L54.5312 4.53294L54.2616 3.63426L53.8722 2.31615L53.5127 1.65711L53.3629 1.1778L52.9436 1.02802L52.4343 0.75841L51.985 0.878237L51.5656 0.698502L50.9665 0.458847L50.3374 0.668542L49.1093 0.968105L48.0009 0.81833L47.7613 0.398928L47.5516 0.0993652L46.7727 0.159273L46.563 0.75841L46.2335 0.848277L46.1137 1.29763L45.4247 1.59719L44.7957 2.28619L43.1182 2.67564L42.7887 2.85538L42.4891 4.92238L42.3693 6.24049L42.2195 7.49866L41.86 7.61848L41.6204 7.52863L41.2909 6.62992L40.9614 6.21053L40.6019 5.55148L39.883 4.95233L39.6733 4.35321L39.3138 3.96377L38.6249 3.63426L37.9359 3.45451L37.3368 3.6043L36.9174 4.53294L36.2883 5.25191L35.9289 5.4616L35.7491 5.97087L35.3298 6.57001L35.0901 8.18766L34.8205 9.08636L34.6408 9.29607L35.0002 9.71546L36.3482 10.015L36.7676 10.4644L37.3068 11.1234L37.6962 11.7225L38.0258 12.0221L38.5649 13.3702L38.9244 13.7596L39.2539 13.9394L41.4706 14.3587L42.2609 14.569L42.6105 14.9885L42.8552 15.0934L43.065 15.408L43.0999 15.7576L43.7292 15.8276L43.3446 16.0723L43.2747 16.2121L43.1698 16.5268L42.5056 17.9252L42.156 19.8481L41.8763 21.4563L41.5617 22.2254L40.5129 22.3303L39.2893 22.5051L39.1844 22.8897L39.2194 23.0995L39.604 23.9735L39.9186 24.9874L40.0235 25.4419L39.9186 25.6167L39.7089 26.9452L39.8137 28.3436L40.5479 28.5884L42.2609 28.903L42.5056 29.6022L42.8552 29.8819L43.03 30.4413L42.8552 31.4901L42.4706 32.2942L42.191 32.7138L41.9812 32.8186L41.4218 32.9935V33.378L41.1771 33.413L40.8975 33.6228L40.2332 33.9374L39.9186 34.287L39.7787 34.6017H39.569L39.1495 34.4968L37.6112 34.1821L36.2828 33.7626L35.8283 33.6577L35.8982 34.4968C35.8982 34.4968 36.0031 35.1261 36.0031 35.4757C36.0031 35.8253 36.073 35.7204 36.073 35.7204L36.108 36.105V36.3497L35.6885 37.014L34.9543 37.7132L34.2202 38.4474L34.1153 39.2864L33.3112 39.4263L33.2763 39.2165L33.0665 39.1466L32.9267 38.832L32.8568 38.4823L32.3673 38.4474L31.7031 38.6571L31.1787 39.0417L30.4795 39.7409L30.1649 40.3003L28.9413 40.615L28.312 40.9995L27.473 41.3491L27.4031 41.524L27.6828 41.9784L27.9974 42.363V42.8874L27.8576 43.272L27.5779 43.7964L27.1584 43.9013L26.8088 44.2859L26.2844 44.6355L24.5713 44.7404L24.2917 45.4396L23.6973 45.8941L23.3478 46.1038L22.7535 46.4884L22.4038 46.6283H21.9144L21.5998 46.1388L21.0754 45.999L20.4112 46.2087L20.0965 46.873L19.7469 47.4324L19.5721 47.5722L19.4323 47.3974L18.6981 47.1527L18.4534 46.5583L18.1388 46.1738L17.1599 45.7892L16.8103 45.6494L16.181 45.7892L15.4818 46.1738L15.2022 46.4884L15.1323 46.9429L15.2022 47.1177L15.377 48.1316L15.6566 49.1105V49.9845L15.5867 50.5789L15.0973 51.0683L14.503 51.6277L14.1883 51.9074L13.8387 52.7814L13.6639 53.2709L13.2095 54.2847L13.1395 54.6693L13.2444 55.1587L13.9436 55.9978L14.1184 56.1027L14.3631 56.0328V55.6832L14.7477 55.6482L15.2721 55.823L15.8314 56.2076L16.1111 56.732L16.2859 56.8019L16.6006 57.571L17.1949 58.2003L17.6843 58.2353L18.5233 58.4801L18.6981 58.6549L19.3274 58.7597V58.9695H19.5372L19.8518 59.2142L20.2014 59.5638L20.2364 59.9484V60.6826L20.4461 61.1021L20.5859 61.8363L20.4111 62.3607L20.0266 63.3047L19.8868 64.0389L20.1664 64.7381L20.2713 66.3463L20.551 66.5211L20.6209 67.1154L20.551 67.9895H19.9567L19.4323 68.0594L18.768 68.2342L18.4534 68.409L17.964 68.3391L17.7193 68.1643L17.5445 68.0244L16.9152 68.0943L16.2509 68.0244L15.6916 68.0943H14.8176L13.2794 68.0594L12.5452 67.9195L11.881 67.7797L11.8111 67.465H11.5664L11.2168 67.5L9.99319 68.2342L9.04926 68.6537L8.48992 68.9684L8.35009 69.1432L8.03544 68.9334L7.16146 68.6887L6.53218 68.2342L5.23868 68.0594L4.53947 68.2692L3.87525 68.8635L3.70045 69.7375L3.66549 70.5416L3.94517 70.8912V71.2059L3.84029 71.5205L3.52565 72.1498L3.31589 72.6393L3.1411 72.6743L2.82646 73.0938L2.23215 73.4434L1.88256 73.7231L1.25328 74.1426L0.833772 74.3874L0.624013 74.8069L0.34433 75.4362L0.239457 76.4151L0.798798 76.5549L0.624013 77.0444L0.484166 77.9184L0.0996094 78.1981L0.134571 78.4079L0.938646 78.5827L1.63783 79.0721L2.82646 79.6315L3.84029 79.8762L5.20371 80.5755L6.46226 81.2397L7.4761 81.5893L8.03544 81.9389L9.294 82.4634L10.6924 83.1276L11.9509 83.8268L13.3843 84.596L13.629 84.8757L14.1534 85.0854L14.9225 85.7497L16.2509 86.414L17.2648 87.4278L17.7542 87.7075L18.2087 88.1271L18.4884 88.6864L19.7819 89.3857L21.0404 90.0499L21.4599 90.3296L22.1242 90.7142L22.4388 91.0988L23.0681 91.2736L23.6274 91.9378L24.2917 92.5322L24.6413 93.2663L25.3754 93.6509L25.725 94.3851L25.9348 94.5949L26.634 95.2591L27.2632 95.9234L27.6478 96.7974L28.312 97.5316L28.4868 98.1259L29.2559 99.4894L29.3608 99.874L29.8502 100.119L30.2348 100.259L30.4795 100.783L31.2137 101.168L31.8429 102.356L32.4373 103.58L32.7869 103.929L33.0316 105.293L33.7308 107.146L34.43 108.544L35.0243 109.209L35.3389 109.873L35.6885 110.153L35.9682 110.782L36.6324 111.551L37.017 112.005V112.46L36.5275 112.914L36.5295 113.935L37.0578 113.695L37.9009 113.274L40.524 113.133L42.8192 113.367L44.5055 113.649L44.646 113.789L44.8802 114.023L45.0207 114.304L45.3486 114.351L46.1917 114.82L46.6601 115.007L47.0349 115.429L47.2691 115.475L47.6906 115.241L47.9717 115.007L48.2996 114.539C48.2996 114.539 48.2996 114.257 48.2996 114.07C48.2996 113.883 48.2996 113.602 48.2996 113.602L48.0185 113.086L47.9248 112.384L48.0654 111.728L48.6743 111.166L48.8617 110.978L49.7048 110.557L50.3137 109.714L50.4542 108.73L50.9695 108.449L51.5784 107.934L52.2342 107.278L52.9368 106.95L53.0773 106.763L52.8431 106.575L52.5621 105.919L52.4215 105.498L52.4684 105.029L53.3584 104.327L53.4989 103.858L53.171 103.577L53.1242 103.109V102.922L53.3115 102.875L53.5926 103.249L54.1547 102.453L54.3889 101.985C54.3889 101.985 54.061 102.594 54.061 101.938C54.061 101.282 54.061 101.329 54.061 101.329L54.951 101.376L55.4662 101.423L56.0283 101.329L55.9814 101.001L55.6536 100.814L55.3725 100.579V100.533L55.513 100.439C55.513 100.439 55.6067 100.486 55.8409 100.298C56.0751 100.111 56.0751 100.111 56.0751 100.111L56.5904 99.9705L57.4804 99.8299C57.4804 99.8299 57.574 99.3147 57.8551 99.5957C58.1361 99.8768 58.1361 99.8768 58.1361 99.8768L58.3235 100.298C58.3235 100.298 58.0424 100.017 58.0424 100.252C58.0424 100.486 57.9019 100.392 58.0424 100.579C58.183 100.767 58.183 100.814 58.183 100.814C58.183 100.814 58.6045 100.392 58.9793 101.048C59.354 101.704 59.354 101.704 59.354 101.704L59.6819 102.032L60.3376 102.359L60.5718 102.64L60.9466 102.734L61.3681 103.109L61.6023 102.922L62.305 102.968L62.8202 103.39L62.9607 103.765L63.4291 103.952L63.8975 104.186L64.9749 104.28L65.0163 104.522L65.2304 104.308L65.4444 103.849L65.8113 103.941L66.2394 104.766L66.5452 105.714L67.1261 106.846L67.8294 108.069L68.1658 109.169L68.9608 110.576L69.236 111.463L69.45 112.472L69.6946 112.931L70.459 113.022L71.6516 113.389L72.3854 113.603L73.6391 113.726L74.006 113.97L74.3118 113.817L76.0547 113.512L76.391 113.114L76.5133 111.738L77.6141 111.646L78.776 111.769L79.9074 112.013L81.5585 111.707L82.2618 111.555L82.8122 111.799L84.4328 112.013L85.1055 112.472L85.7476 113.084L85.9616 113.542L86.2368 114.398L86.3897 114.123L86.7261 113.695L87.0318 113.053L87.307 112.808L87.7351 112.074L88.2855 111.891L88.6218 111.738L88.897 111.432L89.3557 111.065L89.6003 110.882L90.0284 110.148L90.2424 109.261L90.5482 109.078L90.7317 108.833L91.8324 108.772L93.8199 108.619L94.248 108.283L94.4621 107.977L94.829 107.549L95.5323 107.151L95.9604 107.09L96.2355 107.243L97.3669 107.855L97.7338 108.222L98.4065 108.588L99.5379 108.772L100.669 108.619L101.342 108.283L102.259 107.885L102.657 107.641L102.871 107.732L102.932 108.16L103.207 108.894L103.268 109.261L104.002 109.322L104.369 109.169L105.195 109.139L105.837 109.812L106.234 110.484L106.846 111.218L107.213 111.31L107.274 111.432L106.999 111.585L107.06 112.564L107.396 112.808L107.641 113.328L107.885 112.778L108.436 112.717L108.772 112.808L109.475 113.145L109.628 113.512L109.904 113.603L110.026 113.512L110.454 113.053L111.188 112.747L111.769 112.472L112.227 112.319L112.319 111.127L112.747 110.423L112.931 110.27L113.573 109.842L114.307 109.567L114.949 108.833L115.316 108.191L115.652 107.212L115.744 106.417L115.591 105.928L115.285 104.338L115.102 103.176L114.857 103.054L114.888 102.626L115.193 102.259L116.111 102.136L116.936 101.433C116.936 101.433 116.906 101.189 117.242 100.791C117.578 100.393 117.211 101.25 117.578 100.393C117.945 99.5373 117.67 100.179 117.945 99.5067C118.22 98.834 118.22 98.834 118.22 98.834L118.496 98.7117L118.679 98.6811L118.71 99.2315L119.229 99.3538L119.627 99.3233L119.749 98.5282L119.963 98.1001L119.902 97.1828L119.535 96.4795L119.199 96.1431L119.107 95.9291V95.5927L119.505 95.2564L119.627 94.6142L119.749 94.4919L119.963 95.0423L120.208 95.9597L120.483 96.7853L120.85 98.1613L121.034 99.5679L121.095 100.485L120.85 102.136L120.667 103.268L120.453 104.98L120.239 105.714L120.269 106.815L120.544 107.274L121.064 107.396L121.553 107.243L122.226 106.907L122.409 106.693L122.746 105.928L122.899 104.827L123.052 103.757L123.694 103.329L124.397 103.298L125.253 103.268L125.437 103.513H125.742L126.018 103.023L126.323 102.198L126.721 101.341C126.69 101.189 126.599 100.302 126.599 100.302L127.057 99.3233L127.271 98.4365L127.822 98.3447L128.005 98.1918L128.311 98.1307L128.372 97.458L128.127 97.1828C128.127 97.1828 127.944 97.1216 128.341 96.9993C128.739 96.877 128.739 96.877 128.739 96.877V96.6935L128.28 96.296L127.913 95.8067C127.913 95.8067 127.791 95.8067 127.852 95.501C127.913 95.1952 127.913 95.1952 127.913 95.1952L128.28 94.4919L128.586 94.0638L128.922 92.6266C129.012 92.2453 129.167 92.3208 129.167 92.3208L129.84 92.0762L130.879 91.5258L131.185 91.3117L131.491 91.22L131.369 91.0059C131.369 91.0059 130.971 91.1588 131.093 90.7613L131.216 90.3638C131.496 89.4535 131.919 89.7216 131.919 89.7216L132.194 89.0489C132.194 89.0489 132.347 88.2233 132.531 88.1316C132.714 88.0398 132.7 87.8451 132.7 87.8451L132.587 87.6477L132.249 87.5066L132.08 87.3374L131.487 87.2245L130.923 87.3374L130.585 87.6195L130.218 87.7605L129.626 87.8733L129.315 87.7323L128.892 87.6195L128.723 87.1399L128.497 86.9425L128.3 86.4347L128.018 86.1244L127.228 84.7704L127.115 84.4037L127.284 84.2345L128.046 83.9806L128.779 84.0088V83.6985L128.526 83.219L128.102 83.078L127.651 83.0215L127.397 82.7959L127.172 82.7395L126.551 82.683L126.466 82.4856L126.184 82.1753L126.072 81.9214L125.62 81.3008L125.536 80.1161L125.62 79.3827L126.325 79.016L126.748 78.5928L126.974 78.0005L126.833 77.5491L126.636 77.5209L126.297 77.662L125.705 78.0287L125.479 78.1133L125.31 78.0569L124.718 77.6902L124.238 77.4927L124.182 76.8439L124.323 76.1951H124.492L124.52 75.5463L124.351 75.1232L124.125 73.9385L123.646 73.7974L122.658 73.4307L122.123 73.1486L121.982 72.5281L122.179 72.1896L122.574 71.7947L122.743 71.3997L122.171 71.3981V71.398ZM125.619 70.975L125.975 70.5275L126.484 69.9883L126.904 69.7786L127.503 69.6588L127.712 69.9883L127.982 70.168L128.219 70.6833L128.018 71.1177L127.679 71.7664L127.059 72.1049L126.635 72.5281L126.382 72.4717L125.959 72.0767L125.761 71.8229L125.676 71.4562L125.619 70.975Z" stroke="#015EDE" stroke-width="2" stroke-linejoin="round"/>
<path d="M197.442 114.856L197.287 114.566L197.206 113.973L197.274 113.595L197.57 113.824L197.746 113.973L198.123 114.081L198.352 114.256L198.743 114.081L199.417 113.757L200.375 113.42L201.332 113.056L201.75 112.8L201.979 112.112L202.68 111.519L202.977 110.467L203.826 110.211L203.961 109.793L204.244 108.283L204.662 107.232L204.797 106.45L204.594 105.6L203.961 104.98L203.772 104.724V104.238L204.028 104.144H204.891H206.064L207.614 104.077L208.167 103.996L208.329 103.861L208.558 103.982L208.909 104.333L209.542 104.67L209.866 104.98L210.459 105.6L211.093 105.91L211.443 106.315L212.05 106.571L212.764 106.935L213.479 107.097L214.045 107.272L214.396 107.892L214.922 107.987L215.029 107.892L215.474 107.623L215.677 107.191L215.879 106.841L216.243 106.733H217.106L217.645 106.948L217.861 107.42L218.049 107.461L218.063 107.649C218.063 107.649 218.238 107.771 218.413 107.784C218.589 107.798 218.616 108.202 218.616 108.202L219.613 108.539L220.597 108.674L220.786 109.025L221.164 109.227L221.878 109.524L222.242 109.861L222.485 110.454L222.66 110.899L222.876 110.993L223.024 111.236L223.954 111.344L224.318 111.6L224.399 111.344L224.804 111.263L225.114 111.114L225.357 110.521L226.058 110.171L226.314 109.739L227.244 109.618L227.986 109.793L228.687 109.941L229.28 109.834L230.601 109.524L231.383 109.321L231.572 107.892L232.057 107.609L232.219 107.218L232.569 106.921L233.486 106.787L233.972 106.733L233.985 106.503L233.877 106.234L233.527 105.614L233.365 105.223L233.513 104.953L234.133 104.629L234.821 104.522H235.441L235.805 104.67L236.007 104.764L236.183 104.643L236.722 104.495L237.167 104.252L237.382 104.131L237.059 103.982L236.789 103.74L236.425 103.349L236.129 102.958L235.576 102.607L235.589 102.486L236.048 102.499L236.277 102.728L236.601 102.823L237.113 102.836L237.409 102.688L237.76 102.378L238.38 102.041L239.337 101.96L239.971 101.946L240.254 101.865L239.958 101.677L239.796 101.205L239.594 100.922L239.567 100.625L238.798 100.436L237.854 100.194L236.385 100.086L235.819 99.4386L235.441 99.0746L234.807 98.7915L234.524 98.4544L234.201 97.8342L234.039 97.1331L234.174 96.823L234.538 96.4455L234.942 96.1354L234.888 95.8927L234.47 95.2186L233.432 94.9759L233.324 94.7872L232.88 94.5715L232.718 94.0996L231.154 93.9513L229.617 93.9243L228.619 93.6007L227.945 93.2502L227.352 92.6434L226.678 91.9963L226.395 91.0255L226.179 90.2436L225.68 90.0143L225.087 89.3133L224.44 88.6931L223.146 88.0189L221.784 87.4257L221.501 86.792L221.177 86.1449L220.975 85.4303L220.773 85.255L220.503 84.4865L220.409 83.4214L220.341 82.0866L220.193 80.9002L219.991 79.8081L219.236 79.6328L218.885 79.2823L218.238 78.9722L217.901 78.6351L217.524 78.4868L217.227 77.988L215.542 77.8127L215.366 77.3678L214.908 77.179L214.787 76.9363L214.571 76.842L214.342 76.397L213.695 75.6825L213.061 75.1162L212.347 74.7926L211.713 74.4151L211.12 74.1859L210.594 73.9837L210.904 73.7679L211.025 73.5522L211.376 72.7972L212.104 72.177L212.697 71.5164L213.371 70.8422L214.032 70.5591L214.355 70.1681L214.679 69.7636L215.016 69.2109L215.313 68.5907L215.407 68.4693V68.0918L215.178 67.9705L214.962 67.566L214.706 66.3256L213.385 65.6245L212.131 65.3144L211.511 65.0313L211.079 64.7886L210.81 64.3167L210.351 64.1549L210.176 63.71L209.461 63.1168L209.165 62.3887L208.504 61.7281L207.844 61.0809L207.196 60.4877L206.536 60.1776L205.902 59.8406L205.282 59.5844L205.754 59.4766L205.902 58.8698L206.239 58.1418L206.94 57.5081L207.547 56.834L208.194 56.5374L210.149 56.2138L210.837 55.5936L211.12 54.9464L211.443 54.5959L212.104 53.9083L212.657 53.369L212.98 53.1128L212.576 53.0993L212.104 52.9915L211.888 51.8455L212.077 51.077L212.266 50.1062L212.441 49.0815L212.576 48.4344V47.7198L212.117 47.4771L210.729 47.0996L210.473 46.5333L210.122 45.8727L209.785 45.5222L209.596 44.9829L209.569 43.7964L209.812 43.4189L210.486 43.2436L210.958 42.9605L211.093 42.5695L211.484 41.9358L211.74 41.3561L211.861 41.1269L211.753 40.655L211.497 39.6708L211.605 38.5787L212.117 38.3899C212.117 38.3899 212.711 37.7832 212.778 37.7023C212.845 37.6214 213.371 37.0417 213.371 37.0417L213.519 35.599L213.722 35.3294L214.854 35.2889L215.326 35.4238L216 35.8013L216.229 35.8687L216.863 35.8552L217.294 35.7473L217.51 35.626L217.928 35.7473L218.306 36.0709L218.575 36.7585L219.209 37.0686L219.735 37.2035L220.49 37.0821L220.84 36.7585L221.096 35.7878H221.312L221.42 35.599L221.892 35.5721H222.498L223.078 35.4642L223.739 35.1945L224.844 35.235L225.114 35.7204L225.451 36.3675L225.721 37.0821L225.95 37.554L226.314 37.5944L226.57 37.3922L226.799 37.1765L227.055 37.0416L227.945 36.7585L228.943 36.4619L229.361 36.2057L229.59 35.7473L230.628 35.5721L231.235 35.8013L231.599 36.1248L232.259 36.2462L232.866 36.1114L233.877 35.7743L234.605 35.5046L234.78 35.3429L236.075 35.1541L237.086 34.8035L237.221 34.6148L236.87 34.3452L236.938 34.1429L237.504 34.089L237.773 33.8328L238.124 33.4958L238.082 33.1017L237.777 32.5488L237.567 31.8814L237.834 31.2141L238.158 29.212L238.291 28.1633L238.768 27.9917L239.073 27.2862L239.416 26.9812L239.702 26.0469L239.855 25.5321L239.702 24.5596L238.749 24.4452L237.319 24.0639L236.861 23.7588L236.194 23.5682L235.26 23.7016L235.069 24.0258L234.936 23.8542L234.783 23.4347L234.592 23.1678L233.849 22.4241L233.525 21.7568L233.372 21.3945L233.105 21.1848L232.857 20.8225L232.209 20.4983L232.057 19.6213L232.19 19.2208L232.61 17.9243L232.991 17.276L233.105 16.5133L233.01 16.132L232.552 16.0366L232.381 15.846L231.99 15.6584L231.45 15.3888L231.37 15.2L230.668 14.9843L229.994 14.3371L229.266 13.663L229.158 12.854L228.835 12.8001L228.619 12.3687L227.972 11.6945L227.325 11.4249L227.163 11.2092L226.894 11.1013L226.759 10.8856L226.354 10.8586L225.06 10.8316L224.656 10.535L224.467 10.1305L224.008 9.6991V9.02497L223.658 8.94409L223.119 9.07891L222.283 9.29464L221.177 9.45642L220.8 10.0497L220.503 11.3709C220.503 11.3709 220.206 12.2608 220.206 12.3687C220.206 12.4765 220.126 12.6653 220.126 12.6653L219.991 12.5844L219.829 12.3147L218.804 12.0451L216.593 11.6945L215.056 11.3709L214.086 11.1013L213.735 10.7238L213.412 10.5081L212.414 10.6429L212.09 10.9665L211.848 11.6406L211.923 13.024L212.132 13.3481L212.228 15.0642L212.037 15.1977L211.751 15.6171L211.065 16.9518L210.836 17.8861L210.435 18.6107L210.474 18.8013L210.55 19.3162L210.969 19.4306V20.3267L210.798 20.7843L210.683 21.4898L210.493 22.3669L209.806 23.0914L209.12 23.7969L208.872 24.4261L208.586 24.7312L207.861 25.0363L207.537 25.3414L207.366 25.8753L207.137 25.5511L206.946 25.4367L206.222 24.674L205.955 24.0639L205.573 23.7588L205.249 23.5681L204.696 23.6825L203.953 23.9113L203.8 24.6359L203.705 25.3414L203.305 25.9515L202.637 26.6189L202.447 27.1146L202.027 27.2862L201.627 27.4578L201.265 27.801L200.349 27.8392L200.178 28.1442L199.701 28.354L199.072 28.6018L198.938 28.9832L198.424 29.2311L197.852 29.8603L197.337 30.0509L196.002 30.07L195.888 29.8221L195.201 29.5743L193.81 29.3455L193.752 28.8306L193.466 28.5256L193.199 27.6675L192.913 27.4578L192.475 27.4197L192.246 27.9726L191.617 28.5637L191.312 29.1739L191.159 29.5933L191.293 29.8793L191.464 30.337L191.274 30.8899L191.045 31.3094L190.606 31.5191L189.672 31.6907L188.318 31.767L186.412 31.481L185.592 31.3284H184.41L182.789 31.5191L182.122 31.9386L181.817 32.4725L181.55 33.4068L181.226 34.1694L181.035 34.2457L180.864 34.1694L180.234 33.8262L179.643 33.5974L179.414 33.0254L178.957 32.8347L177.699 32.5297L177.298 32.1865L176.917 31.9005L176.173 31.9767L176.402 32.1483L176.459 32.3962L176.326 32.5487L175.697 32.8538L175.067 33.1589L174.934 33.2924L175.048 33.5021L175.201 33.8072L175.067 34.1504L174.953 34.5699L175.086 35.0847L175.411 35.466L175.754 36.0762L176.002 37.0295L176.402 37.4109L176.726 38.0782L176.974 39.0125L177.05 39.5464L176.707 40.7476L176.078 40.9573L175.353 41.129L175.163 41.434L174.038 41.6056L172.779 42.2539L171.559 42.845L171.178 43.5505L170.511 44.1797L169.691 44.9233L168.547 45.5716L168.242 45.8767L168.013 46.3343L167.86 46.0674L167.479 45.9148H166.754L165.954 46.0674L164.505 46.4868L164.161 46.6012L163.78 46.3724L163.132 46.7919L162.636 47.0207L162.445 50.0524L161.702 50.1668L160.196 50.4147L159.452 50.7197L158.346 50.8341L156.897 51.0439L156.268 51.654L155.696 51.9782L155.219 52.3214L155.124 52.7027L155.296 53.0459L155.848 54.2662L156.287 54.5904L156.573 55.2577L156.973 55.6772L158.175 56.2111L158.785 56.8022L158.956 57.0691L158.937 57.336L158.48 57.5267L157.85 57.8508L157.202 58.4801L156.935 58.8233L156.706 59.0902L156.23 59.1665L156.077 59.2427L155.791 59.3381L155.677 59.0711L155.181 58.8423L154.971 58.6707L154.666 58.8042L154.152 58.9949L153.885 59.8338L153.618 60.1198L153.484 60.5202L152.912 60.73L152.607 61.0923L151.959 61.4545L151.616 61.8168L150.396 62.3888L149.538 62.5795L148.394 62.446L147.955 62.2363L147.764 61.4545L147.097 60.7872L146.639 60.5584L146.468 60.1389L146.334 59.9864L146.392 59.7194L146.544 59.6241L146.754 59.1855L146.868 58.8042L146.811 58.5563L146.353 58.1559L145.343 57.9271L144.428 58.1178L144.313 58.3085L143.989 58.3466L143.875 58.5563L143.494 58.8233L143.455 59.033L143.57 59.2237L143.913 59.3953L144.142 59.6813L144.085 60.6537L143.875 61.3592L143.57 62.7701L143.303 64.0476L143.093 64.2955L143.036 65.0963L143.322 65.2107L143.436 65.4586L143.684 65.5349L143.741 66.6408L143.551 67.5179L142.902 68.2615L142.693 69.0051L142.216 69.1958L141.758 69.3864L141.625 69.8059L140.901 70.2445L140.271 70.8165L139.566 71.236L139.318 71.4838L138.937 72.094L138.403 72.3991L136.782 72.8185L135.772 73.1236L135.409 73.4477L134.742 74.0198L134.094 74.6871L133.77 75.7549L133.388 76.1362H133.236L133.026 75.9265L132.511 75.7739L132.206 75.4498L131.882 74.7443L131.577 73.5621L131.31 72.3418L131.463 71.0644L131.844 70.8546L131.997 70.5686L131.901 70.2063L131.558 69.8822L130.872 69.6152L129.88 69.825L129.308 70.4733L128.641 70.683L128.187 70.7792L128.018 71.1177L127.679 71.7665L127.059 72.105L126.636 72.5281L126.382 72.4717L125.959 72.0768L125.761 71.8229L125.677 71.4562L125.601 71.0297L125.228 70.9309L124.904 70.7402L124.694 70.8546L124.179 71.1216L123.817 71.3122L123.493 71.1216L122.559 71.1406L122.292 71.3998H122.743L122.574 71.7947L122.179 72.1896L121.981 72.5281L122.122 73.1487L122.658 73.4308L123.646 73.7975L124.125 73.9385L124.351 75.1233L124.52 75.5464L124.492 76.1952H124.323L124.182 76.844L124.238 77.4928L124.718 77.6902L125.31 78.0569L125.479 78.1134L125.705 78.0287L126.297 77.662L126.636 77.521L126.833 77.5492L126.974 78.0005L126.748 78.5929L126.325 79.016L125.62 79.3827L125.536 80.1162L125.62 81.3009L126.071 81.9215L126.184 82.1753L126.466 82.4856L126.551 82.6831L127.172 82.7395L127.397 82.7959L127.651 83.0216L128.102 83.078L128.525 83.2191L128.779 83.6986V84.0089L128.046 83.9807L127.284 84.2345L127.115 84.4038L127.228 84.7705L128.018 86.1245L128.3 86.4348L128.497 86.9425L128.723 87.14L128.892 87.6195L129.315 87.7324L129.626 87.8734L130.218 87.7606L130.585 87.6195L130.923 87.3374L131.487 87.2246L132.08 87.3374L132.249 87.5067L132.587 87.6477L132.7 87.8452L132.816 87.9006L133.226 87.9483L133.331 88.158L134.122 88.0818L134.408 87.9483L134.704 87.6146L135.772 87.7576L137.097 88.1008L137.497 88.2534L137.669 89.693L137.832 90.3919L137.684 91.0525L137.549 91.2952V91.7132L138.304 91.6592L139.328 91.1604L139.746 91.093L139.638 89.6908L139.409 89.3807L139.544 89.2189L139.773 88.9088L140.313 89.0167L140.946 89.4077L141.054 89.7852L140.582 90.0413L140.353 90.675L140.178 91.2413L140.164 92.3738L140.555 92.4682L140.933 92.3064L141.58 91.9693L142.267 91.6323L142.712 91.3626L142.739 91.1604L142.968 91.0795L143.076 90.8772H143.629L143.899 91.3491L144.02 92.0637L143.643 92.2929L143.723 92.994L144.168 93.3041L144.829 93.9243L145.503 94.5714L146.73 94.7063L147.175 94.7198L147.323 96.2568L147.768 96.4725L148.267 96.8365L148.146 99.0881L147.93 100.369L147.782 101.731L146.824 102.068L146.582 102.176L146.46 102.027L146.11 101.906L145.786 102.081L145.517 102.351L144.991 102.553L145.139 103.632L145.463 104.036L145.611 104.791C145.611 104.791 145.341 104.805 145.341 104.859C145.341 104.913 145.274 105.128 145.274 105.128L145.112 105.169L144.991 105.384L144.708 105.479L144.6 105.91V106.517L144.937 106.261H146.096L146.474 107.002L146.811 107.649L147.054 107.906L147.391 108L147.849 107.717L148.024 107.892L148.402 108.229L148.86 108.431L149.13 108.674L149.399 108.809L149.709 109.497L149.817 109.699L149.75 109.968L149.548 110.076V110.885L150.33 111.02L150.734 110.872L151.017 110.521L151.354 110.198L151.678 109.82L152.554 109.631L153.538 109.807L154.226 110.184L154.442 110.589L155.439 110.629L156.841 110.454L157.489 110.157L158.136 109.995L158.486 108.903L158.823 108.243L159.403 107.892L160.037 107.717L160.535 107.757L160.67 107.946L161.034 108.108L161.169 107.96L161.398 107.596L162.032 106.247L162.329 105.91L162.746 105.277L163.407 104.602L164.014 104.319L165.065 104.144L165.969 104.333L167.276 104.656L167.586 104.98L167.681 105.506L167.694 105.964L167.344 106.274L166.643 106.625L165.942 106.894L165.82 107.151L165.901 107.407L166.265 107.488L166.279 107.663L167.303 107.919L168.031 108.108L168.193 108.876L168.53 109.213L169.487 109.483L171.766 109.834L172.103 110.171L173.02 110.467L173.721 110.683L173.923 110.966L174.772 111.209L174.853 111.721L174.611 111.923L174.772 112.126L175.096 112.463L175.703 113.676L176.04 114.714L176.336 115.308L176.539 115.82L176.862 115.941L176.983 116.359L177.132 116.75V117.559L177.267 117.923L177.388 117.613L178.493 117.492L179.356 117.478L179.532 118.071L180.354 118.098L181.109 117.964L181.23 117.613L181.54 117.02L181.85 116.332L182.565 115.685L183.212 115.496L184.115 115.672L184.479 116.063L185.019 116.157L185.167 116.44L185.423 116.669L185.76 117.357L186.124 117.653L186.394 118.247L187.081 118.934L187.203 119.366L187.405 119.474L187.553 119.811L187.702 119.447L187.769 119.244L188.066 118.543L188.349 118.274L188.47 117.802L188.753 116.602L189.306 115.361L189.643 114.067L189.98 113.744L190.25 113.069L190.641 112.746L191.881 112.557L192.717 112.611L192.798 113.191L193.243 113.407L194.523 113.73L195.521 114.094L195.602 114.364L195.723 114.809L196.317 114.876L196.869 114.89L197.442 114.856Z" stroke="#015EDE" stroke-width="2" stroke-linejoin="round"/>
<path d="M219.79 202.184L219.343 202.095L218.453 202.041L217.914 201.933L217.24 201.528L216.782 201.124L216.566 200.369L216.674 199.668L216.647 198.913L216.943 198.077L217.294 197.537L217.563 197.268L217.725 197.106V196.971L216.997 196.567L216.782 195.866V195.165L217.078 195.084L217.186 194.868L217.483 194.598L217.536 194.463L217.132 194.167L216.97 193.331L216.593 192.225L216.269 191.632L216.053 190.284H215.892L215.811 190.068L214.975 189.718L213.411 189.421L212.305 189.151L211.739 188.747L211.497 188.154L210.876 187.938L210.148 187.129L209.501 186.967L209.447 186.104H209.016L208.827 185.727L208.369 185.484V184.352L208.477 183.947L208.665 183.111L208.584 182.572L208.234 182.302L207.91 181.709L207.587 181.385L207.344 180.927L207.614 180.603L207.776 180.442L206.616 180.415L205.296 179.728L204.887 179.404L204.658 178.508L204.486 178.899L204.305 179.051L204.086 179.566L203.971 179.328L203.79 179.251L203.685 179.07L203.495 178.412L203.371 177.164L202.351 176.782L200.997 176.515L200.844 176.315L200.053 176.124L199.434 175.495L198.823 175.19L198.48 174.466L198.099 173.894L197.408 173.202L197.152 172.568L196.801 172.42L196.383 172.393L195.534 172.527L195.359 172.811L195.21 172.649L195.359 171.961L195.494 171.584L195.844 170.896L196.168 169.939L196.329 169.399L196.289 167.728L196.478 166.986L196.774 166.528L197.017 166.433L197.165 166.083L197.583 165.921L197.637 165.26L197.448 164.721L197.111 164.478L196.909 163.723L197.152 163.103L197.826 162.874L198.851 162.887L199.12 163.13L199.188 163.615L199.268 163.588L199.552 163.265L199.727 163.144L199.97 162.254L200.226 162.24L200.374 161.984L201.358 161.809L201.897 161.674L202.369 161.836L202.585 162.227L203.07 162.281L203.596 162.173L204.149 162.092L204.23 161.998L203.839 161.755L203.812 161.445L203.947 160.838L204.284 159.53L204.526 158.074L204.783 158.061L204.944 157.737L206.225 157.629L207.196 157.319L207.56 156.969L208.018 156.807L208.544 156.955L208.827 157.279L208.948 157.764L209.42 157.926L210.121 158.236L210.458 158.6L210.863 158.667L211.119 159.018L212.036 159.18L213.128 159.409L215.083 159.328L215.245 158.694L215.46 158.627L215.676 158.249L216.957 158.128L217.092 158.398L218.602 158.586L218.79 158.667L218.939 158.559L219.235 158.263L219.33 156.321L219.559 155.041L220.543 154.663L220.786 154.178L221.648 154.164L221.824 153.692L222.457 153.059L223.051 152.398L223.846 152.034L224.439 151.427L224.803 151.292L225.019 150.861L225.396 150.173L225.841 149.985L225.787 149.607L225.693 149.149L225.289 148.919L225.248 148.542L225.423 147.531L225.639 146.978L226.03 146.911L227.001 146.547L227.284 146.412L227.702 146.533L227.985 146.641L228.524 146.668L228.632 145.589L228.983 144.929L229.455 144.74L229.67 143.944L230.317 143.27L230.911 142.677L231.369 142.461L231.571 141.666L231.713 140.898L230.641 140.83L230.29 140.749L229.67 140.075L228.942 139.347L228.376 138.727L227.621 138.107L226.084 137.783L225.086 137.486L224.277 137.271L224.116 136.839L223.765 136.462L223.549 136.003L223.334 135.976L223.172 135.734L222.794 135.518L221.905 135.248L221.257 134.979L220.071 135.006L219.855 135.329H219.451L219.208 135.14L218.939 134.871L218.238 134.601L216.862 133.819L215.973 133.549L215.245 133.388L214.975 132.902L214.301 132.525L213.708 131.959L213.087 131.581L212.71 131.284L211.47 130.637L209.744 130.314L208.827 129.99L207.506 129.316L206.913 129.154L206.373 129.181L206.319 129.828L206.4 130.556L206.481 130.88L206.67 131.096L206.778 131.365L207.021 131.662L206.94 132.336L206.589 132.417H205.834L205.591 132.066H204.459L202.949 131.932L202.248 131.608L201.008 130.961L200.414 129.667L200.091 128.291L199.713 128.076L199.471 127.401L199.12 127.105L198.365 126.404L197.745 126.107L197.421 125.837L197.233 124.166L196.936 123.168L196.451 122.494L196.37 121.523L196.586 120.579L196.855 118.287L197.152 117.586L197.442 116.676L197.61 115.557L197.448 114.863L196.869 114.89L196.316 114.876L195.723 114.809L195.601 114.364L195.52 114.094L194.523 113.73L193.242 113.407L192.797 113.191L192.716 112.611L191.88 112.557L190.64 112.746L190.249 113.07L189.979 113.744L189.642 114.067L189.305 115.362L188.753 116.602L188.469 117.802L188.348 118.274L188.065 118.543L187.768 119.245L187.701 119.447L187.553 119.811L187.404 119.474L187.202 119.366L187.081 118.934L186.393 118.247L186.124 117.654L185.76 117.357L185.423 116.669L185.166 116.44L185.018 116.157L184.479 116.063L184.115 115.672L183.211 115.496L182.564 115.685L181.85 116.332L181.54 117.02L181.23 117.613L181.108 117.964L180.353 118.099L179.531 118.072L179.356 117.478L178.493 117.492L177.387 117.613L177.266 117.923L177.131 117.559V116.75L176.983 116.359L176.861 115.941L176.538 115.82L176.336 115.308L176.039 114.714L175.702 113.676L175.095 112.463L174.772 112.126L174.61 111.924L174.853 111.721L174.772 111.209L173.922 110.966L173.72 110.683L173.019 110.467L172.102 110.171L171.765 109.834L169.487 109.483L168.53 109.214L168.193 108.876L168.031 108.108L167.303 107.919L166.278 107.663L166.265 107.488L165.901 107.407L165.82 107.151L165.941 106.895L166.642 106.625L167.343 106.274L167.694 105.964L167.68 105.506L167.586 104.98L167.276 104.656L165.968 104.333L165.065 104.144L164.013 104.319L163.406 104.603L162.746 105.277L162.328 105.91L162.031 106.247L161.398 107.596L161.169 107.96L161.034 108.108L160.67 107.946L160.535 107.757L160.036 107.717L159.402 107.892L158.823 108.243L158.486 108.903L158.135 109.996L157.488 110.157L156.841 110.454L155.439 110.629L154.441 110.589L154.225 110.184L153.538 109.807L152.554 109.632L151.677 109.82L151.354 110.198L151.017 110.521L150.733 110.872L150.329 111.02L149.547 110.885V110.076L149.749 109.969L149.817 109.699L149.709 109.497L149.399 108.809L149.129 108.674L148.859 108.432L148.401 108.229L148.024 107.892L147.848 107.717L147.39 108L147.053 107.906L146.81 107.65L146.473 107.002L146.096 106.261H144.936L144.599 106.517V105.91L144.707 105.479L144.99 105.385L145.112 105.169L145.273 105.128C145.273 105.128 145.341 104.913 145.341 104.859C145.341 104.805 145.61 104.791 145.61 104.791L145.462 104.036L145.138 103.632L144.99 102.553L145.516 102.351L145.786 102.081L146.109 101.906L146.46 102.027L146.581 102.176L146.824 102.068L147.781 101.731L147.929 100.369L148.145 99.0882L148.266 96.8366L147.767 96.4726L147.323 96.2569L147.174 94.7199L146.729 94.7064L145.502 94.5716L144.828 93.9244L144.168 93.3042L143.723 92.9941L143.642 92.293L144.019 92.0638L143.898 91.3492L143.628 90.8774H143.076L142.968 91.0796L142.739 91.1605L142.712 91.3627L142.267 91.6324L141.579 91.9694L140.932 92.3065L140.555 92.4683L140.164 92.3739L140.177 91.2414L140.352 90.6751L140.582 90.0414L141.053 89.7853L140.946 89.4078L140.312 89.0168L139.773 88.9089L139.543 89.219L139.409 89.3808L139.638 89.6909L139.746 91.0931L139.328 91.1605L138.303 91.6593L137.548 91.7133V91.2953L137.683 91.0526L137.831 90.392L137.668 89.6931L137.497 88.2535L137.096 88.101L135.771 87.7577L134.703 87.6147L134.408 87.9484L134.122 88.0819L133.331 88.1582L133.226 87.9484L132.816 87.9008L132.53 88.1318C132.346 88.2235 132.194 89.0491 132.194 89.0491L131.918 89.7218C131.918 89.7218 131.495 89.4537 131.215 90.364L131.093 90.7615C130.97 91.159 131.368 91.0061 131.368 91.0061L131.49 91.2202L131.184 91.3119L130.879 91.526L129.839 92.0764L129.166 92.321C129.166 92.321 129.011 92.2455 128.922 92.6268L128.585 94.064L128.28 94.4921L127.913 95.1954C127.913 95.1954 127.913 95.1954 127.852 95.5011C127.79 95.8069 127.913 95.8069 127.913 95.8069L128.28 96.2962L128.738 96.6937V96.8772C128.738 96.8772 128.738 96.8772 128.341 96.9995C127.943 97.1218 128.127 97.183 128.127 97.183L128.371 97.4582L128.31 98.1309L128.004 98.192L127.821 98.3449L127.271 98.4367L127.057 99.3235L126.598 100.302C126.598 100.302 126.69 101.189 126.72 101.342L126.323 102.198L126.017 103.023L125.742 103.513H125.436L125.252 103.268L124.396 103.299L123.693 103.329L123.051 103.757L122.898 104.828L122.745 105.928L122.409 106.693L122.225 106.907L121.553 107.243L121.063 107.396L120.544 107.274L120.268 106.815L120.238 105.714L120.452 104.98L120.666 103.268L120.849 102.137L121.094 100.485L121.033 99.5681L120.849 98.1615L120.482 96.7855L120.207 95.9598L119.963 95.0425L119.749 94.4921L119.626 94.6144L119.504 95.2566L119.107 95.5929V95.9293L119.198 96.1433L119.535 96.4797L119.902 97.183L119.963 98.1003L119.749 98.5284L119.626 99.3235L119.229 99.354L118.709 99.2317L118.678 98.6813L118.495 98.7119L118.22 98.8342C118.22 98.8342 118.22 98.8342 117.945 99.5069C117.669 100.18 117.945 99.5375 117.578 100.394C117.211 101.25 117.578 100.394 117.241 100.791C116.905 101.189 116.936 101.433 116.936 101.433L116.11 102.137L115.193 102.259L114.887 102.626L114.856 103.054L115.101 103.176L115.284 104.338L115.59 105.928L115.743 106.418L115.651 107.213L115.315 108.191L114.948 108.833L114.306 109.567L113.572 109.842L112.93 110.271L112.747 110.423L112.318 111.127L112.227 112.319L111.768 112.472L111.187 112.747L110.453 113.053L110.025 113.512L109.903 113.604L109.628 113.512L109.475 113.145L108.771 112.809L108.435 112.717L107.885 112.778L107.64 113.328L107.396 112.809L107.059 112.564L106.998 111.585L107.273 111.432L107.212 111.31L106.845 111.218L106.234 110.485L105.836 109.812L105.194 109.139L104.368 109.17L104.001 109.323L103.268 109.261L103.206 108.894L102.931 108.161L102.87 107.732L102.656 107.641L102.259 107.885L101.341 108.283L100.669 108.619L99.5372 108.772L98.4059 108.589L97.7332 108.222L97.3662 107.855L96.2349 107.243L95.9597 107.09L95.5316 107.152L94.8283 107.549L94.4614 107.977L94.2474 108.283L93.8193 108.619L91.8318 108.772L90.731 108.833L90.5475 109.078L90.2418 109.261L90.0277 110.148L89.5996 110.882L89.355 111.066L88.8964 111.432L88.6212 111.738L88.2848 111.891L87.7344 112.075L87.3064 112.809L87.0312 113.053L86.7254 113.695L86.389 114.123L86.2362 114.399L85.961 113.542L85.7469 113.084L85.1048 112.472L84.4321 112.013L82.8115 111.799L82.2611 111.555L81.5579 111.708L79.9067 112.013L78.7754 111.769L77.6134 111.647L76.5126 111.738L76.3903 113.114L76.054 113.512L74.3111 113.818L74.0053 113.97L73.6384 113.726L72.3847 113.604L71.6509 113.389L70.4584 113.023L69.694 112.931L69.4493 112.472L69.2353 111.463L68.9601 110.576L68.1651 109.17L67.8288 108.069L67.1255 106.846L66.5445 105.714L66.2387 104.766L65.8107 103.941L65.4437 103.849L65.2297 104.308L65.0157 104.522L64.9742 104.28L63.8969 104.186L63.4285 103.952L62.9601 103.765L62.8195 103.39L62.3043 102.969L61.6017 102.922L61.3675 103.109L60.9459 102.734L60.5712 102.641L60.337 102.36L59.6812 102.032L59.3533 101.704C59.3533 101.704 59.3533 101.704 58.9786 101.048C58.6039 100.392 58.1823 100.814 58.1823 100.814C58.1823 100.814 58.1823 100.767 58.0418 100.58C57.9013 100.392 58.0418 100.486 58.0418 100.252C58.0418 100.017 58.3228 100.299 58.3228 100.299L58.1355 99.877C58.1355 99.877 58.1355 99.877 57.8544 99.5959C57.5734 99.3149 57.4797 99.8301 57.4797 99.8301L56.5897 99.9707L56.0745 100.111C56.0745 100.111 56.0745 100.111 55.8403 100.299C55.6061 100.486 55.5124 100.439 55.5124 100.439L55.3718 100.533V100.58L55.6529 100.814L55.9808 101.001L56.0276 101.329L55.4655 101.423L54.9503 101.376L54.0603 101.329C54.0603 101.329 54.0603 101.282 54.0603 101.938C54.0603 102.594 54.3882 101.985 54.3882 101.985L54.154 102.453L53.5919 103.25L53.3109 102.875L53.1235 102.922V103.109L53.1703 103.578L53.4982 103.859L53.3577 104.327L52.4677 105.03L52.4209 105.498L52.5614 105.92L52.8424 106.575L53.0766 106.763L52.9361 106.95L52.2335 107.278L51.5777 107.934L50.9688 108.449L50.4536 108.73L50.313 109.714L49.7041 110.557L48.861 110.979L48.6736 111.166L48.0647 111.728L47.9242 112.384L48.0178 113.087L48.2989 113.602C48.2989 113.602 48.2989 113.883 48.2989 114.07C48.2989 114.258 48.2989 114.539 48.2989 114.539L47.971 115.007L47.69 115.241L47.2684 115.476L47.0342 115.429L46.6595 115.007L46.1911 114.82L45.3479 114.351L45.02 114.305L44.8795 114.023L44.6453 113.789L44.5048 113.649L42.8185 113.368L40.5233 113.133L37.9002 113.274L37.0571 113.696L36.6355 113.977L36.5498 114.366L36.9693 115.033L37.4459 115.262L37.5603 115.586L37.8082 115.796L37.6557 116.006L37.5222 116.196L37.6557 116.654L37.9989 117.302L38.3039 117.645L38.628 118.351L38.9522 118.942L39.1619 119.323L39.6958 119.514L39.9436 119.762L40.6109 119.953L40.8779 120.525L41.0876 120.753L40.8397 120.887V121.173L41.2592 121.631L41.5261 122.203L41.8693 122.527L42.2697 122.889L42.5748 123.461L43.1086 124.09L43.6044 124.319L43.6616 124.948L43.3946 125.234L43.204 125.101L42.7273 124.929L42.5938 124.681L42.1744 124.452L41.8884 124.109L41.5643 123.861L41.2973 123.537C41.2973 123.537 41.3164 123.861 41.4689 123.976C41.6215 124.09 41.8121 124.357 41.8121 124.357L42.0409 124.624L42.4985 125.024L43.0514 125.349H43.8331L44.7483 125.444C44.7483 125.444 44.939 126.073 45.0153 126.054C45.0915 126.035 45.7589 126.435 45.7589 126.435L46.0448 127.408L46.4071 128.418V128.247L46.5024 129.029L46.3118 129.219L46.2546 129.772L46.5024 129.906L46.6359 130.154L46.9219 129.543L47.0172 129.639L46.9028 130.173L47.1316 130.459L47.5511 130.687L47.7417 131.984L47.9896 132.594L48.6951 133.242L49.0192 133.586L49.2861 134.539L49.5149 134.768L49.7246 135.016H50.6398L51.3071 134.844L52.2986 134.577L53.557 133.891L54.5294 133.509L55.8831 133.281L57.6753 132.956L58.152 132.823L59.029 132.918L60.0777 133.242L60.745 133.891L61.317 134.177L62.0224 134.882L62.6707 135.225L63.2808 135.836L64.6536 136.56L65.2065 136.789L65.6069 137.018L65.7022 137.266L65.912 137.285L66.0454 137.552L66.3696 137.647L66.5412 138.085L66.9034 139.096L67.0941 139.554L67.4754 139.725L68.1237 139.916L68.8863 140.068L70.7167 140.412L72.1276 141.06L72.3945 141.403L73.0618 141.689L73.4432 141.861L73.5957 142.147L73.7864 142.242L74.1105 142.738L74.7206 143.253L75.3879 144.587L75.6167 145.312L76.1506 145.522L76.2078 145.693L76.4366 145.846L76.6654 146.208L77.9428 146.551L78.267 146.914L78.858 147.161L79.8685 147.505L80.4405 147.752L80.5168 148.134L81.1078 148.439L81.3938 148.992L81.8133 149.163L82.0421 149.602L82.6141 149.716L82.7475 149.945L84.8258 150.079L86.0842 150.784L86.9612 151.738L87.6476 152.024L88.3149 152.786L89.0013 153.377L89.1729 153.835L89.4589 154.026L89.6114 154.331L90.3169 155.093L90.5647 155.341L90.9461 155.989L91.1177 156.371L91.4227 156.657L91.5181 156.962L91.9375 157.667L92.2045 158.258L92.4904 158.583L92.8908 159.269L93.1959 160.222L93.52 160.527L93.8442 161.233L94.1111 161.481L94.8737 162.777L95.5411 164.188L95.8271 164.684L96.094 165.714L96.4944 166.4L96.7994 167.334L97.1236 167.887L97.3905 169.26L98.0388 170.614L98.4201 171.262L98.7633 172.197L99.0683 173.188L99.3543 174.16L99.4878 174.79V175.915L99.2781 176.22L99.0683 176.41L98.8777 176.62L99.0111 176.792L99.3734 177.44L99.6785 178.05L100.346 179.309L100.422 180.262L100.079 180.529L99.8119 180.758V180.853L100.632 181.006L100.746 181.12L101.07 180.986L101.623 180.796L102.729 180.72L103.206 180.472L103.892 180.529L103.225 180.7L101.928 181.025L101.223 181.253L101.07 181.711L101.394 181.845L101.738 181.825L102.062 181.444L103.034 181.673L103.53 181.978L104.178 182.064L104.359 182.321L104.874 182.579L106.19 183.246L106.866 183.618L107.763 183.885L109.135 184.543L109.784 184.905L111.052 185.229L111.738 185.601L112.043 185.887L113.273 186.506L113.692 186.84L114.979 187.517L115.256 187.813L115.933 188.165L116.381 188.318L116.485 188.575L116.857 188.785L117.525 189.414L118.201 189.757L118.85 190.396L119.527 190.72L119.841 191.083L120.518 191.397L120.785 191.702L121.462 191.988L122.062 192.703L122.711 193.323L123.349 193.99L124.045 194.648L124.665 194.953L125.018 195.258L125.647 195.611L126.295 196.269L126.972 196.898L127.63 197.546L128.23 198.195L128.879 198.852L129.212 199.11L129.622 199.548L130.432 200.301L131.186 201.036L131.615 201.503L132.368 202.332L133.168 203.085L133.626 203.858L134.026 204.706L134.379 205.049L135.161 205.869L136.028 206.651L136.791 207.49L137.201 208.233L137.992 209.053L138.45 209.234L138.812 209.845L139.603 210.636L139.975 211.055L140.376 211.875L141.186 212.686L141.558 213.42L142.339 214.249L142.749 214.63L143.188 215.403L143.55 216.213L144.351 217.023L145.152 217.843L145.552 218.587L145.962 219.416L146.343 219.817L147.135 221.352L147.554 221.809L147.935 222.591L148.755 223.392L149.156 224.24L149.575 224.965L149.909 225.403L150.738 226.995L151.167 228.168L151.434 228.33H152.244L152.721 227.777L153.15 227.386L153.942 226.97L155.048 226.538L157.003 226.255L158.661 226.565L160.252 226.902L160.643 227.347L161.438 227.779L162.274 228.197L162.651 228.574L164.188 229.329L165.078 230.152L165.86 230.596L166.116 231.082L166.399 231.176L166.453 231.419L167.343 231.716L167.802 232.147L168.637 232.551L168.988 232.889L169.19 233.091L169.5 233.428L169.649 233.576L169.783 233.28L170.013 233.185L170.134 232.754L170.255 232.551L170.497 232.347C170.509 232.318 170.26 230.681 170.234 230.576C170.208 230.471 169.789 229.803 169.789 229.803L169.487 229.031L168.361 227.76L167.837 227.55L167.418 227.917L166.527 227.76L166.003 227.393V225.769L166.841 225.402L167.051 224.249L166.684 222.52L166.422 222.049L164.589 221.682L163.541 219.534L163.279 219.01L163.384 218.486L163.593 218.014L162.493 217.753L158.93 217.595L158.144 217.229L157.935 215.604L157.62 215.133L156.939 214.818L156.311 214.609L155.891 214.294L154.424 213.351L151.503 212.956L150.651 212.733L150.466 212.437L150.17 212.289L150.132 212.104L148.539 211.955L147.947 212.141L147.391 212.4L146.761 212.363L146.354 211.881L146.02 210.547L145.168 208.991L144.835 207.769L144.39 207.065L143.983 206.472L143.464 206.213L142.686 205.842L141.982 205.027L141.538 204.286L141.204 203.805L139.944 203.545L139.611 203.471L139.092 203.582L138.907 203.693L138.722 203.138L139.537 202.693L140.871 202.212L141.575 201.804L141.982 199.359L142.464 199.248L142.723 198.877L143.242 198.84L143.538 198.507L143.946 197.877L144.02 197.432L144.538 197.136L145.205 196.543L145.909 196.098L146.131 195.95L146.613 195.728L146.761 194.913L147.021 194.246L147.428 193.838L148.058 193.616L148.391 193.135L148.799 192.949L149.799 191.912L150.318 191.616L150.985 190.912L151.355 190.875L151.8 191.023L152.133 191.541L152.763 191.616L152.8 192.357L152.874 192.616L153.17 192.801L153.022 192.949L152.763 193.172H152.578L152.504 193.727L152.559 193.829L153.124 193.885L153.319 193.709L153.513 193.144C153.513 193.144 153.708 192.857 153.708 192.82C153.708 192.783 153.402 192.532 153.402 192.532L153.708 192.486L153.967 193.366L154.254 194.32L154.402 194.95L154.235 195.95L154.11 196.742L154.267 198.209L154.477 198.471L154.32 198.864L154.11 199.362L154.162 201.431L154.66 201.877L155.079 202.741L155.394 202.82L155.446 202.715L156.232 202.27L157.07 201.877L157.882 201.484L158.799 201.012L159.114 200.541L159.506 200.462L159.716 200.803L159.899 201.903L160.24 202.715L161.497 203.03L162.074 203.213L162.65 203.318L163.069 202.741L163.41 201.877L164.222 201.51L164.615 201.3L165.139 201.327L165.27 201.982L165.086 203.449L164.667 204.261L164.536 204.444L164.458 205.178L165.034 205.282L165.794 205.413L166.658 205.597L167.025 206.252L167.261 206.54H167.47L167.811 205.885L168.23 205.099L168.623 204.654L168.841 202.508L169.23 202.378L169.286 202.026L169.647 201.924L169.768 201.628L170.221 200.303L170.657 198.868L170.777 198.803L171.129 198.507L172.324 198.321L173.065 198.581L173.398 198.729H173.843V197.914L173.509 197.025V195.357L175.065 195.32L175.584 195.024L175.473 194.283L175.102 193.913L174.547 193.764L174.51 193.505L174.695 193.357L174.991 192.616L175.436 192.357L175.658 192.208L175.917 191.727L176.029 192.319L176.288 193.06H176.584L176.881 192.912L177.103 192.838L177.14 190.912L177.622 190.763L178.474 190.541L178.325 189.689L178.14 188.726L178.325 187.725L178.696 186.762V186.095L178.659 185.206L178.4 184.724L178.029 184.836L177.622 185.169L177.547 185.391L177.288 185.169L176.955 184.91L176.621 184.502L176.51 184.243L176.658 183.872L177.047 183.706L177.177 183.428L177.64 183.261L177.955 182.965L178.066 182.39L178.566 182.872L179.289 183.576L179.9 183.965L180.27 184.261L180.493 184.428L180.993 184.317L181.123 184.058H181.475L181.641 184.391L182.16 184.484L182.141 184.354L181.826 184.113L181.734 183.409L182.215 183.242L182.864 182.909L183.438 182.761L184.142 182.909L184.846 183.298L185.642 183.372L186.402 183.224L187.069 182.983L188.365 182.594L188.847 182.409L189.106 182.464L189.347 182.983L189.643 183.632L190.014 184.558L190.662 185.243L190.736 185.354L190.625 185.54L190.403 186.336L189.792 186.355V187.633L189.958 188.911L190.31 189.059L191.273 190.041L191.607 190.745L192.255 191.393L193.57 192.06L193.922 192.338L194.46 192.671L194.886 192.968L195.58 193.199L195.83 194.302L196.506 194.931L197.146 196.284L197.451 196.914L198.109 197.562L198.748 198.238L199.091 198.507L199.72 198.831L200.285 198.951L200.498 199.933L200.554 200.359L200.48 200.693L199.674 201.498L199.489 202.851L199.165 202.869L198.868 203.499L198.729 203.74L198.85 203.869L199.304 204.277L200.869 204.675L201.499 204.842L202.101 204.675L203.666 203.869L203.925 203.675L204.203 203.203L204.444 203.879L204.824 204.305L206.444 205.064L207.621 206.25L208.436 206.685L209.232 207.083L209.649 207.472L210.325 207.723L210.399 208.269L210.677 208.834L210.946 209.26L211.085 209.343L211.196 208.602L211.603 207.861L212.14 207.648L212.789 207.852L213.141 208.13L213.78 208.149L213.919 208.01L213.53 207.852L213.585 206.657L214.085 206.537L214.28 206.065L215.577 205.861L216.049 205.68L216.382 204.671L217.17 204.272L218.749 203.888L218.994 203.332L219.337 203.216L219.55 202.684L219.809 202.499L219.79 202.184ZM152.891 177.813L152.904 178.716L153.295 179.012L153.619 179.444L153.969 179.687L154.185 179.848L154.428 180.118L154.495 180.28L153.929 180.415L153.497 180.522L153.241 180.037L153.093 179.821L152.945 179.188L152.715 178.932L152.446 178.325L152.351 178.082L152.891 177.813ZM126.142 153.463L126.372 153.342L126.601 153.032L126.951 152.749L127.073 152.587L127.625 152.735L127.828 153.328L127.72 153.854H127.181L126.978 153.706L126.736 153.625H126.399L126.142 153.463Z" stroke="#015EDE" stroke-width="2" stroke-linejoin="round"/>
<path d="M260.772 332.143L261.47 332.105L261.702 332.44L261.987 332.596L261.728 332.776L261.185 333.087L260.72 333.035L260.694 332.621L260.772 332.143ZM258.407 330.205L257.994 330.593L257.787 331.213L256.934 332.027L256.534 332.841L255.953 332.957L255.629 333.099L255.462 333.306L255.126 333.487L255.255 333.707L255.513 333.836L256.198 333.901L256.469 333.668V333.435L256.999 333.203L257.774 332.802L258.601 332.027C258.601 332.027 258.692 331.626 258.692 331.562C258.692 331.497 258.575 330.799 258.575 330.799L258.407 330.205ZM209.235 304.566L209.82 304.374L210.405 304.575L210.524 305.032L210.661 305.516L210.058 305.763L209.592 305.827L208.852 305.763L208.614 305.626L208.733 305.096L208.797 304.932L209.235 304.566ZM196.883 320.492C196.883 320.492 196.737 320.199 196.7 320.126C196.664 320.053 196.335 319.578 196.335 319.578L196.481 319.432L196.919 318.884C196.919 318.884 197.358 318.463 197.358 318.39C197.358 318.317 197.139 318.171 197.139 318.171L196.554 317.732L195.64 317.239L195.512 316.855L195.695 316.508L196.115 315.667L196.316 314.26L196.956 314.041L197.833 313.858L198.016 313.657L198.454 313.292L198.674 312.707L199.24 312.177L199.551 311.812L200.062 311.245L200.592 311.117L201.725 311.172L202.365 310.898L202.675 310.697L203.004 310.898L203.077 311.464L202.584 311.629L202.182 311.428L201.707 312.104L200.483 312.561L199.606 312.999L199.076 313.31L198.418 313.877L198.308 315.265L197.924 316.618L197.815 317.933L197.742 318.207L198.948 318.244L199.222 318.372L198.838 318.938L198.637 319.45L198.418 319.797L198.052 320.254L197.614 320.528L197.267 320.729L196.883 320.492ZM183.416 310.697L184.074 310.606L184.366 309.454H184.622L184.914 310.167L185.152 311.501L185.005 312.871L184.658 313.109L184.256 313.31L184.037 314.004L183.69 314.662L183.489 314.827L183.598 313.566L184.092 312.652L184.366 312.342L184.165 310.953L183.416 310.697ZM296.098 258.685L296.356 258.427L296.563 257.806L296.821 256.824L297.028 256.282L297.209 255.558L297.286 255.041L299.121 254.964L299.483 254.705L300.336 254.395L301.473 254.473L302.377 254.447L303.049 254.421L303.618 254.008L304.341 253.594L304.755 253.336L305.065 252.535L305.582 251.553V250.855L304.755 250.493L304.341 249.614L303.85 248.813L303.695 248.581L304.005 248.451L305.065 248.09L305.912 247.233L306.684 246.465L306.831 246.337L307.196 246.483L307.342 246.812L307.708 246.776L309.096 246.483L311.033 246.264L311.472 245.387L311.947 243.998L312.057 242.975L311.947 242.573L311.545 242.061L311.362 241.623L310.851 241.44L310.741 240.892L310.376 240.526L309.497 239.704L309.294 238.67L308.299 238.894L307.528 239.267L306.359 239.715L305.588 239.963L304.793 239.739L304.345 239.242L303.549 238.894L303.002 238.794L302.306 238.993L302.281 241.033L302.43 241.505L301.808 241.854L301.112 242.102L300.565 242.326L300.415 241.928L299.794 241.903L299.595 242.824L299.172 243.246L298.948 243.968L298.65 243.52L298.301 243.595L297.605 244.067L296.759 244.813L295.988 245.137L295.765 245.385L295.441 244.639L295.193 244.44L294.869 243.943L294.322 243.644L294.098 243.047L293.551 242.998L292.855 242.152L292.308 241.331L291.164 240.859L290.343 240.486L289.97 240.113L289.174 239.715L288.851 237.725L288.453 236.332L288.204 236.257L287.184 236.456L286.836 236.904L286.488 237.974L286.09 238.72L285.617 238.894L285.294 239.242L284.871 239.466L284.399 239.342L283.752 239.068L283.23 239.242L282.807 239.665L281.986 240.137L281.613 240.859L281.489 242.152L281.713 242.5L281.763 243.197L281.439 243.52L280.967 243.172L279.972 243.296L278.48 243.719L278.181 243.893L277.684 243.52L277.112 243.47L276.863 242.948L276.465 242.475L275.694 241.679L275.545 240.809L275.147 240.635L274.824 239.64L274.127 238.148L273.282 237.675L272.735 237.277L272.063 236.929L271.715 236.531L271.218 236.257L271.019 236.009L270.223 235.86L269.402 235.561L269.875 235.312L270.098 234.964L270.397 234.318L270.869 234.143L271.367 233.621L271.964 233.522L271.516 233.198V232.402L270.919 232.179L270.521 231.333L270.098 230.985L269.85 230.512L269.352 230.214L268.88 228.547L268.407 228.224L268.134 227.727L267.387 227.005L266.716 226.732L266.442 226.408L265.323 226.558L264.776 226.781L263.209 226.632C263.209 226.632 263.085 225.19 262.985 225.14C262.886 225.09 262.14 224.991 262.14 224.991L259.802 224.692L259.379 224.145L258.583 223.772L257.016 223.449L256.146 223.051L255.723 222.752L255.45 221.782L254.952 220.588L254.455 220.464L254.206 220.588L253.385 220.986L252.987 221.384L252.415 221.608V223.1L252.813 223.225L252.987 223.697L253.385 224.468L253.808 225.762L254.057 226.682L253.783 227.677L253.261 229.219L252.963 230.164L252.614 231.507L251.819 231.756L250.625 231.855L250.451 231.607L250.028 231.482L249.904 231.258L248.934 230.91C248.934 230.91 247.093 230.736 246.869 230.736C246.646 230.736 245.8 230.96 245.8 230.96L245.402 231.582L245.029 231.681L244.532 231.93L244.233 231.706L243.761 231.333L243.064 230.885L241.174 230.637L239.359 230.686L239.16 231.109L238.712 231.283L238.14 231.507L237.468 231.358L237.07 230.91L236.673 230.164L236.225 229.816L235.902 228.97L235.454 228.547L234.608 228.075L233.489 227.776L231.873 227.354L230.927 227.105L230.977 226.334L231.102 225.762L231.475 224.593L231.873 223.797L232.32 222.926L232.917 222.727L233.017 222.205L233.937 221.757L235.056 221.384L235.852 220.613L236.026 220.041L235.877 219.768L235.056 218.126L234.708 217.803L234.31 216.684L233.414 215.813L233.29 214.221L232.992 213.998L232.768 212.654L232.445 212.107L232.171 211.908L231.997 211.51L231.425 210.665L230.778 210.292L230.355 209.894L229.51 209.521L225.506 209.048L224.722 208.675L223.976 207.892L223.106 207.046L222.956 202.979L222.67 202.83L222.559 201.761L222.148 201.587L221.837 201.363L221.091 201.388L220.78 202.109L219.803 202.187L219.81 202.499L219.551 202.684L219.338 203.216L218.995 203.332L218.749 203.888L217.17 204.272L216.383 204.671L216.05 205.68L215.577 205.861L214.281 206.065L214.086 206.537L213.586 206.657L213.53 207.852L213.919 208.01L213.78 208.149L213.141 208.13L212.789 207.852L212.141 207.648L211.604 207.861L211.196 208.602L211.085 209.343L210.946 209.26L210.678 208.834L210.4 208.269L210.326 207.723L209.65 207.472L209.233 207.083L208.436 206.685L207.621 206.25L206.445 205.064L204.824 204.305L204.445 203.879L204.204 203.203L203.926 203.675L203.667 203.869L202.101 204.675L201.499 204.842L200.87 204.675L199.304 204.277L198.85 203.869L198.73 203.74L198.869 203.499L199.165 202.869L199.49 202.851L199.675 201.498L200.481 200.693L200.555 200.359L200.499 199.933L200.286 198.951L199.721 198.831L199.091 198.507L198.749 198.238L198.109 197.562L197.452 196.914L197.146 196.284L196.507 194.931L195.831 194.302L195.581 193.199L194.886 192.968L194.46 192.671L193.923 192.338L193.571 192.06L192.256 191.393L191.608 190.745L191.274 190.041L190.311 189.059L189.959 188.911L189.792 187.633V186.355L190.404 186.336L190.626 185.54L190.737 185.354L190.663 185.243L190.015 184.558L189.644 183.632L189.348 182.983L189.107 182.464L188.848 182.409L188.366 182.594L187.069 182.983L186.403 183.224L185.643 183.372L184.847 183.298L184.143 182.909L183.439 182.761L182.864 182.909L182.216 183.243L181.735 183.409L181.827 184.113L182.142 184.354L182.161 184.484L181.642 184.391L181.475 184.058H181.123L180.994 184.317L180.493 184.428L180.271 184.261L179.901 183.965L179.289 183.576L178.567 182.872L178.067 182.39L177.956 182.965L177.641 183.261L177.178 183.428L177.048 183.706L176.659 183.872L176.511 184.243L176.622 184.502L176.955 184.91L177.289 185.169L177.548 185.391L177.622 185.169L178.03 184.836L178.4 184.724L178.66 185.206L178.697 186.095V186.762L178.326 187.725L178.141 188.726L178.326 189.689L178.474 190.541L177.622 190.763L177.141 190.912L177.104 192.838L176.881 192.912L176.585 193.06H176.289L176.029 192.319L175.918 191.727L175.659 192.208L175.437 192.357L174.992 192.616L174.696 193.357L174.51 193.505L174.547 193.764L175.103 193.913L175.474 194.283L175.585 195.024L175.066 195.32L173.51 195.357V197.025L173.844 197.914V198.729H173.399L173.066 198.581L172.325 198.321L171.13 198.507L170.778 198.803L170.657 198.868L170.222 200.304L169.768 201.628L169.648 201.924L169.287 202.026L169.231 202.378L168.842 202.508L168.624 204.654L168.231 205.099L167.811 205.885L167.471 206.54H167.261L167.026 206.252L166.659 205.597L165.794 205.413L165.035 205.282L164.458 205.178L164.537 204.444L164.668 204.261L165.087 203.449L165.27 201.982L165.139 201.327L164.616 201.3L164.223 201.51L163.41 201.877L163.07 202.741L162.651 203.318L162.074 203.213L161.498 203.03L160.241 202.715L159.9 201.903L159.717 200.803L159.507 200.462L159.114 200.541L158.8 201.012L157.883 201.484L157.071 201.877L156.233 202.27L155.447 202.715L155.394 202.82L155.08 202.741L154.661 201.877L154.163 201.431L154.111 199.362L154.32 198.864L154.478 198.471L154.268 198.209L154.111 196.742L154.236 195.95L154.403 194.95L154.255 194.32L153.968 193.366L153.708 192.486L153.403 192.533C153.403 192.533 153.708 192.783 153.708 192.82C153.708 192.857 153.514 193.144 153.514 193.144L153.319 193.709L153.125 193.885L152.56 193.829L152.504 193.727L152.578 193.172H152.764L153.023 192.949L153.171 192.801L152.875 192.616L152.801 192.357L152.764 191.616L152.134 191.541L151.8 191.023L151.356 190.875L150.985 190.912L150.318 191.616L149.8 191.912L148.8 192.949L148.392 193.135L148.059 193.616L147.429 193.838L147.021 194.246L146.762 194.913L146.614 195.728L146.132 195.95L145.91 196.098L145.206 196.543L144.539 197.136L144.02 197.432L143.946 197.877L143.539 198.507L143.242 198.84L142.724 198.877L142.464 199.248L141.983 199.359L141.575 201.804L140.871 202.212L139.538 202.693L138.723 203.138L138.908 203.693L139.093 203.582L139.612 203.471L139.945 203.545L141.205 203.805L141.538 204.286L141.983 205.027L142.687 205.842L143.465 206.213L143.983 206.472L144.391 207.065L144.835 207.769L145.169 208.991L146.021 210.548L146.354 211.881L146.762 212.363L147.392 212.4L147.947 212.141L148.54 211.955L150.133 212.104L150.17 212.289L150.467 212.437L150.652 212.733L151.504 212.956L154.425 213.351L155.892 214.294L156.311 214.609L156.94 214.818L157.621 215.133L157.935 215.604L158.145 217.229L158.931 217.595L162.494 217.753L163.594 218.014L163.384 218.486L163.279 219.01L163.541 219.534L164.589 221.682L166.423 222.049L166.685 222.52L167.052 224.25L166.842 225.402L166.004 225.769V227.393L166.528 227.76L167.419 227.917L167.838 227.55L168.362 227.76L169.488 229.031L169.789 229.803C169.789 229.803 170.208 230.471 170.235 230.576C170.261 230.681 170.51 232.318 170.51 232.318L171.1 232.376L171.356 231.974L173.366 232.084L174.535 232.522L174.901 232.742L175.156 232.595L175.376 232.449L178.519 232.267L180.236 232.559L182.466 233.363L184.183 234.167L184.585 234.569L186.084 235.227L187.838 236.104L188.678 236.945L189.263 237.566L189.738 237.676L190.615 238.114L191.785 239.32L192.625 239.759L193.758 241.001L194.928 242.134L196.17 243.34L196.536 244.108L197.267 244.875L197.632 245.643L198.034 246.154L198.473 246.849L199.021 247.214L199.277 247.653L200.117 249.224L200.592 249.663L200.812 250.504L201.287 250.796L202.091 252.623L202.931 254.122L203.333 254.889L203.516 255.693L203.881 256.022L204.064 256.497L204.356 257.923L204.685 258.727L204.758 260.042L204.832 260.883L205.197 261.577L205.672 262.053L206.476 262.381L208.084 262.82L209.071 262.966L210.35 262.783L212.068 262.601L212.397 261.541L213.164 259.969L213.931 259.312L214.772 258.325L215.174 258.032L215.905 257.594L216.782 257.155L217.001 256.607L217.257 256.534L217.586 255.986L218.39 255.547L219.596 254.414L220.692 254.122L222.41 253.135L223.251 252.916L223.36 252.66L224.42 252.441L225.955 252.075L228.075 251.856L231.948 251.673L232.716 250.759L233.154 250.577L233.483 249.59L234.653 249.188L236.334 249.078L238.344 249.261L241.048 249.626L242.181 250.065L244.666 250.431L247.078 251.198L247.882 251.637L249.015 252.002L249.819 252.404L251.025 252.806L252.706 253.574L254.205 254.524L255.776 255.218L256.324 255.401L256.617 256.059L257.384 256.461L258.079 256.753L258.188 257.155L259.029 257.703L259.54 257.959L259.979 257.813L260.271 257.521L260.673 257.63L261.806 258.032L262.61 258.434L262.83 259.056L263.232 259.129V259.312L264.109 259.567L266.009 259.969L266.923 260.408L267.727 261.285L268.165 261.687L268.896 262.016L269.225 262.381L269.81 262.637L270.248 262.601L270.431 261.833L271.308 261.87L271.564 262.162L272.149 262.199L272.441 262.93L273.172 263.039L273.537 262.82L273.976 262.455L274.341 262.308L274.707 261.943L275.219 261.76L274.817 261.687L273.537 261.577L272.88 261.249L272.331 260.993L272.112 260.444C272.112 260.444 271.966 260.042 271.929 259.86C271.893 259.677 272.076 257.959 272.076 257.959L272.478 256.899L272.733 256.278L273.355 256.059L273.647 255.657L275.255 254.816L276.827 254.012L277.667 253.135L279.348 253.098L281.212 253.318L282.857 253.61L283.551 254.085L283.843 254.56L284.209 254.78L284.245 255.109L285.159 255.218L285.634 255.401L286.511 255.255L287.206 254.853L288.046 254.049L288.594 253.866L289.581 254.049L290.86 254.378L291.226 254.78L292.066 255.218L292.87 256.022L293.638 256.388L294.515 257.301L295.173 257.594L296.013 258.361L296.098 258.685Z" stroke="#015EDE" stroke-width="2" stroke-linejoin="round"/>
<path d="M309.294 238.67L308.299 238.894L307.528 239.267L306.359 239.715L305.588 239.963L304.792 239.74L304.345 239.242L303.549 238.894L303.002 238.794L302.305 238.993L302.28 241.033L302.43 241.505L301.808 241.854L301.112 242.102L300.564 242.326L300.415 241.928L299.793 241.903L299.594 242.824L299.172 243.246L298.948 243.968L298.649 243.52L298.301 243.595L297.605 244.067L296.759 244.813L295.988 245.137L295.764 245.385L295.441 244.639L295.192 244.44L294.869 243.943L294.322 243.644L294.098 243.047L293.551 242.998L292.855 242.152L292.307 241.331L291.163 240.859L290.343 240.486L289.97 240.113L289.174 239.715L288.85 237.725L288.453 236.332L288.204 236.258L287.184 236.456L286.836 236.904L286.488 237.974L286.09 238.72L285.617 238.894L285.294 239.242L284.871 239.466L284.399 239.342L283.752 239.068L283.23 239.242L282.807 239.665L281.986 240.137L281.613 240.859L281.489 242.152L281.713 242.5L281.762 243.197L281.439 243.52L280.967 243.172L279.972 243.296L278.479 243.719L278.181 243.893L277.684 243.52L277.112 243.47L276.863 242.948L276.465 242.475L275.694 241.679L275.545 240.809L275.147 240.635L274.824 239.64L274.127 238.148L273.282 237.675L272.734 237.277L272.063 236.929L271.715 236.531L271.217 236.258L271.018 236.009L270.223 235.86L269.402 235.561L269.874 235.312L270.098 234.964L270.397 234.318L270.869 234.143L271.367 233.621L271.963 233.522L271.516 233.198V232.402L270.919 232.179L270.521 231.333L270.098 230.985L269.849 230.512L269.352 230.214L268.88 228.547L268.407 228.224L268.133 227.727L267.387 227.005L266.716 226.732L266.442 226.408L265.323 226.558L264.776 226.781L263.209 226.632C263.209 226.632 263.085 225.19 262.985 225.14C262.886 225.09 262.14 224.991 262.14 224.991L259.802 224.692L259.379 224.145L258.583 223.772L257.016 223.449L256.146 223.051L255.723 222.752L255.449 221.782L254.952 220.588L254.455 220.464L254.206 220.588L253.385 220.986L252.987 221.384L252.415 221.608V223.101L252.813 223.225L252.987 223.697L253.385 224.468L253.808 225.762L254.057 226.682L253.783 227.677L253.261 229.219L252.962 230.164L252.614 231.507L251.818 231.756L250.625 231.855L250.451 231.607L250.028 231.482L249.903 231.258L248.933 230.91C248.933 230.91 247.093 230.736 246.869 230.736C246.645 230.736 245.8 230.96 245.8 230.96L245.402 231.582L245.029 231.681L244.531 231.93L244.233 231.706L243.76 231.333L243.064 230.885L241.174 230.637L239.358 230.686L239.159 231.109L238.712 231.283L238.14 231.507L237.468 231.358L237.07 230.91L236.672 230.164L236.225 229.816L235.901 228.97L235.454 228.547L234.608 228.075L233.489 227.776L231.872 227.354L230.927 227.105L230.977 226.334L231.101 225.762L231.474 224.593L231.872 223.797L232.32 222.926L232.917 222.727L233.016 222.205L233.937 221.757L235.056 221.384L235.852 220.613L236.026 220.041L235.876 219.768L235.056 218.126L234.708 217.803L234.31 216.684L233.414 215.813L233.29 214.221L232.992 213.998L232.768 212.655L232.444 212.107L232.171 211.908L231.997 211.51L231.425 210.665L230.778 210.292L230.355 209.894L229.51 209.521L225.506 209.048L224.722 208.675L223.976 207.892L223.106 207.046L222.956 202.98L222.67 202.83L222.558 201.761L222.148 201.587L221.837 201.363L221.091 201.388L220.78 202.109L219.788 202.178L219.344 202.095L218.454 202.041L217.915 201.933L217.24 201.528L216.782 201.124L216.566 200.369L216.674 199.668L216.647 198.913L216.944 198.077L217.294 197.537L217.564 197.268L217.726 197.106V196.971L216.998 196.567L216.782 195.866V195.165L217.079 195.084L217.186 194.868L217.483 194.598L217.537 194.463L217.133 194.167L216.971 193.331L216.593 192.225L216.27 191.632L216.054 190.284H215.892L215.811 190.068L214.975 189.718L213.412 189.421L212.306 189.151L211.74 188.747L211.497 188.154L210.877 187.938L210.149 187.129L209.502 186.967L209.448 186.104H209.016L208.828 185.727L208.369 185.484V184.352L208.477 183.947L208.666 183.111L208.585 182.572L208.234 182.302L207.911 181.709L207.587 181.385L207.345 180.927L207.614 180.603L207.776 180.442L206.617 180.415L205.297 179.728L204.887 179.404L204.658 178.508L204.487 178.899L204.306 179.051L204.086 179.566L203.972 179.328L203.791 179.251L203.686 179.07L203.495 178.413L203.371 177.164L202.351 176.782L200.998 176.515L200.845 176.315L200.054 176.124L199.434 175.495L198.824 175.19L198.481 174.466L198.099 173.894L197.408 173.202L197.152 172.568L196.802 172.42L196.384 172.393L195.535 172.527L195.359 172.811L195.211 172.649L195.359 171.961L195.494 171.584L195.845 170.896L196.168 169.939L196.33 169.399L196.289 167.728L196.478 166.986L196.775 166.528L197.018 166.433L197.166 166.083L197.584 165.921L197.638 165.26L197.449 164.721L197.112 164.478L196.91 163.723L197.152 163.103L197.826 162.874L198.851 162.887L199.121 163.13L199.188 163.615L199.269 163.589L199.552 163.265L199.727 163.144L199.97 162.254L200.226 162.24L200.375 161.984L201.359 161.809L201.898 161.674L202.37 161.836L202.586 162.227L203.071 162.281L203.597 162.173L204.149 162.092L204.23 161.998L203.839 161.755L203.812 161.445L203.947 160.838L204.284 159.53L204.527 158.074L204.783 158.061L204.945 157.737L206.226 157.629L207.196 157.319L207.56 156.969L208.019 156.807L208.545 156.955L208.828 157.279L208.949 157.764L209.421 157.926L210.122 158.236L210.459 158.6L210.863 158.667L211.12 159.018L212.036 159.18L213.128 159.409L215.083 159.328L215.245 158.694L215.461 158.627L215.677 158.249L216.957 158.128L217.092 158.398L218.602 158.586L218.791 158.667L218.939 158.56L219.236 158.263L219.33 156.321L219.559 155.041L220.543 154.663L220.786 154.178L221.649 154.164L221.824 153.692L222.458 153.059L223.051 152.398L223.847 152.034L224.44 151.427L224.804 151.292L225.019 150.861L225.397 150.173L225.842 149.985L225.788 149.607L225.694 149.149L225.289 148.92L225.249 148.542L225.424 147.531L225.64 146.978L226.031 146.911L227.001 146.547L227.284 146.412L227.702 146.533L227.986 146.641L228.525 146.668L228.633 145.589L228.983 144.929L229.455 144.74L229.671 143.945L230.318 143.27L230.911 142.677L231.369 142.461L231.572 141.666L231.733 140.965L231.874 140.403L232.184 139.854L232.585 140.015L233.192 140.37C233.192 140.37 233.515 140.68 233.548 140.7C233.58 140.719 234.859 141.372 234.859 141.372L235.492 142.031L236.151 142.664L236.481 142.98L236.816 143.652L236.991 144.434L237.43 144.609L238.083 144.945L238.574 145.125L239.084 144.906L239.355 144.563L240.486 144.363L240.531 145.041L240.867 145.203L240.971 145.604L241.636 146.237L242.288 146.883L242.947 147.555L243.07 148.13L242.96 148.821L242.327 150.113L241.933 150.811L241.319 151.392L241.139 152.122L240.899 152.232L240.654 152.73L240.596 153.272L240.654 154.022L241.345 154.668L241.416 154.939L241.326 155.327L241.106 155.747V157.116L241.326 157.265L241.623 158.241L241.797 158.518L241.662 158.925L241.487 159.552L241.623 159.895L241.959 160.541L242.611 161.142L242.954 162.169L243.684 162.24L244.569 162.117L244.898 161.148L245.144 159.365L245.57 159.229L245.88 158.88L246.572 158.654L247.185 158.893L247.825 159.216L248.187 159.378L248.264 159.662L248.801 159.888L249.427 160.192L250.752 160.502L251.708 160.831L252.334 161.161L253.026 161.801L253.329 162.149L253.536 162.944L253.982 163.131L254.318 163.416L255.629 163.771L258.517 164.106L259.266 164.325L259.577 164.764C259.577 164.764 259.76 165.477 259.814 165.604C259.869 165.732 260.18 166.664 260.18 166.664L260.509 167.048L261.039 167.249L261.057 167.468L261.258 167.56L261.331 168.802L262.117 168.912L262.537 169.168L262.775 169.643L264.072 170.264L264.675 170.557L264.876 170.721L265.205 170.483L266.648 170.557L266.868 170.977L267.105 171.105L267.178 171.324L267.617 171.598L267.781 171.744L267.964 171.598L268.311 171.415L268.585 170.611L268.914 170.282L269.243 169.625L269.59 169.314L270.851 168.967L271.491 168.638L272.149 168.327L272.477 167.651L273.154 167.377L273.793 167.158L274.104 166.92L274.451 166.865L274.67 166.555L274.871 166.536L275.017 166.171L275.419 166.061L275.785 165.769L276.132 165.056L276.114 164.124L275.803 163.466L275.62 163.119L275.748 162.48L276.388 161.877L277.813 161.529L278.526 161.347L279.366 161.749L280.554 162.461L281.322 162.827L281.559 163.759L282.199 164.49L283.24 164.563L283.642 164.91L283.916 165.166L284.428 164.545L284.611 163.923L284.921 163.814L285.177 163.32L285.415 163.156L286.2 163.083L287.004 162.516L286.913 163.046L286.694 163.485L286.822 163.741L287.151 164.727L287.425 164.855L287.498 165.038L287.973 165.312L288.43 165.714L288.996 166.006L289.197 166.555L289.489 166.92L289.873 167.066L289.508 167.359L289.563 168.437L289.837 169.058L290.421 169.332L290.805 169.679L291.225 170.483L291.573 170.922L292.011 170.959L292.468 170.867L292.742 170.703L293.053 170.904L293.985 171.233L294.35 171.415L295.044 171.817L295.191 171.379L295.574 170.904L296.378 170.465L297.036 170.045L297.895 169.807L298.334 170.392L298.79 171.269L298.955 171.891L299.558 172.055L301.933 172.439L303.158 172.896L303.56 173.261L305.478 173.352L306.757 173.206L307.068 172.822L307.452 172.475L307.817 172.256L308.292 172.494L308.731 173.279L309.041 174.412L309.297 174.851L309.517 175.07H310.174V174.723L311.033 174.814L311.472 175.71L311.892 176.532C311.892 176.532 312.056 176.697 312.075 176.77C312.093 176.843 312.276 177.226 312.276 177.226L312.659 178.432L313.518 179.255L314.085 179.456L314.194 179.73L314.45 179.894L314.724 180.369L315.09 180.826L316.351 180.899L316.515 181.301L317.465 181.649L317.886 182.032L318.251 182.763L318.69 183.184L318.872 183.732L319.512 184.061L320.224 184.828L320.608 186.382L321.522 187.99L321.851 189.561L322.636 191.206L322.984 191.59L323.477 192.448L323.824 193.892C323.824 193.892 324.043 194.495 324.043 194.586C324.043 194.678 323.824 195.555 323.824 195.555L323.038 196.322L322.636 196.834L322.399 197.51L322.655 198.278L323.128 198.523L322.947 199.04L323.36 199.634L324.833 199.841L325.014 200.151L325.557 200.332L325.996 200.616L326.151 202.141L325.919 202.891L325.557 203.304L324.963 203.588L324.213 203.847L323.386 204.028L323.696 204.286L324.136 204.88L324.653 205.139L325.066 205.527L325.79 205.811L326.125 206.018L326.41 206.25L326.901 206.509L326.565 206.793L325.376 207.025L325.221 207.878L323.412 208.266L322.404 208.55V209.61L321.862 209.816L321.009 210.643L320.208 211.393L320.027 211.677L320.104 211.936L320.88 212.168L320.957 212.375L321.448 212.685L322.172 212.943L322.456 213.305L322.869 213.589L322.533 213.796L322.249 214.261L321.732 214.959L321.448 216.174L321.241 216.639L320.88 216.794L318.683 217.052L318.244 217.879L317.96 218.551L317.52 219.016L316.642 219.43L316.228 219.843L315.84 220.567L315.35 221.11L314.652 221.394L314.264 221.782L313.411 222.195L312.972 222.609L312.765 223.203L312.352 223.358L311.189 223.772L310.801 223.952H310.129L309.949 223.668L309.328 223.616L309.044 223.772L308.398 224.133L307.571 224.495L307.184 224.909L307.003 225.477L307.028 226.123L307.416 227.002L307.7 227.312L308.605 227.829L308.941 227.958L309.225 228.165L309.871 228.372L309.199 228.501L308.863 228.94L309.096 229.328L309.897 230.181L310.181 230.439L310.491 230.852L310.104 231.008L309.458 231.292L309.07 231.679L308.76 232.92L308.579 233.23L308.398 234.961L308.682 236.615L308.915 237.055L309.251 237.236L309.354 237.442L309.716 237.572V238.114L309.432 238.244L309.294 238.67Z" stroke="#015EDE" stroke-width="2" stroke-linejoin="round"/>
</g>
<defs>
<clipPath id="clip0_4235_9688">
<rect width="327" height="334" fill="white"/>
</clipPath>
</defs>
</svg>
