<svg width="129" height="128" viewBox="0 0 129 128" fill="none" xmlns="http://www.w3.org/2000/svg">
<path d="M64.5 0C99.75 0 128.5 28.75 128.5 64C128.5 99.5 99.75 128 64.5 128C29 128 0.5 99.5 0.5 64C0.5 28.75 29 0 64.5 0ZM64.5 116C93 116 116.5 92.75 116.5 64C116.5 35.5 93 12 64.5 12C35.75 12 12.5 35.5 12.5 64C12.5 92.75 35.75 116 64.5 116ZM64.5 76C61 76 58.5 73.5 58.5 70V38C58.5 34.75 61 32 64.5 32C67.75 32 70.5 34.75 70.5 38V70C70.5 73.5 67.75 76 64.5 76ZM64.5 84.5C68.75 84.5 72.25 88 72.25 92.25C72.25 96.5 68.75 100 64.5 100C60 100 56.5 96.5 56.5 92.25C56.5 88 60 84.5 64.5 84.5Z" fill="#D51A52"/>
</svg>
