<svg width="40" height="32" viewBox="0 0 40 32" fill="none" xmlns="http://www.w3.org/2000/svg">
<path d="M22.625 19.75C22.2969 19.75 22.0156 19.6562 21.8281 19.4219L10.25 7.84375V13C10.25 13.6562 9.73438 14.125 9.125 14.125C8.46875 14.125 8 13.6562 8 13V5.125C8 4.51562 8.46875 4 9.125 4H17C17.6094 4 18.125 4.51562 18.125 5.125C18.125 5.78125 17.6094 6.25 17 6.25H11.7969L23.375 17.875C23.8438 18.2969 23.8438 19 23.375 19.4219C23.1875 19.6562 22.9062 19.75 22.625 19.75ZM21.5 7C27.2656 7 32 11.7344 32 17.5C32 23.3125 27.2656 28 21.5 28C15.6875 28 11 23.3125 11 17.5C11 16.8906 11.4688 16.375 12.125 16.375C12.7344 16.375 13.25 16.8906 13.25 17.5C13.25 22.0469 16.9062 25.75 21.5 25.75C26.0469 25.75 29.75 22.0938 29.75 17.5C29.75 12.9531 26.0469 9.25 21.5 9.25C20.8438 9.25 20.375 8.78125 20.375 8.125C20.375 7.51562 20.8438 7 21.5 7Z" fill="currentColor"/>
</svg>
