<svg width="40" height="32" viewBox="0 0 40 32" fill="none" xmlns="http://www.w3.org/2000/svg">
<path d="M23.3281 8.03125L26 7L26.9844 4.375C27.0312 4.14062 27.2656 4 27.5 4C27.6875 4 27.9219 4.14062 27.9688 4.375L29 7L31.625 8.03125C31.8594 8.07812 32 8.3125 32 8.5C32 8.73438 31.8594 8.96875 31.625 9.01562L29 10L27.9688 12.6719C27.9219 12.8594 27.6875 13 27.5 13C27.2656 13 27.0312 12.8594 26.9844 12.6719L26 10L23.3281 9.01562C23.0938 8.96875 23 8.73438 23 8.5C23 8.3125 23.0938 8.07812 23.3281 8.03125ZM16.25 7.46875C16.3438 7.1875 16.625 7 16.9062 7C17.1875 7 17.4688 7.1875 17.6094 7.46875L20.0469 12.8125L25.3906 15.25C25.6719 15.3906 25.8594 15.6719 25.8594 15.9531C25.8594 16.2344 25.6719 16.5156 25.3906 16.6562L20.0469 19.0938L17.6094 24.4375C17.4688 24.7188 17.1875 24.9062 16.9062 24.9062C16.625 24.9062 16.3438 24.7188 16.25 24.4375L13.7656 19.0938L8.42188 16.6562C8.14062 16.5156 8 16.2344 8 15.9531C8 15.6719 8.14062 15.3906 8.42188 15.25L13.7656 12.8125L16.25 7.46875ZM15.7812 13.75C15.5938 14.2188 15.1719 14.6406 14.7031 14.8281L12.3125 15.9531L14.7031 17.0781C15.1719 17.2656 15.5938 17.6875 15.7812 18.1562L16.9062 20.5469L18.0312 18.1562C18.2188 17.6875 18.6406 17.2656 19.1094 17.0781L21.5 15.9531L19.1094 14.8281C18.6406 14.6406 18.2188 14.2188 18.0312 13.75L16.9062 11.3594L15.7812 13.75ZM26.9844 19.375C27.0312 19.1406 27.2656 19 27.5 19C27.6875 19 27.9219 19.1406 27.9688 19.375L29 22L31.625 23.0312C31.8594 23.0781 32 23.3125 32 23.5C32 23.7344 31.8594 23.9688 31.625 24.0156L29 25L27.9688 27.6719C27.9219 27.8594 27.6875 28 27.5 28C27.2656 28 27.0312 27.8594 26.9844 27.6719L26 25L23.3281 24.0156C23.0938 23.9688 23 23.7344 23 23.5C23 23.3125 23.0938 23.0781 23.3281 23.0312L26 22L26.9844 19.375Z" fill="currentColor"/>
</svg>
