<svg width="40" height="32" viewBox="0 0 40 32" fill="none" xmlns="http://www.w3.org/2000/svg">
<path d="M27.125 10.75C27.125 11.8281 26.2812 12.625 25.25 12.625C24.1719 12.625 23.375 11.8281 23.375 10.75C23.375 9.71875 24.1719 8.875 25.25 8.875C26.2812 8.875 27.125 9.71875 27.125 10.75ZM26 18.6719V22.5156C26 23.6875 25.3438 24.8125 24.3125 25.4219L20.1875 27.8594C19.8125 28.0469 19.3906 28.0938 19.0625 27.8594C18.6875 27.6719 18.5 27.2969 18.5 26.875V21.5312C18.5 20.4531 18.0781 19.4219 17.3281 18.6719C16.5781 17.9219 15.5469 17.5 14.4688 17.5H9.125C8.70312 17.5 8.32812 17.3125 8.14062 16.9375C7.90625 16.6094 7.90625 16.1875 8.14062 15.8125L10.5781 11.6875C11.1875 10.6562 12.3125 10 13.4844 10H17.3281C21.1719 3.85938 27.125 3.625 30.6406 4.28125C31.2031 4.375 31.625 4.79688 31.7188 5.35938C32.375 8.875 32.1406 14.8281 26 18.6719ZM17.2344 15.9062C17.8438 16.2344 18.4062 16.6094 18.875 17.0781C19.3906 17.5938 19.7656 18.1562 20.0938 18.7656C25.0156 17.3594 27.4062 15.0156 28.5781 12.8125C29.75 10.6562 29.8438 8.26562 29.6094 6.39062C27.7344 6.15625 25.3438 6.25 23.1406 7.42188C20.9844 8.59375 18.6406 10.9844 17.2344 15.9062ZM9.92188 20.2188C11.5625 18.625 14.1875 18.625 15.7812 20.2188C17.375 21.8125 17.375 24.4375 15.7812 26.0312C13.4844 28.375 8 28 8 28C8 28 7.625 22.5156 9.92188 20.2188ZM11 25C11 25 12.8281 25.1406 13.5781 24.3438C14.1406 23.8281 14.1406 22.9375 13.5781 22.4219C13.0625 21.8594 12.1719 21.8594 11.6562 22.4219C10.8594 23.1719 11 25 11 25Z" fill="currentColor"/>
</svg>
