<svg width="40" height="32" viewBox="0 0 40 32" fill="none" xmlns="http://www.w3.org/2000/svg">
<path d="M16.625 11.5C16.2969 11.5 15.9688 11.4062 15.7344 11.125C15.3594 10.6562 15.4062 9.95312 15.9688 9.53125C17.1406 8.54688 17.7969 7.14062 17.7969 5.59375V5.125C17.7969 4.51562 18.3125 4 18.875 4C19.4844 4 19.9531 4.51562 19.9531 5.125V5.59375C19.9531 7.79688 19.0156 9.85938 17.3281 11.2656C17.0938 11.4531 16.8594 11.5 16.625 11.5ZM11 7C10.1562 7 9.5 6.34375 9.5 5.5C9.5 4.75 10.1562 4.04688 11 4.04688C11.75 4.04688 12.4531 4.70312 12.4531 5.5C12.4531 6.29688 11.7969 7 11 7ZM30.8281 16C31.4844 16 31.9531 16.5156 31.9531 17.125C31.9531 17.7812 31.4844 18.25 30.875 18.25H30.4062C28.8594 18.25 27.4531 18.9531 26.4219 20.125C26.1875 20.4062 25.8594 20.5 25.5781 20.5C25.3438 20.5 25.1094 20.4531 24.875 20.2656C24.4062 19.8438 24.3594 19.1406 24.7344 18.6719C26.1406 16.9844 28.2031 16 30.3594 16H30.8281ZM30.4531 23.5C31.2969 23.5 31.9531 24.2031 31.9062 25C31.9062 25.75 31.2031 26.4531 30.4531 26.4531C29.6562 26.4531 29 25.7969 29 25C29 24.2031 29.6094 23.5 30.4531 23.5ZM30.4531 10C31.2969 10 31.9531 10.7031 31.9062 11.5C31.9062 12.25 31.2031 12.9531 30.4531 12.9531C29.6562 12.9531 29 12.2969 29 11.5C29 10.7031 29.6094 10 30.4531 10ZM26.2344 12.25C25.25 13.4219 24.1719 13.5156 23.2812 13.6094C22.625 13.6562 22.2969 13.7031 21.9219 14.125C21.6875 14.4062 21.3594 14.5 21.0781 14.5C20.8438 14.5 20.5625 14.4531 20.375 14.2656C19.9062 13.8438 19.8594 13.1406 20.2344 12.6719C21.2188 11.5 22.3438 11.4062 23.1406 11.3594C23.8438 11.2656 24.1719 11.2656 24.5469 10.7969C24.9219 10.375 24.9219 10.0469 24.875 9.34375C24.7812 8.54688 24.7344 7.42188 25.7188 6.29688C26.7031 5.125 27.7812 5.03125 28.625 4.9375C29.3281 4.89062 29.6094 4.84375 29.9844 4.42188C30.4062 3.95312 31.1094 3.90625 31.5781 4.28125C32.0469 4.70312 32.0938 5.40625 31.7188 5.875C30.7344 7.04688 29.6094 7.14062 28.8125 7.1875C28.1094 7.28125 27.7812 7.32812 27.4062 7.75C27.0312 8.17188 27.0312 8.5 27.0781 9.20312C27.1719 10 27.2188 11.125 26.2344 12.25ZM15.0312 13.4688L22.4844 20.9688C22.8594 21.3438 23 21.8594 22.9062 22.3281C22.8125 22.8438 22.4375 23.2656 21.9688 23.4062L10.0156 27.9062C9.82812 28 9.64062 28 9.5 28C9.07812 28 8.70312 27.8594 8.46875 27.5781C8.04688 27.1562 7.90625 26.5469 8.09375 25.9844L12.5469 13.9844C12.7344 13.5156 13.1562 13.1875 13.6719 13.0469C13.7656 13.0469 13.8594 13 13.9531 13C14.375 13 14.75 13.1875 15.0312 13.4688ZM10.7656 25.2344L14.8438 23.7344L12.2656 21.1562L10.7656 25.2344ZM17.1406 22.8438L20.1406 21.7188L14.2812 15.8594L13.1562 18.8594L17.1406 22.8438Z" fill="currentColor"/>
</svg>
