<svg width="46" height="32" viewBox="0 0 46 32" fill="none" xmlns="http://www.w3.org/2000/svg">
<path d="M13.0156 17.5C13.5312 17.1719 14.2344 17.3594 14.5156 17.9219C14.7969 18.4375 14.6562 19.1406 14.1406 19.4219L11.5156 20.9219C11.1875 21.1562 10.7188 21.1562 10.3906 20.9688C10.0156 20.7344 9.82812 20.3594 9.82812 19.9844C9.82812 19.5625 10.0625 19.1875 10.3906 19L13.0156 17.5ZM14.1406 6.625C14.4688 6.8125 14.7031 7.1875 14.7031 7.60938C14.7031 7.98438 14.4688 8.35938 14.1406 8.59375C13.7656 8.78125 13.3438 8.78125 13.0156 8.54688L10.3906 7.04688C10.0625 6.85938 9.82812 6.48438 9.82812 6.0625C9.82812 5.6875 10.0156 5.3125 10.3906 5.07812C10.7188 4.89062 11.1875 4.89062 11.5156 5.125L14.1406 6.625ZM13.25 13C13.25 13.6562 12.7344 14.125 12.125 14.125H9.125C8.46875 14.125 8 13.6562 8 13C8 12.3906 8.46875 11.875 9.125 11.875H12.125C12.7344 11.875 13.25 12.3906 13.25 13ZM32.4219 8.6875C31.9062 8.6875 31.4375 8.35938 31.2969 7.89062C31.2031 7.375 31.3906 6.85938 31.8594 6.625L34.4375 5.125C34.9531 4.79688 35.6562 4.98438 35.9375 5.54688C36.2656 6.0625 36.0781 6.71875 35.5625 7.04688L32.9844 8.54688C32.7969 8.64062 32.6094 8.6875 32.4219 8.6875ZM36.875 11.875C37.4844 11.875 38 12.3906 38 13C38 13.6562 37.4844 14.125 36.875 14.125H33.875C33.2188 14.125 32.75 13.6562 32.75 13C32.75 12.3906 33.2188 11.875 33.875 11.875H36.875ZM35.5625 19C36.0781 19.2812 36.2656 19.9844 35.9375 20.5C35.6562 21.0625 34.9531 21.25 34.4375 20.9219L31.8125 19.4219C31.4844 19.2344 31.25 18.8594 31.25 18.4375C31.25 18.0625 31.4844 17.6875 31.8125 17.4531C32.1875 17.2656 32.6094 17.2656 32.9375 17.5L35.5625 19ZM23 4.04688C27.5469 4.04688 31.25 7.70312 31.25 12.25C31.25 14.3594 30.4531 16.2344 29.1875 17.6406C28.3906 18.5312 27.2188 20.4062 26.75 21.9531C26.75 21.9531 26.75 21.9531 26.75 22H19.2031C19.2031 21.9531 19.2031 21.9531 19.2031 21.9531C18.7344 20.4062 17.5625 18.5312 16.7656 17.6406C15.5 16.1875 14.75 14.3125 14.75 12.25C14.75 7.89062 18.2188 4.04688 23 4.04688ZM27.5 16.2344C28.4375 15.1094 29 13.7031 29 12.25C29 8.96875 26.2812 6.25 22.9531 6.25C19.25 6.29688 17 9.34375 17 12.25C17 13.7031 17.5156 15.1094 18.4531 16.2344C19.2031 17.0312 20.0938 18.3906 20.75 19.75H25.2031C25.8594 18.3906 26.75 17.0312 27.5 16.2344ZM19.25 25.3281V23.5469H26.75V25.3281C26.75 25.5625 26.6094 25.9375 26.4688 26.1719L25.6719 27.3438C25.4375 27.7188 24.875 28.0469 24.4062 28.0469H21.5469C21.0781 28.0469 20.5156 27.7188 20.2812 27.3438L19.4844 26.1719C19.2969 25.8906 19.25 25.6094 19.25 25.3281ZM22.25 7.75C22.625 7.75 23 8.125 23 8.54688C23 8.92188 22.625 9.25 22.25 9.25C20.9844 9.25 20 10.2812 20 11.5C20 11.9219 19.625 12.2969 19.25 12.2969C18.8281 12.2969 18.5 11.9219 18.5 11.5C18.5 9.4375 20.1406 7.75 22.25 7.75Z" fill="currentColor"/>
</svg>
