<svg width="349" height="356" viewBox="0 0 349 356" fill="none" xmlns="http://www.w3.org/2000/svg">
<g clip-path="url(#clip0_4115_35312)">
<path d="M130.517 76.1014L130.675 75.6206H131.122L131.249 75.4929L131.408 75.1416L132.142 74.982L132.556 74.7585L133.098 74.4072V73.7367L133.289 73.0023L133.481 72.1083L134.086 71.789L133.959 71.4697L133.991 70.6076L133.481 69.8093L133.194 69.8732L132.907 70.1286H132.492L132.333 70.5118L131.791 70.7672L131.313 70.8311L130.93 70.5118L130.42 70.5437L130.006 70.6395L129.304 71.0546L128.635 71.4697L127.71 71.5336L127.2 71.31L126.818 71.0227L126.786 70.4799L127.073 70.2883L127.519 69.9371L127.487 68.8195V68.0851L127.105 67.9574L126.722 67.7658L126.403 67.5104L126.595 66.5206L126.818 65.403L126.977 65.1476L127.041 64.956L127.455 64.9241L127.838 65.0837L128.029 65.3711L128.507 65.3072L128.699 65.1476L128.922 64.8921L128.762 64.3813L128.667 63.9023L128.348 63.5511L127.455 63.6149L126.595 63.5191L126.435 62.8486L126.627 61.8588V61.316L127.073 60.9328L127.774 60.5816L128.476 59.8791L128.571 59.7195L128.38 59.5918L127.551 59.0809L127.424 58.9212L125.861 58.123L124.905 57.8037L124.331 57.5802L123.917 57.7718L123.12 58.1869L122.801 59.3044L122.546 59.7834L122.1 59.943L121.653 60.2942L121.367 60.4539V60.5816L121.622 60.7412V61.0925L121.462 61.1244L121.048 61.2841L120.474 61.6353L120.155 62.0504L119.039 62.4016L118.561 62.5613L118.274 62.4016L117.924 61.9546L117.669 60.7413L117.35 60.6135L116.553 59.8472L115.947 59.5918L115.278 59.2725L114.799 59.0809L114.608 59.2725L114.257 59.6556L114.066 59.7195L113.397 60.3581L112.153 60.6136L111.165 60.3581L110.91 60.1666L110.559 60.0708L110.528 59.8153L110.177 59.5918V59.3045L110.273 59.1129L111.07 58.9532L111.516 59.2406L111.739 59.496L111.962 59.8473L112.217 59.5599L112.536 58.7297H112.695V58.5701L111.898 58.2508L111.484 57.4525L111.101 57.1971L110.336 56.3988L110.018 56.335L109.731 56.5585L109.252 56.9097L108.36 56.8139L108.2 56.2073L108.296 55.5687L108.455 55.409L109.667 55.0897L110.241 55.0578L110.209 54.8662L109.954 54.7385L109.762 54.3872L109.316 54.1637L107.945 54.036L107.276 53.3336L106.893 52.3118L106.766 52.2799L106.83 51.8328L107.754 51.7051L107.85 51.2581L108.424 51.2262V50.9069L108.296 50.5556L108.328 50.0448L108.455 49.4381L108.328 49.2465L107.945 48.5441L107.722 47.5542L106.893 47.8416V47.9693H106.638L106.511 47.8097L105.841 47.4265L104.534 46.7879L103.227 46.0535L102.94 45.2234L102.813 44.3932L102.622 43.8823C102.622 43.8823 102.622 43.8823 102.749 43.1479C102.877 42.4135 102.781 43.1479 102.781 43.1479L103.068 42.669L103.227 42.637L103.132 41.9984L102.94 41.1683L103.355 41.1363L103.897 41.5514L104.088 41.4876L103.801 41.1683L103.546 40.7212L103.132 39.7633L102.653 39.6995L102.494 39.3483L101.729 39.1567L101.57 38.7416L101.633 38.1988L101.793 37.7198L102.111 37.0493L102.558 36.9216L102.813 36.4107L103.163 36.0275L103.195 35.5805L103.1 35.357L101.984 35.0058L101.442 34.6865L100.9 34.6226L100.836 34.431L101.155 34.1118L101.028 33.6967L100.709 33.0261L100.422 32.6111L99.6568 31.9725L99.0511 31.6212L98.6048 31.1423L97.9672 30.5037L97.234 29.8332L95.8313 29.0988L94.5242 28.4921L93.7273 28.077L93.0897 27.7258L92.5477 27.5342L92.1333 27.7258L91.6551 28.1409L90.9538 28.7475L90.635 29.3542L90.4437 29.5458L90.6987 29.8012L90.8263 29.9609L90.7306 30.2163L90.2843 30.8549L89.7105 31.0465L89.5511 31.4616L89.3917 31.3977L89.2961 30.823L88.531 30.5037L88.4034 30.376L88.2759 30.5356L87.989 31.2061L87.6383 32.3556L87.1283 32.4514L86.5544 32.2918L86.1081 31.9405L85.8212 31.2381L85.5024 30.791L85.2474 30.2163L85.0243 29.9928L84.8011 30.0886L84.1635 30.4717L83.8128 31.5893L82.5696 31.9086L81.2944 31.5574L81.0712 31.3019L80.6887 31.5893L80.2424 32.1321L79.9555 32.3237L78.5847 32.5472L76.7675 32.9623L76.0662 33.3135L75.8431 33.6647L75.4286 34.3033L75.1417 34.2395L75.4286 33.7286L75.2055 32.8346L74.4085 32.643L74.0259 32.2279L73.3884 31.9086L72.687 31.1742L71.9857 30.5037L70.9337 30.1524L70.2642 29.8332L69.8498 29.4819L69.2122 29.1307L67.8095 28.4282L65.8011 28.077L64.0796 27.7258L63.187 27.4703L63.1551 27.2149L63.3783 26.6402L63.7608 25.8738L64.0159 25.7142L64.2072 25.363L64.0159 24.9479L61.9119 24.2773L61.2743 23.9581L61.0511 23.6707L61.1467 23.2875L61.5931 22.617L61.7843 22.0103L62.3263 21.4675L62.9958 21.2121L63.4421 20.8609L63.6333 19.7114L64.8129 19.3921L65.4186 19.1366L65.833 18.7535L66.5025 18.4661L66.7894 16.9335L67.1719 15.8479L67.5864 15.3051L68.1283 14.9858L68.3833 14.858V14.6984L68.1921 14.5068L68.0327 13.7724L67.8095 13.2296L67.5545 12.7187L66.8213 12.3994H65.6417L65.6098 12.0482L65.3229 11.9843L65.1316 11.3457L64.3347 11.0584L63.4421 10.9945L62.3263 10.7391L61.2424 10.6114L61.083 10.2601L60.6367 10.0047L60.1904 8.69558L59.9035 7.57803L59.5847 5.91768L59.1702 5.24715L58.5327 4.83205L58.2457 3.87417L57.8313 2.46925L57.4488 1.7668L57.2894 1.25591L56.8431 1.09627L56.3011 0.8089L55.8229 0.93662L55.3766 0.745046L54.739 0.489606L54.0696 0.713113L52.7625 1.03241L51.583 0.872767L51.328 0.425739L51.1048 0.106445L50.276 0.170299L50.0528 0.8089L49.7021 0.904687L49.5746 1.38363L48.8414 1.70293L48.1719 2.43732L46.3867 2.85241L46.036 3.044L45.7172 5.24715L45.5897 6.65207L45.4303 7.99311L45.0478 8.12083L44.7927 8.02506L44.4421 7.06715L44.0914 6.62014L43.7088 5.91768L42.9437 5.27907L42.7206 4.64048L42.338 4.22539L41.6048 3.87417L40.8716 3.68259L40.234 3.84224L39.7877 4.83205L39.1182 5.59838L38.7357 5.82188L38.5444 6.3647L38.0981 7.0033L37.8431 8.7275L37.5562 9.6854L37.3649 9.90892L37.7474 10.3559L39.182 10.6752L39.6283 11.1542L40.2021 11.8566L40.6166 12.4952L40.9672 12.8145L41.5411 14.2514L41.9236 14.6665L42.2743 14.858L44.6333 15.3051L45.4744 15.5291L45.8464 15.9763L46.1069 16.0881L46.3301 16.4235L46.3673 16.7961L47.037 16.8706L46.6277 17.1315L46.5533 17.2805L46.4417 17.6159L45.7348 19.1065L45.3627 21.156L45.0651 22.8701L44.7303 23.6899L43.6141 23.8017L42.312 23.988L42.2003 24.3979L42.2376 24.6215L42.6468 25.5531L42.9817 26.6338L43.0933 27.1182L42.9817 27.3045L42.7584 28.7205L42.87 30.2111L43.6513 30.472L45.4743 30.8073L45.7348 31.5526L46.1068 31.8507L46.2928 32.4469L46.1068 33.5649L45.6976 34.4219L45.3999 34.8691L45.1767 34.9809L44.5814 35.1672V35.5771L44.321 35.6144L44.0234 35.838L43.3165 36.1733L42.9816 36.546L42.8328 36.8813H42.6096L42.1631 36.7696L40.5261 36.4342L39.1123 35.987L38.6287 35.8752L38.7031 36.7696C38.7031 36.7696 38.8147 37.4403 38.8147 37.8129C38.8147 38.1856 38.8891 38.0738 38.8891 38.0738L38.9263 38.4837V38.7445L38.4799 39.4526L37.6986 40.1978L36.9173 40.9804L36.8057 41.8747L35.9499 42.0238L35.9128 41.8002L35.6895 41.7256L35.5407 41.3903L35.4663 41.0176L34.9454 40.9804L34.2385 41.204L33.6805 41.6139L32.9364 42.3591L32.6015 42.9554L31.2994 43.2907L30.6297 43.7006L29.7368 44.0733L29.6624 44.2596L29.96 44.744L30.2948 45.1539V45.7129L30.146 46.1228L29.8484 46.6817L29.4019 46.7935L29.0299 47.2034L28.4718 47.5761L26.6488 47.6879L26.3511 48.4331L25.7187 48.9176L25.3466 49.1412L24.7141 49.5511L24.3421 49.7001H23.8212L23.4864 49.1784L22.9283 49.0294L22.2214 49.253L21.8866 49.961L21.5145 50.5572L21.3285 50.7062L21.1797 50.5199L20.3984 50.2591L20.138 49.6256L19.8031 49.2157L18.7614 48.8058L18.3893 48.6567L17.7196 48.8058L16.9755 49.2157L16.6779 49.5511L16.6035 50.0355L16.6779 50.2218L16.8639 51.3025L17.1616 52.3459V53.2775L17.0872 53.9109L16.5663 54.4326L15.9338 55.0289L15.599 55.327L15.2269 56.2586L15.0409 56.7803L14.5572 57.8609L14.4828 58.2708L14.5945 58.7925L15.3385 59.6868L15.5246 59.7986L15.785 59.7241V59.3514L16.1942 59.3142L16.7523 59.5005L17.3476 59.9104L17.6452 60.4693L17.8313 60.5439L18.1661 61.3637L18.7986 62.0344L19.3194 62.0717L20.2124 62.3326L20.3984 62.5189L21.0681 62.6307V62.8543H21.2913L21.6261 63.1151L21.9982 63.4877L22.0354 63.8976V64.6802L22.2586 65.1274L22.4074 65.9099L22.2214 66.4689L21.8122 67.475L21.6634 68.2575L21.961 69.0028L22.0726 70.7169L22.3702 70.9033L22.4447 71.5367L22.3702 72.4683H21.7378L21.1797 72.5429L20.4728 72.7292L20.138 72.9155L19.6171 72.841L19.3567 72.6547L19.1706 72.5056L18.5009 72.5801L17.794 72.5056L17.1988 72.5801H16.2687L14.6316 72.5428L13.8504 72.3938L13.1435 72.2447L13.0691 71.9094H12.8086L12.4366 71.9467L11.1344 72.7292L10.1299 73.1764L9.53461 73.5117L9.38579 73.698L9.05094 73.4745L8.12083 73.2136L7.45114 72.7292L6.07457 72.5429L5.33046 72.7665L4.62358 73.3999L4.43756 74.3315L4.40035 75.1886L4.69799 75.5612V75.8966L4.58637 76.232L4.25153 76.9027L4.0283 77.4244L3.84228 77.4617L3.50744 77.9089L2.87496 78.2815L2.50292 78.5796L1.83323 79.0268L1.38678 79.2877L1.16355 79.7348L0.865906 80.4056L0.754297 81.449L1.34956 81.598L1.16355 82.1197L1.01472 83.0513L0.605469 83.3494L0.642676 83.573L1.49839 83.7593L2.24248 84.281L3.50744 84.8772L4.58637 85.1381L6.03736 85.8834L7.37673 86.5914L8.45568 86.964L9.05094 87.3367L10.3903 87.8956L11.8785 88.6036L13.2179 89.3489L14.7433 90.1687L15.0037 90.4668L15.5618 90.6904L16.3803 91.3984L17.794 92.1064L18.873 93.1871L19.3939 93.4852L19.8775 93.9324L20.1752 94.5286L21.5517 95.2739L22.8911 95.9819L23.3376 96.28L24.0444 96.6899L24.3793 97.0998L25.049 97.2861L25.6443 97.9941L26.3511 98.6276L26.7232 99.4102L27.5045 99.8201L27.8765 100.603L28.0998 100.826L28.8439 101.534L29.5136 102.242L29.9228 103.174L30.6297 103.956L30.8157 104.59L31.6342 106.043L31.7458 106.453L32.2667 106.714L32.676 106.863L32.9364 107.422L33.7177 107.832L34.3874 109.099L35.0198 110.403L35.3919 110.776L35.6523 112.229L36.3964 114.204L37.1405 115.694L37.773 116.402L38.1078 117.111L38.4799 117.409L38.7775 118.079L39.4844 118.899L39.8937 119.384V119.868L39.3728 120.352L39.3749 121.44L39.9371 121.185L40.8344 120.735L43.6259 120.586L46.0685 120.835L47.8631 121.135L48.0126 121.285L48.2619 121.534L48.4114 121.834L48.7603 121.884L49.6576 122.383L50.1561 122.583L50.5549 123.032L50.8042 123.082L51.2528 122.832L51.5519 122.583L51.9008 122.084C51.9008 122.084 51.9008 121.784 51.9008 121.584C51.9008 121.385 51.9008 121.085 51.9008 121.085L51.6017 120.536L51.502 119.787L51.6516 119.088L52.2996 118.489L52.499 118.289L53.3963 117.84L54.0443 116.941L54.1939 115.892L54.7422 115.593L55.3903 115.044L56.0881 114.345L56.8359 113.995L56.9854 113.795L56.7362 113.596L56.4371 112.897L56.2875 112.447L56.3374 111.948L57.2845 111.199L57.4341 110.7L57.0851 110.4L57.0353 109.901V109.701L57.2347 109.651L57.5338 110.051L58.1319 109.202L58.3812 108.703C58.3812 108.703 58.0322 109.352 58.0322 108.653C58.0322 107.954 58.0322 108.004 58.0322 108.004L58.9794 108.054L59.5277 108.104L60.1259 108.004L60.0761 107.654L59.7271 107.455L59.428 107.205V107.155L59.5776 107.055C59.5776 107.055 59.6773 107.105 59.9265 106.905C60.1757 106.706 60.1758 106.706 60.1758 106.706L60.7241 106.556L61.6712 106.406C61.6712 106.406 61.7709 105.857 62.07 106.156C62.3691 106.456 62.3691 106.456 62.3691 106.456L62.5685 106.905C62.5685 106.905 62.2694 106.606 62.2694 106.855C62.2694 107.105 62.1199 107.005 62.2694 107.205C62.419 107.405 62.4189 107.455 62.4189 107.455C62.4189 107.455 62.8676 107.005 63.2664 107.704C63.6652 108.403 63.6652 108.403 63.6652 108.403L64.0141 108.753L64.712 109.102L64.9612 109.402L65.36 109.502L65.8087 109.901L66.0579 109.701L66.8057 109.751L67.354 110.201L67.5035 110.6L68.002 110.8L68.5005 111.049L69.647 111.149L69.6912 111.407L69.9189 111.179L70.1467 110.69L70.5372 110.787L70.9928 111.667L71.3182 112.678L71.9365 113.884L72.6849 115.187L73.0428 116.361L73.8889 117.86L74.1818 118.805L74.4096 119.881L74.6699 120.37L75.4834 120.467L76.7525 120.859L77.5335 121.087L78.8676 121.217L79.2581 121.478L79.5835 121.315L81.4384 120.989L81.7963 120.565L81.9265 119.099L83.0979 119.001L84.3345 119.131L85.5385 119.392L87.2957 119.066L88.0441 118.903L88.6299 119.164L90.3545 119.392L91.0704 119.881L91.7538 120.533L91.9816 121.022L92.2744 121.934L92.4371 121.641L92.7951 121.185L93.1205 120.5L93.4134 120.239L93.8689 119.457L94.4547 119.262L94.8126 119.099L95.1055 118.773L95.5936 118.382L95.8539 118.186L96.3095 117.404L96.5373 116.459L96.8627 116.263L97.0579 116.002L98.2294 115.937L100.345 115.774L100.8 115.416L101.028 115.09L101.418 114.633L102.167 114.21L102.622 114.145L102.915 114.307L104.119 114.959L104.51 115.35L105.226 115.742L106.43 115.937L107.634 115.774L108.35 115.416L109.326 114.992L109.749 114.731L109.977 114.829L110.042 115.285L110.335 116.067L110.4 116.459L111.181 116.524L111.571 116.361L112.45 116.328L113.133 117.045L113.556 117.762L114.207 118.545L114.597 118.642L114.662 118.773L114.37 118.936L114.435 119.979L114.793 120.239L115.053 120.793L115.313 120.207L115.899 120.142L116.257 120.239L117.005 120.598L117.168 120.989L117.461 121.087L117.591 120.989L118.047 120.5L118.828 120.174L119.446 119.881L119.934 119.718L120.032 118.447L120.487 117.697L120.683 117.534L121.366 117.078L122.147 116.785L122.83 116.002L123.221 115.318L123.579 114.275L123.676 113.427L123.514 112.906L123.188 111.211L122.993 109.973L122.733 109.842L122.765 109.386L123.091 108.995L124.067 108.865L124.945 108.115C124.945 108.115 124.913 107.854 125.271 107.43C125.629 107.007 125.238 107.919 125.629 107.007C126.019 106.094 125.726 106.779 126.019 106.062C126.312 105.345 126.312 105.345 126.312 105.345L126.605 105.214L126.8 105.182L126.833 105.768L127.386 105.899L127.809 105.866L127.939 105.019L128.167 104.562L128.102 103.585L127.711 102.835L127.353 102.476L127.256 102.248V101.89L127.679 101.531L127.809 100.847L127.939 100.716L128.167 101.303L128.427 102.281L128.72 103.161L129.111 104.628L129.306 106.127L129.371 107.105L129.111 108.865L128.915 110.071L128.688 111.896L128.46 112.678L128.492 113.851L128.785 114.34L129.338 114.47L129.859 114.308L130.575 113.949L130.77 113.721L131.128 112.906L131.291 111.733L131.453 110.592L132.137 110.136L132.885 110.103L133.796 110.071L133.992 110.331H134.317L134.61 109.81L134.935 108.93L135.358 108.017C135.326 107.854 135.228 106.909 135.228 106.909L135.716 105.866L135.944 104.921L136.53 104.823L136.725 104.66L137.051 104.595L137.116 103.878L136.855 103.585C136.855 103.585 136.66 103.519 137.083 103.389C137.506 103.259 137.506 103.259 137.506 103.259V103.063L137.018 102.639L136.627 102.118C136.627 102.118 136.497 102.118 136.562 101.792C136.627 101.466 136.627 101.466 136.627 101.466L137.018 100.716L137.343 100.26L137.701 98.7283C137.796 98.3219 137.962 98.4024 137.962 98.4024L138.678 98.1416L139.784 97.5549L140.109 97.3268L140.435 97.229L140.305 97.0009C140.305 97.0009 139.882 97.1638 140.012 96.7401L140.142 96.3164C140.44 95.3462 140.89 95.632 140.89 95.632L141.183 94.9149C141.183 94.9149 141.346 94.0349 141.541 93.9372C141.736 93.8394 141.722 93.6319 141.722 93.6319L141.602 93.4214L141.241 93.2711L141.061 93.0907L140.431 92.9704L139.831 93.0907L139.47 93.3913L139.08 93.5417L138.45 93.6619L138.119 93.5116L137.669 93.3913L137.489 92.8802L137.249 92.6697L137.039 92.1286L136.739 91.7978L135.898 90.3546L135.778 89.9638L135.958 89.7834L136.769 89.5128L137.549 89.5429V89.2121L137.279 88.701L136.829 88.5507L136.348 88.4906L136.078 88.25L135.838 88.1899L135.178 88.1298L135.088 87.9193L134.787 87.5886L134.667 87.318L134.187 86.6565L134.097 85.3937L134.187 84.612L134.937 84.2211L135.388 83.7701L135.628 83.1388L135.478 82.6577L135.268 82.6276L134.907 82.778L134.277 83.1688L134.037 83.259L133.857 83.1989L133.226 82.808L132.716 82.5976L132.656 81.906L132.806 81.2145H132.986L133.016 80.523L132.836 80.072L132.596 78.8092L132.086 78.6589L131.035 78.268L130.465 77.9674L130.315 77.3059L130.525 76.9451L130.945 76.5242L131.125 76.1032L130.517 76.1016V76.1014ZM134.185 75.6505L134.564 75.1736L135.106 74.5988L135.553 74.3753L136.19 74.2476L136.413 74.5988L136.7 74.7904L136.953 75.3396L136.738 75.8026L136.378 76.4941L135.718 76.8549L135.268 77.3059L134.997 77.2458L134.547 76.8248L134.337 76.5542L134.247 76.1634L134.185 75.6505Z" stroke="#015EDE" stroke-width="2" stroke-linejoin="round"/>
<path d="M210.621 122.421L210.456 122.112L210.37 121.48L210.442 121.078L210.758 121.322L210.944 121.48L211.346 121.595L211.59 121.782L212.006 121.595L212.723 121.25L213.742 120.891L214.761 120.503L215.205 120.23L215.449 119.497L216.195 118.864L216.511 117.744L217.415 117.471L217.558 117.025L217.86 115.416L218.305 114.295L218.448 113.461L218.233 112.556L217.558 111.895L217.358 111.622V111.104L217.63 111.004H218.548H219.797L221.447 110.932L222.035 110.846L222.207 110.702L222.451 110.831L222.824 111.205L223.498 111.564L223.843 111.895L224.474 112.556L225.148 112.886L225.521 113.317L226.167 113.59L226.928 113.978L227.688 114.151L228.291 114.338L228.664 114.999L229.223 115.099L229.338 114.999L229.811 114.711L230.027 114.252L230.242 113.878L230.629 113.763H231.548L232.121 113.993L232.351 114.496L232.552 114.539L232.566 114.74C232.566 114.74 232.753 114.869 232.939 114.884C233.126 114.898 233.154 115.329 233.154 115.329L234.216 115.689L235.264 115.832L235.464 116.206L235.866 116.421L236.627 116.738L237.014 117.097L237.272 117.729L237.459 118.203L237.688 118.304L237.846 118.563L238.836 118.678L239.224 118.951L239.31 118.678L239.74 118.591L240.07 118.433L240.328 117.801L241.074 117.427L241.347 116.968L242.337 116.838L243.126 117.025L243.872 117.183L244.504 117.068L245.91 116.738L246.742 116.522L246.943 114.999L247.459 114.697L247.631 114.28L248.004 113.964L248.98 113.82L249.497 113.763L249.511 113.519L249.396 113.231L249.023 112.57L248.851 112.153L249.009 111.866L249.669 111.521L250.4 111.406H251.06L251.448 111.564L251.663 111.665L251.85 111.535L252.424 111.377L252.897 111.119L253.127 110.989L252.782 110.831L252.495 110.573L252.108 110.156L251.792 109.739L251.204 109.366L251.218 109.236L251.706 109.251L251.95 109.495L252.294 109.595L252.84 109.61L253.155 109.452L253.528 109.121L254.188 108.762L255.207 108.676L255.881 108.661L256.183 108.575L255.867 108.374L255.695 107.871L255.48 107.569L255.451 107.253L254.633 107.052L253.629 106.793L252.065 106.678L251.462 105.988L251.06 105.6L250.386 105.299L250.085 104.939L249.74 104.278L249.568 103.531L249.712 103.201L250.099 102.798L250.53 102.468L250.472 102.209L250.027 101.49L248.923 101.232L248.808 101.031L248.334 100.801L248.162 100.298L246.498 100.14L244.862 100.111L243.801 99.766L243.083 99.3924L242.452 98.7457L241.734 98.0559L241.433 97.0212L241.204 96.1877L240.673 95.9434L240.041 95.1962L239.353 94.5351L237.975 93.8166L236.526 93.1843L236.225 92.5089L235.881 91.8191L235.665 91.0574L235.45 90.8706L235.163 90.0515L235.063 88.9162L234.991 87.4935L234.833 86.2289L234.618 85.0649L233.814 84.8781L233.441 84.5044L232.753 84.1739L232.394 83.8147L231.992 83.6566L231.677 83.1249L229.883 82.9381L229.697 82.4638L229.209 82.2626L229.08 82.004L228.85 81.9034L228.606 81.4291L227.918 80.6675L227.243 80.0639L226.483 79.719L225.808 79.3167L225.177 79.0724L224.618 78.8568L224.948 78.6269L225.077 78.397L225.45 77.5922L226.225 76.9312L226.856 76.227L227.573 75.5085L228.276 75.2067L228.621 74.7899L228.965 74.3588L229.324 73.7696L229.639 73.1086L229.74 72.9793V72.5769L229.496 72.4475L229.266 72.0164L228.994 70.6943L227.588 69.9471L226.253 69.6165L225.593 69.3148L225.134 69.0561L224.847 68.5531L224.359 68.3807L224.173 67.9064L223.412 67.2741L223.097 66.4981L222.394 65.794L221.691 65.1042L221.002 64.4719L220.299 64.1414L219.625 63.7822L218.965 63.5091L219.467 63.3942L219.625 62.7475L219.983 61.9715L220.729 61.296L221.375 60.5775L222.064 60.2614L224.144 59.9165L224.876 59.2554L225.177 58.5656L225.521 58.192L226.225 57.4591L226.813 56.8843L227.157 56.6112L226.727 56.5969L226.225 56.4819L225.995 55.2604L226.196 54.4413L226.397 53.4066L226.583 52.3144L226.727 51.6246V50.863L226.239 50.6043L224.761 50.202L224.488 49.5984L224.115 48.8942L223.757 48.5206L223.556 47.9458L223.527 46.6812L223.785 46.2788L224.503 46.092L225.005 45.7902L225.148 45.3735L225.565 44.698L225.837 44.0801L225.966 43.8358L225.851 43.3328L225.579 42.2838L225.694 41.1198L226.239 40.9186C226.239 40.9186 226.87 40.2719 226.942 40.1857C227.014 40.0995 227.573 39.4815 227.573 39.4815L227.731 37.9439L227.946 37.6565L229.151 37.6134L229.654 37.7571L230.371 38.1594L230.615 38.2313L231.289 38.2169L231.748 38.1019L231.978 37.9726L232.423 38.1019L232.824 38.4468L233.111 39.1797L233.786 39.5103L234.345 39.654L235.149 39.5246L235.522 39.1797L235.794 38.1451H236.024L236.139 37.9439L236.641 37.9151H237.287L237.904 37.8001L238.607 37.5127L239.783 37.5558L240.07 38.0732L240.429 38.763L240.716 39.5246L240.96 40.0276L241.347 40.0707L241.62 39.8551L241.864 39.6252L242.136 39.4815L243.083 39.1797L244.145 38.8636L244.59 38.5905L244.834 38.1019L245.938 37.9151L246.584 38.1594L246.971 38.5043L247.674 38.6336L248.32 38.4899L249.396 38.1307L250.171 37.8433L250.357 37.6708L251.735 37.4696L252.811 37.096L252.954 36.8948L252.581 36.6074L252.653 36.3918L253.256 36.3343L253.543 36.0613L253.916 35.702L253.871 35.2821L253.546 34.6927L253.323 33.9814L253.607 33.2701L253.952 31.1361L254.094 30.0184L254.601 29.8355L254.926 29.0835L255.291 28.7584L255.595 27.7625L255.758 27.2138L255.595 26.1773L254.581 26.0554L253.059 25.6489L252.572 25.3238L251.862 25.1205L250.868 25.2628L250.665 25.6083L250.523 25.4254L250.36 24.9783L250.157 24.6938L249.366 23.9012L249.021 23.1898L248.859 22.8037L248.575 22.5801L248.311 22.194L247.621 21.8485L247.459 20.9137L247.601 20.4869L248.047 19.1049L248.453 18.4139L248.575 17.601L248.473 17.1945L247.986 17.0929L247.804 16.8897L247.387 16.6898L246.814 16.4024L246.727 16.2012L245.981 15.9712L245.264 15.2815L244.489 14.5629L244.374 13.7007L244.03 13.6432L243.801 13.1834L243.112 12.4648L242.423 12.1774L242.251 11.9475L241.964 11.8325L241.821 11.6026L241.39 11.5738L240.013 11.5451L239.582 11.2289L239.381 10.7978L238.894 10.3379V9.61941L238.521 9.5332L237.947 9.6769L237.057 9.90684L235.881 10.0793L235.479 10.7116L235.163 12.1199C235.163 12.1199 234.848 13.0684 234.848 13.1833C234.848 13.2983 234.761 13.4995 234.761 13.4995L234.618 13.4132L234.446 13.1258L233.355 12.8384L231.002 12.4648L229.367 12.1199L228.334 11.8325L227.961 11.4301L227.616 11.2002L226.555 11.3439L226.21 11.6888L225.952 12.4073L226.032 13.8819L226.255 14.2273L226.356 16.0564L226.153 16.1987L225.849 16.6458L225.119 18.0684L224.875 19.0642L224.449 19.8365L224.49 20.0397L224.571 20.5885L225.017 20.7104V21.6656L224.834 22.1533L224.713 22.9053L224.51 23.8401L223.779 24.6124L223.049 25.3644L222.785 26.035L222.481 26.3602L221.71 26.6854L221.365 27.0106L221.182 27.5796L220.939 27.2341L220.736 27.1122L219.965 26.2992L219.681 25.6489L219.275 25.3237L218.93 25.1205L218.341 25.2424L217.55 25.4863L217.388 26.2586L217.286 27.0106L216.86 27.6609L216.15 28.3722L215.947 28.9006L215.501 29.0835L215.075 29.2664L214.689 29.6322L213.715 29.6729L213.533 29.998L213.025 30.2216L212.356 30.4858L212.214 30.8922L211.666 31.1564L211.057 31.8271L210.509 32.0303L209.089 32.0506L208.967 31.7864L208.237 31.5222L206.755 31.2784L206.695 30.7296L206.39 30.4045L206.106 29.4899L205.802 29.2664L205.335 29.2258L205.092 29.8151L204.422 30.4451L204.097 31.0955L203.935 31.5426L204.077 31.8474L204.26 32.3352L204.057 32.9245L203.813 33.3717L203.347 33.5952L202.352 33.7781L200.912 33.8594L198.883 33.5546L198.01 33.392H196.752L195.027 33.5952L194.317 34.0423L193.992 34.6114L193.708 35.6072L193.363 36.4201L193.161 36.5014L192.978 36.4201L192.308 36.0543L191.679 35.8104L191.436 35.2007L190.949 34.9975L189.61 34.6723L189.184 34.3065L188.778 34.0017L187.986 34.083L188.23 34.2659L188.291 34.5301L188.149 34.6927L187.479 35.0178L186.81 35.343L186.668 35.4852L186.789 35.7088L186.952 36.034L186.81 36.3998L186.688 36.8469L186.83 37.3956L187.175 37.8021L187.54 38.4524L187.804 39.4686L188.23 39.875L188.575 40.5863L188.839 41.5822L188.92 42.1512L188.555 43.4316L187.885 43.6551L187.114 43.838L186.911 44.1632L185.714 44.3461L184.375 45.0371L183.076 45.6671L182.67 46.419L181.96 47.0897L181.088 47.8823L179.87 48.5733L179.545 48.8985L179.302 49.3862L179.14 49.1017L178.734 48.9391H177.963L177.111 49.1017L175.568 49.5488L175.203 49.6708L174.797 49.4269L174.108 49.874L173.58 50.1179L173.377 53.3492L172.586 53.4712L170.983 53.7354L170.191 54.0605L169.015 54.1825L167.472 54.406L166.803 55.0564L166.194 55.4019L165.687 55.7677L165.585 56.1741L165.768 56.5399L166.356 57.8406L166.823 58.1861L167.127 58.8974L167.554 59.3445L168.832 59.9136L169.481 60.5436L169.664 60.8281L169.644 61.1126L169.157 61.3159L168.487 61.6614L167.797 62.332L167.513 62.6978L167.27 62.9824L166.762 63.0636L166.6 63.1449L166.296 63.2466L166.174 62.962L165.646 62.7182L165.423 62.5352L165.098 62.6775L164.551 62.8807L164.266 63.775L163.982 64.0798L163.84 64.5066L163.232 64.7301L162.907 65.1163L162.217 65.5024L161.852 65.8886L160.553 66.4982L159.64 66.7015L158.423 66.5592L157.956 66.3357L157.753 65.5024L157.043 64.7911L156.556 64.5472L156.373 64.1001L156.231 63.9375L156.292 63.653L156.455 63.5514L156.678 63.084L156.799 62.6775L156.739 62.4133L156.252 61.9865L155.176 61.7426L154.202 61.9459L154.081 62.1491L153.736 62.1897L153.614 62.4133L153.208 62.6978L153.167 62.9214L153.289 63.1246L153.654 63.3075L153.898 63.6124L153.837 64.6488L153.614 65.4008L153.289 66.9047L153.005 68.2663L152.782 68.5305L152.721 69.3841L153.025 69.506L153.147 69.7702L153.411 69.8515L153.472 71.0303L153.269 71.9651L152.579 72.7577L152.356 73.5503L151.849 73.7536L151.362 73.9568L151.22 74.4039L150.448 74.8713L149.779 75.481L149.028 75.9281L148.764 76.1923L148.359 76.8427L147.79 77.1678L146.066 77.6149L144.99 77.9401L144.605 78.2856L143.895 78.8953L143.205 79.6066L142.86 80.7447L142.454 81.1512H142.292L142.068 80.9276L141.521 80.765L141.196 80.4195L140.851 79.6676L140.526 78.4075L140.242 77.1069L140.405 75.7452L140.81 75.5217L140.973 75.2168L140.871 74.8307L140.506 74.4852L139.776 74.2007L138.72 74.4242L138.112 75.1152L137.402 75.3388L136.919 75.4413L136.738 75.8021L136.378 76.4936L135.718 76.8544L135.268 77.3054L134.997 77.2453L134.547 76.8244L134.337 76.5538L134.247 76.1629L134.166 75.7082L133.769 75.603L133.425 75.3997L133.201 75.5217L132.653 75.8062L132.268 76.0094L131.923 75.8062L130.929 75.8265L130.645 76.1028H131.125L130.945 76.5237L130.525 76.9446L130.314 77.3054L130.465 77.9669L131.035 78.2675L132.086 78.6584L132.596 78.8087L132.836 80.0715L133.016 80.5225L132.986 81.214H132.806L132.656 81.9056L132.716 82.5971L133.226 82.8075L133.857 83.1984L134.037 83.2585L134.277 83.1683L134.907 82.7775L135.268 82.6271L135.478 82.6572L135.628 83.1383L135.388 83.7697L134.937 84.2207L134.187 84.6115L134.097 85.3932L134.187 86.656L134.667 87.3175L134.787 87.5881L135.087 87.9188L135.177 88.1293L135.838 88.1894L136.078 88.2495L136.348 88.4901L136.828 88.5502L137.279 88.7005L137.549 89.2117V89.5424L136.768 89.5123L135.958 89.7829L135.778 89.9633L135.898 90.3542L136.738 91.7973L137.039 92.1281L137.249 92.6693L137.489 92.8797L137.669 93.3909L138.119 93.5111L138.449 93.6615L139.08 93.5412L139.47 93.3909L139.83 93.0902L140.431 92.9699L141.061 93.0902L141.241 93.2706L141.601 93.4209L141.721 93.6314L141.845 93.6905L142.281 93.7413L142.393 93.9648L143.235 93.8836L143.539 93.7413L143.854 93.3856L144.99 93.5381L146.4 93.9039L146.827 94.0665L147.009 95.6009L147.183 96.3458L147.025 97.05L146.881 97.3086V97.7541L147.685 97.6966L148.775 97.1649L149.22 97.0931L149.105 95.5985L148.861 95.268L149.005 95.0956L149.249 94.7651L149.823 94.88L150.497 95.2968L150.612 95.6991L150.11 95.9722L149.866 96.6476L149.679 97.2512L149.665 98.4583L150.081 98.5589L150.483 98.3864L151.171 98.0272L151.903 97.6679L152.377 97.3805L152.405 97.1649L152.649 97.0787L152.764 96.8632H153.352L153.639 97.3661L153.768 98.1278L153.367 98.3721L153.453 99.1193L153.926 99.4499L154.629 100.111L155.347 100.801L156.652 100.944L157.126 100.959L157.284 102.597L157.757 102.827L158.288 103.215L158.159 105.615L157.929 106.98L157.771 108.431L156.753 108.791L156.494 108.906L156.365 108.748L155.992 108.618L155.648 108.805L155.361 109.093L154.801 109.308L154.959 110.458L155.304 110.889L155.461 111.694C155.461 111.694 155.174 111.708 155.174 111.765C155.174 111.823 155.103 112.053 155.103 112.053L154.931 112.096L154.801 112.326L154.5 112.426L154.385 112.886V113.533L154.744 113.26H155.978L156.38 114.05L156.738 114.74L156.997 115.013L157.355 115.114L157.843 114.812L158.03 114.999L158.431 115.358L158.919 115.574L159.206 115.832L159.493 115.976L159.823 116.709L159.938 116.924L159.866 117.212L159.651 117.327V118.189L160.483 118.333L160.914 118.175L161.215 117.801L161.574 117.456L161.918 117.054L162.851 116.853L163.898 117.039L164.63 117.442L164.859 117.873L165.921 117.916L167.413 117.729L168.102 117.413L168.79 117.241L169.164 116.077L169.522 115.372L170.139 114.999L170.814 114.812L171.344 114.855L171.488 115.056L171.875 115.229L172.019 115.071L172.263 114.683L172.937 113.246L173.253 112.886L173.697 112.211L174.4 111.492L175.046 111.191L176.165 111.004L177.127 111.205L178.518 111.55L178.848 111.895L178.949 112.455L178.963 112.944L178.59 113.274L177.844 113.648L177.098 113.935L176.969 114.208L177.055 114.481L177.442 114.568L177.457 114.755L178.547 115.028L179.322 115.229L179.494 116.048L179.853 116.407L180.871 116.695L183.296 117.068L183.655 117.427L184.63 117.744L185.377 117.974L185.592 118.275L186.496 118.534L186.582 119.08L186.323 119.296L186.496 119.511L186.84 119.87L187.486 121.164L187.844 122.27L188.16 122.903L188.375 123.449L188.72 123.578L188.849 124.024L189.006 124.44V125.303L189.15 125.691L189.279 125.36L190.456 125.231L191.374 125.216L191.56 125.849L192.436 125.877L193.239 125.734L193.368 125.36L193.698 124.728L194.028 123.995L194.789 123.305L195.477 123.104L196.439 123.291L196.826 123.707L197.4 123.808L197.558 124.11L197.83 124.354L198.189 125.087L198.576 125.403L198.863 126.035L199.595 126.768L199.724 127.228L199.939 127.343L200.097 127.702L200.255 127.314L200.327 127.099L200.643 126.352L200.944 126.064L201.073 125.561L201.374 124.282L201.963 122.96L202.321 121.581L202.68 121.236L202.967 120.517L203.383 120.172L204.703 119.971L205.592 120.029L205.679 120.646L206.152 120.876L207.515 121.221L208.577 121.609L208.663 121.897L208.792 122.371L209.423 122.443L210.012 122.457L210.621 122.421Z" stroke="#015EDE" stroke-width="2" stroke-linejoin="round"/>
<path d="M234.405 215.502L233.93 215.406L232.983 215.349L232.409 215.234L231.691 214.803L231.204 214.371L230.974 213.567L231.089 212.819L231.06 212.015L231.376 211.124L231.749 210.549L232.036 210.261L232.208 210.089V209.945L231.433 209.514L231.204 208.767V208.02L231.519 207.933L231.634 207.703L231.95 207.416L232.007 207.272L231.577 206.956L231.405 206.065L231.003 204.887L230.658 204.255L230.429 202.817H230.257L230.171 202.588L229.281 202.214L227.617 201.898L226.44 201.61L225.838 201.179L225.579 200.547L224.919 200.317L224.145 199.455L223.456 199.282L223.398 198.363H222.939L222.738 197.96L222.251 197.702V196.494L222.365 196.063L222.566 195.172L222.48 194.598L222.107 194.31L221.763 193.678L221.418 193.333L221.16 192.844L221.447 192.499L221.619 192.327L220.385 192.298L218.981 191.566L218.545 191.221L218.301 190.266L218.119 190.682L217.926 190.845L217.693 191.394L217.571 191.14L217.378 191.058L217.266 190.865L217.064 190.164L216.932 188.833L215.846 188.427L214.405 188.142L214.243 187.929L213.401 187.725L212.742 187.055L212.092 186.73L211.727 185.957L211.321 185.348L210.586 184.61L210.313 183.935L209.94 183.776L209.496 183.748L208.592 183.891L208.405 184.193L208.247 184.021L208.405 183.288L208.549 182.885L208.922 182.153L209.266 181.132L209.438 180.557L209.395 178.775L209.596 177.985L209.912 177.497L210.17 177.396L210.328 177.022L210.772 176.85L210.83 176.146L210.629 175.571L210.27 175.312L210.055 174.507L210.313 173.846L211.031 173.602L212.121 173.616L212.408 173.875L212.48 174.392L212.566 174.364L212.867 174.019L213.054 173.889L213.312 172.941L213.585 172.927L213.742 172.654L214.79 172.467L215.364 172.323L215.866 172.496L216.095 172.912L216.612 172.97L217.172 172.855L217.76 172.769L217.846 172.668L217.43 172.409L217.401 172.079L217.545 171.432L217.903 170.038L218.162 168.486L218.434 168.472L218.606 168.127L219.969 168.012L221.002 167.681L221.39 167.308L221.878 167.135L222.437 167.293L222.738 167.638L222.868 168.156L223.37 168.328L224.116 168.659L224.475 169.047L224.905 169.118L225.178 169.492L226.153 169.665L227.315 169.909L229.396 169.823L229.568 169.147L229.798 169.075L230.027 168.673L231.39 168.544L231.534 168.831L233.141 169.032L233.341 169.118L233.499 169.003L233.815 168.687L233.915 166.618L234.159 165.253L235.207 164.85L235.465 164.333L236.383 164.319L236.57 163.816L237.244 163.14L237.875 162.436L238.722 162.048L239.353 161.401L239.741 161.258L239.97 160.798L240.372 160.065L240.845 159.864L240.788 159.461L240.688 158.973L240.257 158.729L240.214 158.326L240.401 157.248L240.63 156.659L241.046 156.587L242.079 156.199L242.381 156.056L242.825 156.185L243.127 156.3L243.701 156.329L243.815 155.179L244.188 154.475L244.691 154.274L244.92 153.426L245.609 152.707L246.24 152.075L246.728 151.845L246.943 150.997L247.094 150.179L245.953 150.106L245.58 150.02L244.92 149.301L244.145 148.525L243.543 147.864L242.739 147.203L241.104 146.858L240.042 146.542L239.181 146.312L239.009 145.853L238.636 145.45L238.406 144.962L238.177 144.933L238.004 144.674L237.603 144.444L236.656 144.157L235.967 143.869L234.704 143.898L234.475 144.243H234.044L233.786 144.042L233.499 143.754L232.753 143.467L231.29 142.633L230.343 142.346L229.568 142.174L229.281 141.656L228.564 141.254L227.932 140.65L227.272 140.248L226.871 139.932L225.551 139.242L223.714 138.897L222.738 138.552L221.332 137.834L220.701 137.661L220.127 137.69L220.07 138.38L220.156 139.156L220.242 139.501L220.443 139.731L220.558 140.018L220.816 140.334L220.73 141.053L220.357 141.139H219.553L219.295 140.765H218.09L216.483 140.622L215.737 140.277L214.417 139.587L213.785 138.207L213.441 136.742L213.039 136.512L212.781 135.793L212.408 135.477L211.605 134.73L210.945 134.414L210.6 134.126L210.399 132.344L210.084 131.281L209.567 130.562L209.481 129.528L209.711 128.522L209.998 126.079L210.313 125.331L210.622 124.361L210.801 123.169L210.629 122.428L210.012 122.457L209.424 122.443L208.792 122.371L208.663 121.897L208.577 121.609L207.516 121.221L206.153 120.876L205.679 120.647L205.593 120.029L204.703 119.971L203.383 120.172L202.967 120.517L202.68 121.236L202.322 121.581L201.963 122.96L201.375 124.282L201.073 125.561L200.944 126.064L200.643 126.352L200.327 127.099L200.256 127.314L200.098 127.703L199.94 127.343L199.725 127.228L199.596 126.768L198.864 126.036L198.577 125.403L198.189 125.087L197.831 124.354L197.558 124.11L197.4 123.808L196.826 123.707L196.439 123.291L195.478 123.104L194.789 123.305L194.029 123.995L193.699 124.728L193.369 125.36L193.24 125.734L192.436 125.877L191.561 125.849L191.374 125.216L190.456 125.231L189.28 125.36L189.15 125.691L189.007 125.303V124.44L188.849 124.024L188.72 123.578L188.376 123.449L188.16 122.903L187.845 122.27L187.486 121.164L186.84 119.871L186.496 119.511L186.324 119.296L186.582 119.08L186.496 118.534L185.592 118.275L185.377 117.974L184.631 117.744L183.655 117.428L183.297 117.068L180.872 116.695L179.853 116.407L179.494 116.048L179.322 115.229L178.547 115.028L177.457 114.755L177.443 114.568L177.055 114.482L176.969 114.209L177.098 113.935L177.844 113.648L178.59 113.274L178.964 112.944L178.949 112.455L178.849 111.895L178.519 111.55L177.127 111.205L176.166 111.004L175.047 111.191L174.401 111.492L173.698 112.211L173.253 112.886L172.937 113.246L172.263 114.683L172.019 115.071L171.876 115.229L171.488 115.056L171.345 114.855L170.814 114.812L170.14 114.999L169.523 115.373L169.164 116.077L168.791 117.241L168.102 117.413L167.414 117.729L165.921 117.916L164.86 117.873L164.63 117.442L163.898 117.04L162.851 116.853L161.918 117.054L161.574 117.456L161.215 117.801L160.914 118.175L160.484 118.333L159.651 118.189V117.327L159.867 117.212L159.938 116.925L159.824 116.709L159.494 115.976L159.207 115.832L158.92 115.574L158.432 115.358L158.03 114.999L157.844 114.812L157.356 115.114L156.997 115.013L156.739 114.74L156.38 114.05L155.978 113.26H154.744L154.386 113.533V112.886L154.501 112.427L154.802 112.326L154.931 112.096L155.103 112.053C155.103 112.053 155.175 111.823 155.175 111.766C155.175 111.708 155.462 111.694 155.462 111.694L155.304 110.889L154.96 110.458L154.802 109.308L155.361 109.093L155.648 108.805L155.993 108.618L156.366 108.748L156.495 108.906L156.753 108.791L157.772 108.432L157.93 106.98L158.159 105.615L158.288 103.215L157.758 102.827L157.284 102.597L157.126 100.959L156.653 100.944L155.347 100.801L154.63 100.111L153.927 99.45L153.453 99.1194L153.367 98.3722L153.769 98.1279L153.64 97.3662L153.353 96.8633H152.764L152.65 97.0788L152.406 97.165L152.377 97.3806L151.904 97.668L151.172 98.0273L150.483 98.3865L150.081 98.559L149.665 98.4584L149.68 97.2513L149.866 96.6477L150.11 95.9723L150.612 95.6992L150.498 95.2969L149.823 94.8801L149.249 94.7652L149.005 95.0957L148.862 95.2681L149.106 95.5986L149.221 97.0932L148.776 97.165L147.685 97.6967L146.882 97.7542V97.3087L147.025 97.0501L147.183 96.3459L147.01 95.601L146.827 94.0666L146.401 93.904L144.991 93.5382L143.854 93.3857L143.54 93.7414L143.236 93.8837L142.393 93.9649L142.282 93.7414L141.846 93.6906L141.541 93.9368C141.346 94.0346 141.183 94.9146 141.183 94.9146L140.891 95.6316C140.891 95.6316 140.44 95.3459 140.142 96.3161L140.012 96.7398C139.882 97.1635 140.305 97.0005 140.305 97.0005L140.435 97.2287L140.11 97.3264L139.784 97.5546L138.678 98.1412L137.962 98.402C137.962 98.402 137.797 98.3215 137.702 98.7279L137.344 100.26L137.018 100.716L136.628 101.466C136.628 101.466 136.628 101.466 136.563 101.792C136.498 102.118 136.628 102.118 136.628 102.118L137.018 102.639L137.506 103.063V103.258C137.506 103.258 137.506 103.258 137.083 103.389C136.66 103.519 136.856 103.584 136.856 103.584L137.116 103.878L137.051 104.595L136.725 104.66L136.53 104.823L135.944 104.92L135.717 105.866L135.228 106.909C135.228 106.909 135.326 107.854 135.359 108.017L134.936 108.929L134.61 109.809L134.317 110.331H133.992L133.797 110.07L132.885 110.103L132.137 110.135L131.454 110.592L131.291 111.732L131.128 112.906L130.77 113.72L130.575 113.949L129.859 114.307L129.339 114.47L128.785 114.34L128.492 113.851L128.46 112.678L128.688 111.895L128.916 110.07L129.111 108.864L129.371 107.104L129.306 106.126L129.111 104.627L128.72 103.161L128.427 102.281L128.167 101.303L127.939 100.716L127.809 100.846L127.679 101.531L127.256 101.889V102.248L127.354 102.476L127.712 102.835L128.102 103.584L128.167 104.562L127.939 105.018L127.809 105.866L127.386 105.898L126.833 105.768L126.8 105.181L126.605 105.214L126.312 105.344C126.312 105.344 126.312 105.344 126.019 106.061C125.727 106.778 126.019 106.094 125.629 107.006C125.238 107.919 125.629 107.006 125.271 107.43C124.913 107.854 124.946 108.115 124.946 108.115L124.067 108.864L123.091 108.995L122.765 109.386L122.733 109.842L122.993 109.972L123.188 111.211L123.514 112.906L123.677 113.427L123.579 114.275L123.221 115.317L122.83 116.002L122.147 116.784L121.366 117.078L120.683 117.534L120.488 117.697L120.032 118.446L119.934 119.718L119.446 119.88L118.828 120.174L118.047 120.5L117.591 120.989L117.461 121.086L117.168 120.989L117.006 120.598L116.257 120.239L115.899 120.141L115.314 120.206L115.053 120.793L114.793 120.239L114.435 119.978L114.37 118.935L114.663 118.772L114.598 118.642L114.207 118.544L113.556 117.762L113.133 117.045L112.45 116.328L111.571 116.36L111.181 116.523L110.4 116.458L110.335 116.067L110.042 115.285L109.977 114.829L109.749 114.731L109.326 114.992L108.35 115.415L107.634 115.774L106.43 115.937L105.226 115.741L104.51 115.35L104.12 114.959L102.916 114.307L102.623 114.144L102.167 114.209L101.419 114.633L101.028 115.089L100.8 115.415L100.345 115.774L98.2296 115.937L97.0582 116.002L96.8629 116.263L96.5375 116.458L96.3097 117.403L95.8542 118.186L95.5938 118.381L95.1057 118.772L94.8129 119.098L94.4549 119.261L93.8692 119.457L93.4136 120.239L93.1207 120.5L92.7953 121.184L92.4374 121.64L92.2747 121.934L91.9818 121.021L91.754 120.532L91.0707 119.88L90.3548 119.392L88.6301 119.163L88.0444 118.903L87.296 119.066L85.5387 119.392L84.3347 119.131L83.0982 119L81.9267 119.098L81.7966 120.565L81.4386 120.989L79.5838 121.315L79.2584 121.477L78.8679 121.217L77.5337 121.086L76.7527 120.858L75.4837 120.467L74.6701 120.369L74.4098 119.88L74.182 118.805L73.8892 117.86L73.0431 116.36L72.6851 115.187L71.9367 113.883L71.3184 112.678L70.993 111.667L70.5375 110.787L70.147 110.689L69.9192 111.178L69.6914 111.406L69.6473 111.149L68.5008 111.049L68.0023 110.799L67.5038 110.6L67.3542 110.2L66.8059 109.751L66.0582 109.701L65.8089 109.901L65.3603 109.501L64.9615 109.401L64.7122 109.102L64.0144 108.752L63.6654 108.403C63.6654 108.403 63.6654 108.403 63.2666 107.704C62.8678 107.005 62.4192 107.454 62.4192 107.454C62.4192 107.454 62.4192 107.404 62.2696 107.205C62.1201 107.005 62.2696 107.105 62.2696 106.855C62.2696 106.605 62.5687 106.905 62.5687 106.905L62.3693 106.456C62.3693 106.456 62.3693 106.456 62.0702 106.156C61.7712 105.857 61.6715 106.406 61.6715 106.406L60.7243 106.556L60.176 106.705C60.176 106.705 60.176 106.705 59.9267 106.905C59.6775 107.105 59.5778 107.055 59.5778 107.055L59.4283 107.155V107.205L59.7273 107.454L60.0763 107.654L60.1261 108.003L59.528 108.103L58.9796 108.053L58.0325 108.003C58.0325 108.003 58.0325 107.953 58.0325 108.652C58.0325 109.351 58.3814 108.702 58.3814 108.702L58.1322 109.202L57.534 110.05L57.2349 109.651L57.0355 109.701V109.901L57.0854 110.4L57.4343 110.7L57.2848 111.199L56.3376 111.948L56.2878 112.447L56.4373 112.896L56.7364 113.595L56.9857 113.795L56.8361 113.995L56.0884 114.344L55.3905 115.043L54.7425 115.593L54.1941 115.892L54.0446 116.941L53.3965 117.839L52.4993 118.289L52.2999 118.488L51.6518 119.087L51.5023 119.786L51.602 120.535L51.9011 121.085C51.9011 121.085 51.9011 121.384 51.9011 121.584C51.9011 121.784 51.9011 122.083 51.9011 122.083L51.5521 122.582L51.253 122.832L50.8044 123.082L50.5552 123.032L50.1564 122.582L49.6579 122.383L48.7606 121.883L48.4116 121.834L48.2621 121.534L48.0129 121.284L47.8633 121.135L46.0687 120.835L43.6262 120.585L40.8346 120.735L39.9373 121.184L39.4887 121.484L39.3975 121.899L39.8439 122.61L40.3511 122.854L40.4729 123.2L40.7367 123.423L40.5743 123.647L40.4323 123.85L40.5743 124.338L40.9396 125.029L41.2642 125.395L41.6092 126.146L41.9541 126.777L42.1773 127.183L42.7454 127.386L43.0092 127.65L43.7194 127.854L44.0035 128.463L44.2267 128.707L43.9629 128.849V129.154L44.4093 129.642L44.6934 130.252L45.0586 130.597L45.4847 130.983L45.8094 131.593L46.3775 132.264L46.9051 132.508L46.9659 133.178L46.6819 133.483L46.4789 133.341L45.9717 133.158L45.8296 132.894L45.3832 132.65L45.0789 132.284L44.7339 132.02L44.4499 131.674C44.4499 131.674 44.4702 132.02 44.6325 132.142C44.7948 132.264 44.9977 132.548 44.9977 132.548L45.2412 132.833L45.7282 133.26L46.3166 133.605H47.1485L48.1225 133.707C48.1225 133.707 48.3254 134.377 48.4066 134.357C48.4877 134.337 49.1979 134.763 49.1979 134.763L49.5023 135.8L49.8878 136.877V136.694L49.9893 137.527L49.7863 137.731L49.7255 138.32L49.9893 138.462L50.1313 138.726L50.4356 138.076L50.5371 138.178L50.4154 138.747L50.6588 139.052L51.1052 139.296L51.3082 140.677L51.5719 141.328L52.3227 142.019L52.6676 142.385L52.9517 143.401L53.1952 143.645L53.4184 143.909H54.3924L55.1025 143.726L56.1576 143.441L57.4968 142.71L58.5317 142.303L59.9723 142.059L61.8796 141.714L62.3869 141.572L63.3203 141.673L64.4363 142.019L65.1465 142.71L65.7552 143.015L66.506 143.767L67.1958 144.132L67.8451 144.783L69.3061 145.555L69.8945 145.799L70.3206 146.043L70.4221 146.307L70.6453 146.327L70.7873 146.612L71.1322 146.713L71.3149 147.181L71.7004 148.258L71.9033 148.746L72.3091 148.929L72.999 149.132L73.8106 149.294L75.7585 149.66L77.2601 150.351L77.5441 150.717L78.2543 151.022L78.6601 151.205L78.8225 151.51L79.0254 151.611L79.3703 152.14L80.0196 152.688L80.7298 154.111L80.9733 154.883L81.5414 155.107L81.6023 155.29L81.8458 155.452L82.0893 155.838L83.4488 156.204L83.7937 156.59L84.4227 156.855L85.4981 157.22L86.1068 157.485L86.188 157.891L86.817 158.216L87.1214 158.806L87.5678 158.989L87.8113 159.456L88.42 159.578L88.562 159.822L90.7737 159.964L92.1129 160.716L93.0463 161.732L93.7768 162.037L94.4869 162.85L95.2174 163.48L95.4 163.968L95.7044 164.171L95.8667 164.496L96.6175 165.309L96.8813 165.573L97.2871 166.264L97.4697 166.671L97.7943 166.976L97.8958 167.301L98.3422 168.053L98.6263 168.683L98.9306 169.028L99.3567 169.76L99.6814 170.776L100.026 171.101L100.371 171.853L100.655 172.117L101.467 173.499L102.177 175.003L102.482 175.532L102.766 176.629L103.192 177.361L103.516 178.356L103.861 178.946L104.145 180.409L104.835 181.852L105.241 182.543L105.606 183.539L105.931 184.596L106.235 185.632L106.377 186.303V187.502L106.154 187.827L105.931 188.03L105.728 188.254L105.87 188.437L106.256 189.128L106.58 189.778L107.29 191.119L107.372 192.135L107.006 192.42L106.722 192.664V192.765L107.595 192.928L107.717 193.05L108.061 192.908L108.65 192.704L109.827 192.623L110.334 192.359L111.065 192.42L110.354 192.603L108.975 192.948L108.224 193.192L108.061 193.68L108.406 193.822L108.772 193.802L109.117 193.395L110.151 193.639L110.679 193.965L111.369 194.056L111.562 194.33L112.109 194.605L113.51 195.316L114.23 195.712L115.184 195.997L116.644 196.698L117.334 197.084L118.684 197.43L119.414 197.826L119.739 198.131L121.048 198.791L121.494 199.147L122.864 199.868L123.158 200.183L123.878 200.559L124.355 200.722L124.467 200.996L124.862 201.22L125.572 201.891L126.293 202.256L126.983 202.937L127.703 203.283L128.038 203.669L128.758 204.004L129.042 204.329L129.762 204.634L130.402 205.396L131.092 206.057L131.771 206.768L132.512 207.469L133.171 207.794L133.547 208.12L134.216 208.495L134.906 209.197L135.627 209.867L136.327 210.558L136.966 211.249L137.656 211.95L138.011 212.225L138.447 212.692L139.309 213.495L140.111 214.277L140.567 214.775L141.369 215.659L142.221 216.462L142.708 217.285L143.134 218.19L143.509 218.555L144.341 219.429L145.265 220.263L146.076 221.157L146.513 221.949L147.355 222.823L147.842 223.016L148.227 223.667L149.069 224.51L149.465 224.957L149.891 225.831L150.753 226.695L151.149 227.477L151.981 228.361L152.417 228.768L152.884 229.591L153.269 230.455L154.122 231.318L154.974 232.192L155.4 232.985L155.836 233.869L156.242 234.296L157.084 235.932L157.53 236.419L157.936 237.253L158.809 238.106L159.235 239.011L159.681 239.783L160.036 240.25L160.919 241.947L161.376 243.197L161.66 243.37H162.522L163.029 242.78L163.486 242.364L164.329 241.92L165.505 241.46L167.586 241.158L169.35 241.489L171.044 241.848L171.46 242.322L172.306 242.782L173.196 243.227L173.597 243.63L175.233 244.435L176.18 245.311L177.012 245.785L177.285 246.303L177.586 246.403L177.643 246.662L178.59 246.978L179.078 247.438L179.968 247.869L180.341 248.228L180.556 248.444L180.886 248.803L181.044 248.961L181.187 248.645L181.431 248.545L181.56 248.085L181.69 247.869L181.946 247.652C181.959 247.621 181.695 245.875 181.667 245.764C181.639 245.652 181.193 244.94 181.193 244.94L180.872 244.116L179.673 242.762L179.116 242.539L178.67 242.93L177.722 242.762L177.164 242.371V240.64L178.056 240.249L178.279 239.02L177.889 237.177L177.61 236.675L175.659 236.284L174.544 233.994L174.265 233.436L174.376 232.877L174.6 232.375L173.429 232.095L169.637 231.928L168.801 231.537L168.578 229.806L168.243 229.303L167.518 228.968L166.849 228.745L166.403 228.41L164.842 227.404L161.733 226.983L160.826 226.746L160.629 226.43L160.314 226.272L160.274 226.074L158.579 225.916L157.948 226.114L157.357 226.39L156.687 226.351L156.253 225.837L155.898 224.416L154.991 222.757L154.636 221.454L154.163 220.704L153.73 220.072L153.178 219.796L152.35 219.401L151.601 218.532L151.127 217.742L150.773 217.229L149.432 216.952L149.077 216.873L148.525 216.992L148.328 217.11L148.131 216.518L148.998 216.044L150.418 215.531L151.167 215.096L151.601 212.49L152.113 212.372L152.389 211.977L152.941 211.937L153.257 211.582L153.69 210.911L153.769 210.437L154.321 210.121L155.031 209.489L155.78 209.015L156.016 208.857L156.529 208.62L156.687 207.751L156.963 207.041L157.396 206.606L158.067 206.369L158.421 205.856L158.855 205.658L159.92 204.553L160.472 204.237L161.181 203.487L161.576 203.447L162.049 203.605L162.403 204.158L163.074 204.237L163.113 205.027L163.192 205.303L163.507 205.501L163.35 205.658L163.074 205.895H162.877L162.798 206.488L162.857 206.596L163.458 206.656L163.665 206.468L163.872 205.866C163.872 205.866 164.079 205.56 164.079 205.52C164.079 205.481 163.754 205.214 163.754 205.214L164.079 205.165L164.355 206.103L164.661 207.12L164.818 207.791L164.641 208.857L164.507 209.701L164.675 211.265L164.898 211.544L164.73 211.963L164.507 212.493L164.563 214.699L165.093 215.174L165.539 216.096L165.873 216.179L165.929 216.068L166.766 215.593L167.658 215.174L168.522 214.755L169.498 214.253L169.832 213.75L170.25 213.666L170.473 214.029L170.669 215.202L171.031 216.068L172.369 216.403L172.983 216.598L173.596 216.71L174.042 216.096L174.404 215.174L175.269 214.783L175.687 214.56L176.244 214.588L176.384 215.286L176.189 216.849L175.743 217.715L175.603 217.911L175.519 218.692L176.133 218.804L176.941 218.944L177.861 219.139L178.252 219.837L178.503 220.144H178.726L179.088 219.446L179.534 218.609L179.952 218.134L180.185 215.847L180.599 215.708L180.658 215.333L181.042 215.225L181.17 214.909L181.653 213.497L182.117 211.967L182.245 211.898L182.619 211.582L183.891 211.384L184.679 211.661L185.034 211.819H185.507V210.95L185.153 210.002V208.225L186.808 208.186L187.36 207.87L187.242 207.08L186.848 206.685L186.256 206.527L186.217 206.251L186.414 206.093L186.73 205.303L187.203 205.027L187.439 204.869L187.715 204.355L187.834 204.987L188.11 205.777H188.425L188.74 205.619L188.977 205.54L189.016 203.487L189.529 203.329L190.436 203.092L190.278 202.183L190.081 201.157L190.278 200.091L190.672 199.064V198.353L190.633 197.405L190.357 196.892L189.963 197.01L189.529 197.366L189.45 197.603L189.174 197.366L188.819 197.089L188.464 196.655L188.346 196.379L188.504 195.984L188.918 195.806L189.056 195.51L189.549 195.332L189.884 195.016L190.002 194.404L190.534 194.917L191.303 195.668L191.954 196.082L192.348 196.398L192.584 196.576L193.117 196.458L193.255 196.181H193.629L193.807 196.536L194.359 196.635L194.339 196.497L194.004 196.24L193.905 195.49L194.418 195.312L195.108 194.957L195.719 194.799L196.468 194.957L197.217 195.372L198.065 195.451L198.873 195.293L199.583 195.036L200.963 194.621L201.475 194.424L201.751 194.483L202.007 195.036L202.323 195.727L202.717 196.714L203.407 197.445L203.486 197.563L203.368 197.761L203.131 198.61L202.48 198.629V199.992L202.658 201.354L203.032 201.512L204.058 202.559L204.412 203.309L205.102 204L206.502 204.711L206.877 205.007L207.448 205.362L207.902 205.678L208.641 205.925L208.907 207.1L209.627 207.771L210.307 209.213L210.632 209.884L211.332 210.575L212.012 211.296L212.377 211.582L213.047 211.927L213.648 212.056L213.875 213.102L213.934 213.556L213.855 213.912L212.998 214.771L212.8 216.212L212.455 216.232L212.14 216.903L211.992 217.16L212.12 217.298L212.603 217.732L214.269 218.157L214.939 218.335L215.58 218.157L217.246 217.298L217.522 217.091L217.817 216.587L218.074 217.308L218.478 217.762L220.203 218.571L221.454 219.835L222.322 220.299L223.17 220.724L223.613 221.138L224.333 221.405L224.411 221.987L224.707 222.589L224.993 223.044L225.141 223.132L225.259 222.343L225.693 221.553L226.265 221.326L226.954 221.543L227.329 221.839L228.009 221.859L228.157 221.711L227.743 221.543L227.802 220.269L228.334 220.141L228.541 219.638L229.921 219.42L230.424 219.228L230.779 218.152L231.617 217.727L233.297 217.318L233.558 216.725L233.923 216.602L234.15 216.034L234.426 215.837L234.405 215.502ZM163.21 189.525L163.224 190.488L163.64 190.804L163.984 191.264L164.357 191.522L164.587 191.695L164.845 191.982L164.917 192.154L164.314 192.298L163.855 192.413L163.583 191.896L163.425 191.666L163.267 190.99L163.023 190.717L162.736 190.071L162.636 189.812L163.21 189.525ZM134.744 163.571L134.988 163.442L135.232 163.112L135.605 162.81L135.734 162.637L136.322 162.795L136.537 163.428L136.422 163.988H135.848L135.633 163.83L135.375 163.744H135.016L134.744 163.571Z" stroke="#015EDE" stroke-width="2" stroke-linejoin="round"/>
<path d="M278.018 354.021L278.761 353.98L279.008 354.338L279.311 354.503L279.036 354.696L278.458 355.027L277.963 354.971L277.936 354.531L278.018 354.021ZM275.502 351.955L275.062 352.368L274.842 353.03L273.934 353.897L273.508 354.765L272.889 354.889L272.545 355.04L272.367 355.261L272.009 355.454L272.147 355.688L272.422 355.825L273.15 355.894L273.439 355.646V355.398L274.003 355.151L274.828 354.724L275.708 353.897C275.708 353.897 275.804 353.47 275.804 353.401C275.804 353.333 275.681 352.589 275.681 352.589L275.502 351.955ZM223.172 324.628L223.794 324.423L224.416 324.637L224.543 325.124L224.689 325.64L224.047 325.903L223.551 325.971L222.763 325.903L222.511 325.757L222.637 325.192L222.705 325.017L223.172 324.628ZM210.026 341.602C210.026 341.602 209.871 341.29 209.832 341.212C209.793 341.135 209.443 340.628 209.443 340.628L209.598 340.472L210.065 339.888C210.065 339.888 210.532 339.44 210.532 339.362C210.532 339.284 210.298 339.128 210.298 339.128L209.676 338.661L208.704 338.135L208.568 337.726L208.762 337.356L209.209 336.46L209.423 334.96L210.104 334.727L211.037 334.532L211.232 334.317L211.698 333.928L211.932 333.305L212.535 332.74L212.865 332.35L213.41 331.746L213.974 331.61L215.179 331.669L215.86 331.376L216.191 331.162L216.541 331.376L216.618 331.98L216.093 332.156L215.666 331.941L215.16 332.662L213.857 333.149L212.924 333.616L212.36 333.947L211.66 334.551L211.543 336.031L211.135 337.473L211.018 338.875L210.94 339.167L212.224 339.206L212.515 339.343L212.107 339.946L211.893 340.492L211.66 340.862L211.271 341.349L210.804 341.641L210.434 341.855L210.026 341.602ZM195.694 331.162L196.394 331.065L196.705 329.838H196.978L197.289 330.597L197.542 332.019L197.386 333.48L197.017 333.733L196.589 333.947L196.355 334.688L195.986 335.389L195.772 335.564L195.889 334.22L196.414 333.246L196.705 332.915L196.491 331.435L195.694 331.162ZM315.612 275.724L315.887 275.449L316.107 274.788L316.382 273.741L316.602 273.163L316.795 272.391L316.877 271.841L318.83 271.758L319.215 271.482L320.123 271.152L321.333 271.235L322.295 271.207L323.01 271.18L323.615 270.739L324.385 270.298L324.825 270.023L325.155 269.169L325.705 268.122V267.378L324.825 266.993L324.385 266.056L323.863 265.202L323.698 264.954L324.028 264.817L325.155 264.431L326.058 263.518L326.879 262.7L327.035 262.563L327.424 262.719L327.579 263.07L327.968 263.031L329.446 262.719L331.507 262.485L331.974 261.55L332.48 260.07L332.596 258.979L332.48 258.551L332.052 258.006L331.857 257.538L331.313 257.343L331.196 256.759L330.807 256.369L329.872 255.493L329.656 254.391L328.598 254.63L327.777 255.027L326.533 255.504L325.713 255.769L324.866 255.531L324.389 255.001L323.542 254.63L322.96 254.524L322.219 254.736L322.193 256.909L322.351 257.413L321.69 257.784L320.949 258.049L320.366 258.288L320.207 257.864L319.546 257.837L319.334 258.818L318.884 259.269L318.646 260.038L318.328 259.56L317.958 259.64L317.217 260.144L316.317 260.939L315.496 261.283L315.258 261.549L314.914 260.753L314.649 260.541L314.305 260.011L313.723 259.693L313.485 259.057L312.902 259.004L312.161 258.102L311.579 257.228L310.362 256.724L309.488 256.326L309.091 255.929L308.244 255.504L307.9 253.384L307.477 251.899L307.212 251.82L306.127 252.032L305.756 252.509L305.386 253.649L304.962 254.444L304.459 254.63L304.115 255.001L303.665 255.239L303.162 255.107L302.474 254.815L301.918 255.001L301.468 255.451L300.595 255.955L300.198 256.724L300.066 258.102L300.304 258.473L300.357 259.216L300.013 259.56L299.51 259.189L298.451 259.322L296.863 259.772L296.545 259.958L296.016 259.56L295.407 259.507L295.143 258.951L294.719 258.447L293.899 257.599L293.74 256.671L293.316 256.485L292.972 255.425L292.231 253.834L291.331 253.331L290.749 252.906L290.034 252.535L289.664 252.111L289.135 251.82L288.923 251.554L288.076 251.395L287.202 251.077L287.705 250.812L287.943 250.441L288.261 249.752L288.764 249.566L289.293 249.01L289.929 248.903L289.452 248.559V247.711L288.817 247.472L288.393 246.571L287.943 246.199L287.679 245.696L287.149 245.378L286.647 243.602L286.144 243.257L285.853 242.727L285.059 241.958L284.344 241.666L284.053 241.322L282.862 241.481L282.279 241.719L280.612 241.56C280.612 241.56 280.48 240.023 280.374 239.97C280.268 239.917 279.474 239.811 279.474 239.811L276.986 239.493L276.536 238.909L275.689 238.512L274.022 238.167L273.095 237.743L272.645 237.425L272.354 236.391L271.825 235.118L271.295 234.986L271.031 235.118L270.157 235.543L269.734 235.967L269.125 236.205V237.796L269.549 237.928L269.734 238.432L270.157 239.254L270.607 240.632L270.872 241.613L270.581 242.674L270.025 244.317L269.707 245.325L269.337 246.756L268.49 247.021L267.219 247.127L267.034 246.862L266.584 246.73L266.452 246.491L265.42 246.12C265.42 246.12 263.461 245.934 263.223 245.934C262.985 245.934 262.085 246.173 262.085 246.173L261.661 246.836L261.264 246.942L260.735 247.207L260.417 246.968L259.914 246.571L259.173 246.093L257.162 245.828L255.23 245.881L255.018 246.332L254.541 246.518L253.933 246.756L253.218 246.597L252.795 246.12L252.371 245.325L251.895 244.954L251.551 244.052L251.074 243.602L250.174 243.098L248.983 242.78L247.263 242.329L246.257 242.064L246.31 241.242L246.442 240.632L246.839 239.386L247.263 238.538L247.739 237.61L248.374 237.398L248.48 236.842L249.46 236.364L250.651 235.967L251.498 235.145L251.683 234.535L251.524 234.244L250.651 232.494L250.28 232.149L249.857 230.956L248.904 230.029L248.771 228.332L248.454 228.093L248.216 226.662L247.872 226.079L247.58 225.867L247.395 225.442L246.786 224.541L246.098 224.143L245.648 223.719L244.748 223.322L240.487 222.818L239.653 222.42L238.859 221.585L237.933 220.684L237.774 216.35L237.47 216.191L237.351 215.051L236.914 214.865L236.583 214.626L235.789 214.653L235.458 215.422L234.418 215.505L234.426 215.837L234.15 216.035L233.923 216.602L233.558 216.726L233.297 217.318L231.616 217.728L230.779 218.152L230.424 219.228L229.921 219.421L228.541 219.638L228.334 220.141L227.802 220.27L227.743 221.543L228.157 221.711L228.009 221.859L227.329 221.839L226.954 221.543L226.264 221.326L225.693 221.553L225.259 222.343L225.141 223.133L224.993 223.044L224.707 222.59L224.411 221.988L224.332 221.405L223.613 221.139L223.169 220.724L222.322 220.299L221.454 219.835L220.202 218.572L218.478 217.762L218.073 217.308L217.817 216.587L217.521 217.091L217.245 217.298L215.58 218.157L214.939 218.335L214.269 218.157L212.603 217.733L212.12 217.298L211.992 217.16L212.14 216.903L212.455 216.232L212.8 216.212L212.997 214.771L213.855 213.912L213.934 213.557L213.875 213.102L213.648 212.056L213.047 211.928L212.376 211.582L212.012 211.296L211.332 210.575L210.632 209.884L210.306 209.213L209.626 207.771L208.907 207.1L208.641 205.925L207.901 205.678L207.448 205.363L206.876 205.007L206.502 204.711L205.102 204L204.412 203.309L204.057 202.559L203.032 201.512L202.658 201.354L202.48 199.992V198.63L203.131 198.61L203.367 197.761L203.486 197.563L203.407 197.445L202.717 196.714L202.323 195.727L202.007 195.036L201.751 194.483L201.475 194.424L200.962 194.621L199.582 195.036L198.873 195.293L198.064 195.451L197.217 195.372L196.468 194.957L195.719 194.799L195.107 194.957L194.418 195.313L193.905 195.49L194.004 196.241L194.339 196.497L194.358 196.635L193.806 196.537L193.629 196.181H193.254L193.116 196.458L192.584 196.576L192.348 196.399L191.953 196.083L191.303 195.668L190.534 194.918L190.002 194.404L189.884 195.016L189.548 195.332L189.056 195.51L188.918 195.806L188.504 195.984L188.346 196.379L188.464 196.655L188.819 197.09L189.174 197.366L189.45 197.603L189.529 197.366L189.962 197.011L190.357 196.892L190.633 197.405L190.672 198.353V199.064L190.278 200.091L190.081 201.157L190.278 202.184L190.435 203.092L189.529 203.329L189.016 203.487L188.977 205.54L188.74 205.619L188.425 205.777H188.109L187.833 204.987L187.715 204.356L187.439 204.869L187.203 205.027L186.729 205.303L186.414 206.093L186.217 206.251L186.256 206.527L186.848 206.685L187.242 207.08L187.36 207.87L186.808 208.186L185.152 208.226V210.003L185.507 210.95V211.819H185.034L184.679 211.661L183.891 211.385L182.619 211.582L182.245 211.898L182.116 211.967L181.653 213.497L181.17 214.909L181.042 215.225L180.658 215.334L180.599 215.709L180.185 215.847L179.952 218.134L179.534 218.609L179.088 219.447L178.725 220.145H178.502L178.251 219.837L177.861 219.139L176.941 218.944L176.133 218.804L175.519 218.693L175.603 217.911L175.742 217.715L176.188 216.85L176.384 215.286L176.244 214.588L175.687 214.56L175.268 214.783L174.404 215.174L174.042 216.096L173.596 216.71L172.982 216.598L172.369 216.403L171.031 216.068L170.668 215.202L170.473 214.029L170.25 213.666L169.832 213.75L169.497 214.253L168.522 214.755L167.657 215.174L166.765 215.593L165.929 216.068L165.873 216.18L165.539 216.096L165.093 215.174L164.563 214.7L164.507 212.494L164.73 211.963L164.897 211.544L164.674 211.265L164.507 209.701L164.641 208.857L164.818 207.791L164.66 207.12L164.355 206.103L164.079 205.165L163.754 205.214C163.754 205.214 164.079 205.481 164.079 205.521C164.079 205.56 163.872 205.866 163.872 205.866L163.665 206.468L163.458 206.656L162.857 206.597L162.798 206.488L162.876 205.896H163.073L163.349 205.659L163.507 205.501L163.192 205.303L163.113 205.027L163.073 204.237L162.403 204.158L162.048 203.605L161.575 203.447L161.181 203.487L160.471 204.237L159.919 204.553L158.855 205.659L158.421 205.856L158.066 206.37L157.396 206.606L156.962 207.041L156.686 207.752L156.529 208.62L156.016 208.857L155.78 209.015L155.03 209.489L154.321 210.121L153.769 210.437L153.69 210.911L153.256 211.582L152.941 211.938L152.389 211.977L152.113 212.372L151.6 212.49L151.167 215.097L150.418 215.531L148.998 216.044L148.131 216.518L148.328 217.111L148.525 216.992L149.077 216.874L149.432 216.953L150.772 217.229L151.127 217.742L151.6 218.532L152.349 219.401L153.177 219.796L153.729 220.072L154.163 220.704L154.636 221.454L154.991 222.758L155.898 224.416L156.253 225.838L156.686 226.351L157.357 226.391L157.948 226.114L158.579 225.917L160.274 226.075L160.314 226.272L160.629 226.43L160.826 226.746L161.733 226.983L164.842 227.405L166.403 228.41L166.849 228.745L167.518 228.968L168.243 229.303L168.577 229.806L168.801 231.537L169.637 231.928L173.428 232.096L174.599 232.375L174.376 232.878L174.265 233.436L174.544 233.994L175.659 236.284L177.61 236.675L177.889 237.178L178.279 239.021L178.056 240.249L177.164 240.64V242.371L177.722 242.762L178.67 242.93L179.116 242.539L179.673 242.762L180.872 244.117L181.193 244.94C181.193 244.94 181.639 245.652 181.667 245.764C181.694 245.876 181.959 247.621 181.959 247.621L182.587 247.683L182.86 247.254L184.999 247.371L186.243 247.838L186.632 248.072L186.904 247.916L187.138 247.76L190.483 247.566L192.31 247.877L194.683 248.734L196.511 249.591L196.939 250.02L198.533 250.721L200.4 251.656L201.295 252.552L201.917 253.214L202.423 253.331L203.356 253.798L204.601 255.084L205.495 255.551L206.701 256.876L207.945 258.083L209.268 259.369L209.657 260.187L210.434 261.005L210.823 261.823L211.251 262.368L211.718 263.109L212.301 263.498L212.574 263.966L213.468 265.641L213.974 266.108L214.207 267.004L214.713 267.316L215.568 269.263L216.463 270.861L216.891 271.679L217.085 272.536L217.474 272.886L217.669 273.393L217.98 274.912L218.33 275.769L218.407 277.171L218.485 278.067L218.874 278.807L219.38 279.314L220.235 279.664L221.947 280.132L222.997 280.288L224.358 280.093L226.186 279.898L226.536 278.768L227.353 277.093L228.17 276.392L229.064 275.34L229.492 275.029L230.27 274.561L231.203 274.094L231.437 273.509L231.709 273.432L232.059 272.847L232.914 272.38L234.198 271.172L235.365 270.861L237.193 269.809L238.087 269.575L238.204 269.302L239.332 269.069L240.965 268.679L243.221 268.445L247.344 268.251L248.16 267.277L248.627 267.082L248.977 266.03L250.222 265.602L252.011 265.485L254.15 265.68L257.028 266.069L258.234 266.537L260.878 266.926L263.445 267.744L264.301 268.212L265.507 268.601L266.362 269.03L267.646 269.458L269.435 270.276L271.029 271.289L272.702 272.029L273.285 272.224L273.596 272.925L274.413 273.354L275.152 273.665L275.269 274.094L276.163 274.678L276.708 274.951L277.174 274.795L277.485 274.483L277.913 274.6L279.119 275.029L279.975 275.457L280.208 276.119L280.636 276.197V276.392L281.569 276.665L283.592 277.093L284.564 277.561L285.42 278.496L285.886 278.924L286.664 279.275L287.014 279.664L287.636 279.937L288.103 279.898L288.298 279.08L289.231 279.119L289.503 279.431L290.126 279.469L290.437 280.249L291.215 280.365L291.604 280.132L292.07 279.742L292.459 279.586L292.848 279.197L293.393 279.002L292.965 278.924L291.604 278.807L290.903 278.457L290.32 278.184L290.087 277.6C290.087 277.6 289.931 277.171 289.892 276.976C289.853 276.782 290.048 274.951 290.048 274.951L290.476 273.821L290.748 273.159L291.409 272.925L291.72 272.497L293.431 271.601L295.104 270.744L295.998 269.809L297.787 269.77L299.771 270.004L301.521 270.315L302.26 270.822L302.571 271.328L302.96 271.562L302.999 271.912L303.971 272.029L304.477 272.224L305.41 272.068L306.149 271.64L307.044 270.783L307.627 270.588L308.677 270.783L310.039 271.133L310.428 271.562L311.322 272.029L312.178 272.886L312.994 273.276L313.928 274.25L314.628 274.561L315.522 275.379L315.612 275.724Z" stroke="#015EDE" stroke-width="2" stroke-linejoin="round"/>
<path d="M329.656 254.391L328.598 254.629L327.777 255.027L326.533 255.504L325.713 255.769L324.866 255.531L324.389 255.001L323.542 254.629L322.96 254.523L322.219 254.735L322.193 256.909L322.351 257.413L321.69 257.784L320.949 258.049L320.366 258.288L320.208 257.864L319.546 257.837L319.334 258.818L318.884 259.269L318.646 260.037L318.328 259.56L317.958 259.64L317.217 260.143L316.317 260.939L315.496 261.283L315.258 261.548L314.914 260.753L314.649 260.541L314.305 260.011L313.723 259.693L313.485 259.057L312.902 259.004L312.161 258.102L311.579 257.227L310.362 256.724L309.488 256.326L309.091 255.928L308.244 255.504L307.9 253.383L307.477 251.899L307.212 251.819L306.127 252.031L305.756 252.509L305.386 253.649L304.962 254.444L304.459 254.629L304.115 255.001L303.665 255.239L303.162 255.107L302.474 254.815L301.918 255.001L301.468 255.451L300.595 255.955L300.198 256.724L300.066 258.102L300.304 258.473L300.357 259.216L300.013 259.56L299.51 259.189L298.451 259.322L296.863 259.772L296.546 259.958L296.016 259.56L295.407 259.507L295.143 258.95L294.719 258.447L293.899 257.598L293.74 256.671L293.316 256.485L292.972 255.425L292.231 253.834L291.331 253.33L290.749 252.906L290.035 252.535L289.664 252.111L289.135 251.819L288.923 251.554L288.076 251.395L287.202 251.077L287.705 250.812L287.944 250.441L288.261 249.752L288.764 249.566L289.293 249.009L289.929 248.903L289.452 248.559V247.71L288.817 247.472L288.394 246.57L287.944 246.199L287.679 245.696L287.15 245.378L286.647 243.601L286.144 243.257L285.853 242.727L285.059 241.958L284.344 241.666L284.053 241.322L282.862 241.481L282.279 241.719L280.612 241.56C280.612 241.56 280.48 240.023 280.374 239.97C280.268 239.917 279.474 239.81 279.474 239.81L276.986 239.492L276.536 238.909L275.689 238.512L274.022 238.167L273.095 237.743L272.645 237.425L272.354 236.391L271.825 235.118L271.295 234.986L271.031 235.118L270.157 235.542L269.734 235.967L269.125 236.205V237.796L269.549 237.928L269.734 238.432L270.157 239.254L270.607 240.632L270.872 241.613L270.581 242.674L270.025 244.317L269.707 245.325L269.337 246.756L268.49 247.021L267.219 247.127L267.034 246.862L266.584 246.73L266.452 246.491L265.42 246.12C265.42 246.12 263.461 245.934 263.223 245.934C262.985 245.934 262.085 246.173 262.085 246.173L261.661 246.836L261.264 246.942L260.735 247.207L260.417 246.968L259.914 246.57L259.173 246.093L257.162 245.828L255.23 245.881L255.018 246.332L254.541 246.517L253.933 246.756L253.218 246.597L252.795 246.12L252.371 245.325L251.895 244.953L251.551 244.052L251.074 243.601L250.174 243.098L248.983 242.78L247.263 242.329L246.257 242.064L246.31 241.242L246.442 240.632L246.839 239.386L247.263 238.538L247.739 237.61L248.375 237.398L248.48 236.841L249.46 236.364L250.651 235.967L251.498 235.145L251.683 234.535L251.524 234.243L250.651 232.494L250.28 232.149L249.857 230.956L248.904 230.028L248.772 228.332L248.454 228.093L248.216 226.662L247.872 226.078L247.58 225.866L247.395 225.442L246.786 224.541L246.098 224.143L245.648 223.719L244.748 223.321L240.487 222.818L239.653 222.42L238.859 221.585L237.933 220.684L237.774 216.349L237.47 216.19L237.351 215.05L236.914 214.865L236.583 214.626L235.789 214.653L235.458 215.422L234.402 215.495L233.93 215.406L232.983 215.349L232.409 215.234L231.691 214.803L231.203 214.372L230.974 213.567L231.089 212.82L231.06 212.015L231.376 211.124L231.749 210.549L232.036 210.262L232.208 210.089V209.945L231.433 209.514L231.203 208.767V208.02L231.519 207.934L231.634 207.704L231.95 207.416L232.007 207.272L231.577 206.956L231.404 206.065L231.003 204.887L230.658 204.255L230.429 202.818H230.257L230.17 202.588L229.281 202.214L227.617 201.898L226.44 201.61L225.837 201.179L225.579 200.547L224.919 200.317L224.144 199.455L223.456 199.282L223.398 198.363H222.939L222.738 197.96L222.25 197.702V196.495L222.365 196.063L222.566 195.172L222.48 194.598L222.107 194.31L221.763 193.678L221.418 193.333L221.16 192.844L221.447 192.5L221.619 192.327L220.385 192.298L218.981 191.567L218.545 191.221L218.301 190.266L218.119 190.682L217.926 190.845L217.692 191.394L217.571 191.14L217.378 191.058L217.266 190.865L217.063 190.164L216.932 188.833L215.846 188.427L214.405 188.142L214.243 187.929L213.401 187.725L212.741 187.055L212.092 186.73L211.727 185.957L211.321 185.348L210.586 184.61L210.313 183.935L209.94 183.777L209.495 183.748L208.591 183.892L208.405 184.193L208.247 184.021L208.405 183.288L208.548 182.886L208.921 182.153L209.266 181.132L209.438 180.558L209.395 178.776L209.596 177.985L209.911 177.497L210.17 177.396L210.327 177.022L210.772 176.85L210.83 176.146L210.629 175.571L210.27 175.312L210.055 174.508L210.313 173.846L211.031 173.602L212.121 173.617L212.408 173.875L212.48 174.393L212.566 174.364L212.867 174.019L213.054 173.89L213.312 172.941L213.584 172.927L213.742 172.654L214.79 172.467L215.364 172.323L215.866 172.496L216.095 172.912L216.612 172.97L217.171 172.855L217.76 172.769L217.846 172.668L217.43 172.409L217.401 172.079L217.544 171.432L217.903 170.038L218.161 168.486L218.434 168.472L218.606 168.127L219.969 168.012L221.002 167.681L221.39 167.308L221.877 167.135L222.437 167.293L222.738 167.638L222.867 168.156L223.37 168.328L224.116 168.659L224.474 169.047L224.905 169.119L225.177 169.492L226.153 169.665L227.315 169.909L229.396 169.823L229.568 169.147L229.797 169.075L230.027 168.673L231.39 168.544L231.533 168.831L233.14 169.032L233.341 169.119L233.499 169.004L233.815 168.687L233.915 166.618L234.159 165.253L235.206 164.85L235.465 164.333L236.383 164.319L236.57 163.816L237.244 163.14L237.875 162.436L238.722 162.048L239.353 161.402L239.74 161.258L239.97 160.798L240.372 160.065L240.845 159.864L240.788 159.462L240.687 158.973L240.257 158.729L240.214 158.326L240.4 157.248L240.63 156.659L241.046 156.587L242.079 156.199L242.38 156.056L242.825 156.185L243.126 156.3L243.7 156.329L243.815 155.179L244.188 154.475L244.69 154.274L244.92 153.426L245.609 152.707L246.24 152.075L246.728 151.845L246.943 150.997L247.115 150.25L247.265 149.651L247.595 149.065L248.021 149.238L248.667 149.616C248.667 149.616 249.011 149.947 249.046 149.968C249.08 149.988 250.441 150.684 250.441 150.684L251.115 151.386L251.816 152.061L252.167 152.398L252.525 153.115L252.71 153.948L253.178 154.134L253.872 154.492L254.395 154.685L254.938 154.45L255.227 154.086L256.43 153.872L256.478 154.595L256.835 154.767L256.945 155.194L257.654 155.869L258.348 156.558L259.049 157.274L259.18 157.887L259.063 158.624L258.389 160.001L257.97 160.745L257.317 161.364L257.124 162.142L256.87 162.259L256.608 162.79L256.547 163.368L256.608 164.167L257.344 164.856L257.42 165.145L257.324 165.558L257.09 166.006V167.465L257.324 167.624L257.64 168.664L257.825 168.96L257.681 169.394L257.495 170.062L257.64 170.427L257.997 171.115L258.692 171.756L259.056 172.851L259.833 172.926L260.775 172.795L261.126 171.763L261.387 169.862L261.841 169.717L262.171 169.345L262.906 169.104L263.559 169.359L264.24 169.704L264.625 169.876L264.708 170.179L265.278 170.42L265.945 170.743L267.355 171.074L268.372 171.425L269.039 171.776L269.775 172.458L270.098 172.83L270.318 173.677L270.792 173.877L271.15 174.18L272.545 174.558L275.619 174.915L276.416 175.149L276.747 175.617C276.747 175.617 276.941 176.376 276.999 176.513C277.058 176.649 277.388 177.642 277.388 177.642L277.738 178.051L278.302 178.265L278.322 178.499L278.536 178.597L278.613 179.921L279.45 180.038L279.897 180.311L280.15 180.817L281.53 181.479L282.172 181.791L282.386 181.966L282.736 181.713L284.272 181.791L284.506 182.239L284.758 182.375L284.836 182.609L285.303 182.901L285.478 183.057L285.672 182.901L286.042 182.706L286.334 181.849L286.684 181.499L287.034 180.798L287.403 180.466L288.745 180.096L289.426 179.746L290.126 179.415L290.476 178.694L291.195 178.402L291.876 178.168L292.206 177.915L292.576 177.856L292.809 177.525L293.023 177.506L293.179 177.116L293.607 176.999L293.995 176.688L294.365 175.928L294.345 174.935L294.015 174.234L293.82 173.864L293.957 173.182L294.637 172.539L296.154 172.169L296.912 171.974L297.807 172.403L299.071 173.162L299.888 173.552L300.141 174.545L300.821 175.324L301.93 175.402L302.357 175.772L302.649 176.045L303.194 175.383L303.388 174.721L303.719 174.604L303.991 174.078L304.244 173.903L305.08 173.825L305.936 173.221L305.838 173.786L305.605 174.253L305.741 174.526L306.091 175.578L306.383 175.714L306.461 175.909L306.966 176.201L307.452 176.629L308.055 176.941L308.269 177.525L308.58 177.915L308.989 178.071L308.6 178.382L308.658 179.531L308.95 180.194L309.572 180.486L309.98 180.856L310.428 181.713L310.797 182.18L311.264 182.219L311.75 182.122L312.042 181.947L312.372 182.161L313.364 182.511L313.753 182.706L314.492 183.135L314.647 182.667L315.056 182.161L315.911 181.693L316.612 181.245L317.526 180.992L317.992 181.616L318.478 182.55L318.653 183.213L319.295 183.388L321.823 183.797L323.126 184.284L323.554 184.673L325.596 184.771L326.957 184.615L327.288 184.206L327.696 183.836L328.085 183.602L328.59 183.855L329.057 184.693L329.388 185.901L329.66 186.368L329.893 186.602H330.593V186.232L331.507 186.329L331.974 187.283L332.421 188.16C332.421 188.16 332.596 188.335 332.616 188.413C332.635 188.491 332.83 188.9 332.83 188.9L333.238 190.186L334.152 191.062L334.755 191.276L334.872 191.568L335.144 191.744L335.436 192.25L335.825 192.737L337.166 192.815L337.341 193.243L338.353 193.614L338.8 194.023L339.189 194.802L339.655 195.25L339.85 195.834L340.531 196.185L341.289 197.003L341.697 198.658L342.67 200.372L343.02 202.047L343.856 203.8L344.225 204.209L344.75 205.125L345.12 206.663C345.12 206.663 345.353 207.306 345.353 207.403C345.353 207.501 345.12 208.436 345.12 208.436L344.284 209.254L343.856 209.799L343.603 210.52L343.875 211.338L344.379 211.599L344.186 212.15L344.626 212.784L346.194 213.004L346.386 213.335L346.964 213.528L347.431 213.831L347.596 215.456L347.349 216.255L346.964 216.695L346.331 216.998L345.534 217.274L344.654 217.467L344.984 217.742L345.451 218.376L346.001 218.651L346.441 219.064L347.211 219.367L347.569 219.588L347.871 219.835L348.394 220.111L348.036 220.414L346.771 220.662L346.606 221.571L344.681 221.984L343.609 222.287V223.416L343.031 223.637L342.124 224.518L341.271 225.317L341.079 225.62L341.161 225.895L341.986 226.143L342.069 226.364L342.591 226.694L343.361 226.97L343.664 227.355L344.104 227.658L343.746 227.879L343.444 228.374L342.894 229.118L342.591 230.413L342.371 230.909L341.986 231.074L339.649 231.349L339.181 232.231L338.879 232.947L338.411 233.443L337.476 233.883L337.036 234.324L336.623 235.095L336.101 235.674L335.358 235.977L334.946 236.39L334.038 236.831L333.571 237.271L333.351 237.905L332.911 238.07L331.673 238.511L331.261 238.704H330.546L330.353 238.401L329.693 238.346L329.391 238.511L328.703 238.897L327.823 239.282L327.411 239.723L327.218 240.329L327.246 241.018L327.658 241.954L327.961 242.285L328.923 242.836L329.281 242.973L329.583 243.194L330.271 243.414L329.556 243.552L329.198 244.02L329.446 244.433L330.298 245.342L330.601 245.618L330.931 246.058L330.518 246.224L329.831 246.527L329.418 246.94L329.088 248.262L328.896 248.592L328.703 250.438L329.006 252.201L329.253 252.669L329.611 252.862L329.721 253.082L330.106 253.22V253.798L329.803 253.936L329.656 254.391Z" stroke="#015EDE" stroke-width="2" stroke-linejoin="round"/>
<mask id="path-6-outside-1_4115_35312" maskUnits="userSpaceOnUse" x="145" y="60" width="21" height="26" fill="black">
<rect fill="white" x="145" y="60" width="21" height="26"/>
<path d="M164.835 70C164.835 74.125 159.351 81.3906 156.913 84.4375C156.351 85.1406 155.272 85.1406 154.71 84.4375C152.272 81.3906 146.835 74.125 146.835 70C146.835 65.0312 150.819 61 155.835 61C160.804 61 164.835 65.0312 164.835 70Z"/>
</mask>
<path d="M164.835 70C164.835 74.125 159.351 81.3906 156.913 84.4375C156.351 85.1406 155.272 85.1406 154.71 84.4375C152.272 81.3906 146.835 74.125 146.835 70C146.835 65.0312 150.819 61 155.835 61C160.804 61 164.835 65.0312 164.835 70Z" fill="#D2B48C"/>
<path d="M163.835 70C163.835 70.8351 163.551 71.918 163.019 73.1789C162.493 74.4237 161.76 75.7661 160.937 77.0975C159.293 79.7598 157.341 82.3015 156.132 83.8128L157.694 85.0622C158.922 83.5266 160.932 80.9121 162.639 78.1486C163.492 76.7671 164.282 75.3292 164.861 73.9564C165.434 72.5996 165.835 71.2274 165.835 70H163.835ZM156.132 83.8128C155.97 84.0155 155.653 84.0155 155.491 83.8128L153.929 85.0622C154.892 86.2657 156.731 86.2657 157.694 85.0622L156.132 83.8128ZM155.491 83.8128C154.283 82.3035 152.344 79.7622 150.711 77.1002C149.894 75.7689 149.166 74.4265 148.645 73.1815C148.117 71.9207 147.835 70.8367 147.835 70H145.835C145.835 71.2258 146.232 72.5969 146.8 73.9537C147.375 75.3264 148.159 76.7643 149.006 78.1459C150.701 80.9097 152.699 83.5246 153.929 85.0622L155.491 83.8128ZM147.835 70C147.835 65.5801 151.375 62 155.835 62V60C150.264 60 145.835 64.4824 145.835 70H147.835ZM155.835 62C160.251 62 163.835 65.5835 163.835 70H165.835C165.835 64.479 161.356 60 155.835 60V62Z" fill="#015EDE" mask="url(#path-6-outside-1_4115_35312)"/>
<mask id="path-8-outside-2_4115_35312" maskUnits="userSpaceOnUse" x="107" y="43" width="21" height="26" fill="black">
<rect fill="white" x="107" y="43" width="21" height="26"/>
<path d="M126.835 53C126.835 57.125 121.351 64.3906 118.913 67.4375C118.351 68.1406 117.272 68.1406 116.71 67.4375C114.272 64.3906 108.835 57.125 108.835 53C108.835 48.0312 112.819 44 117.835 44C122.804 44 126.835 48.0312 126.835 53Z"/>
</mask>
<path d="M126.835 53C126.835 57.125 121.351 64.3906 118.913 67.4375C118.351 68.1406 117.272 68.1406 116.71 67.4375C114.272 64.3906 108.835 57.125 108.835 53C108.835 48.0312 112.819 44 117.835 44C122.804 44 126.835 48.0312 126.835 53Z" fill="#D2B48C"/>
<path d="M125.835 53C125.835 53.8351 125.551 54.918 125.019 56.1789C124.493 57.4237 123.76 58.7661 122.937 60.0975C121.293 62.7598 119.341 65.3015 118.132 66.8128L119.694 68.0622C120.922 66.5266 122.932 63.9121 124.639 61.1486C125.492 59.7671 126.282 58.3292 126.861 56.9564C127.434 55.5996 127.835 54.2274 127.835 53H125.835ZM118.132 66.8128C117.97 67.0155 117.653 67.0155 117.491 66.8128L115.929 68.0622C116.892 69.2657 118.731 69.2657 119.694 68.0622L118.132 66.8128ZM117.491 66.8128C116.283 65.3035 114.344 62.7622 112.711 60.1002C111.894 58.7689 111.166 57.4265 110.645 56.1815C110.117 54.9207 109.835 53.8367 109.835 53H107.835C107.835 54.2258 108.232 55.5969 108.8 56.9537C109.375 58.3264 110.159 59.7643 111.006 61.1459C112.701 63.9097 114.699 66.5246 115.929 68.0622L117.491 66.8128ZM109.835 53C109.835 48.5801 113.375 45 117.835 45V43C112.264 43 107.835 47.4824 107.835 53H109.835ZM117.835 45C122.251 45 125.835 48.5835 125.835 53H127.835C127.835 47.479 123.356 43 117.835 43V45Z" fill="#015EDE" mask="url(#path-8-outside-2_4115_35312)"/>
<mask id="path-10-outside-3_4115_35312" maskUnits="userSpaceOnUse" x="24" y="68" width="21" height="26" fill="black">
<rect fill="white" x="24" y="68" width="21" height="26"/>
<path d="M43.835 78C43.835 82.125 38.3506 89.3906 35.9131 92.4375C35.3506 93.1406 34.2725 93.1406 33.71 92.4375C31.2725 89.3906 25.835 82.125 25.835 78C25.835 73.0312 29.8194 69 34.835 69C39.8037 69 43.835 73.0312 43.835 78Z"/>
</mask>
<path d="M43.835 78C43.835 82.125 38.3506 89.3906 35.9131 92.4375C35.3506 93.1406 34.2725 93.1406 33.71 92.4375C31.2725 89.3906 25.835 82.125 25.835 78C25.835 73.0312 29.8194 69 34.835 69C39.8037 69 43.835 73.0312 43.835 78Z" fill="#D2B48C"/>
<path d="M42.835 78C42.835 78.8351 42.5506 79.918 42.0186 81.1789C41.4934 82.4237 40.7598 83.7661 39.9374 85.0975C38.2928 87.7598 36.3413 90.3015 35.1323 91.8128L36.694 93.0622C37.9224 91.5266 39.9319 88.9121 41.6389 86.1486C42.4922 84.7671 43.2821 83.3292 43.8613 81.9564C44.4338 80.5996 44.835 79.2274 44.835 78H42.835ZM35.1323 91.8128C34.9701 92.0155 34.653 92.0155 34.4909 91.8128L32.9291 93.0622C33.892 94.2657 35.7312 94.2657 36.694 93.0622L35.1323 91.8128ZM34.4909 91.8128C33.2834 90.3035 31.3437 87.7622 29.7109 85.1002C28.8943 83.7689 28.1663 82.4265 27.6451 81.1815C27.1174 79.9207 26.835 78.8367 26.835 78H24.835C24.835 79.2258 25.2323 80.5969 25.8002 81.9537C26.3748 83.3264 27.1585 84.7643 28.006 86.1459C29.7013 88.9097 31.6991 91.5246 32.9291 93.0622L34.4909 91.8128ZM26.835 78C26.835 73.5801 30.3751 70 34.835 70V68C29.2637 68 24.835 72.4824 24.835 78H26.835ZM34.835 70C39.2515 70 42.835 73.5835 42.835 78H44.835C44.835 72.479 40.356 68 34.835 68V70Z" fill="#015EDE" mask="url(#path-10-outside-3_4115_35312)"/>
<mask id="path-12-outside-4_4115_35312" maskUnits="userSpaceOnUse" x="83" y="9" width="21" height="26" fill="black">
<rect fill="white" x="83" y="9" width="21" height="26"/>
<path d="M102.835 19C102.835 23.125 97.3506 30.3906 94.9131 33.4375C94.3506 34.1406 93.2725 34.1406 92.71 33.4375C90.2725 30.3906 84.835 23.125 84.835 19C84.835 14.0312 88.8194 10 93.835 10C98.8037 10 102.835 14.0312 102.835 19Z"/>
</mask>
<path d="M102.835 19C102.835 23.125 97.3506 30.3906 94.9131 33.4375C94.3506 34.1406 93.2725 34.1406 92.71 33.4375C90.2725 30.3906 84.835 23.125 84.835 19C84.835 14.0312 88.8194 10 93.835 10C98.8037 10 102.835 14.0312 102.835 19Z" fill="#D2B48C"/>
<path d="M101.835 19C101.835 19.8351 101.551 20.918 101.019 22.1789C100.493 23.4237 99.7598 24.7661 98.9374 26.0975C97.2928 28.7598 95.3413 31.3015 94.1323 32.8128L95.694 34.0622C96.9224 32.5266 98.9319 29.9121 100.639 27.1486C101.492 25.7671 102.282 24.3292 102.861 22.9564C103.434 21.5996 103.835 20.2274 103.835 19H101.835ZM94.1323 32.8128C93.9701 33.0155 93.653 33.0155 93.4909 32.8128L91.9291 34.0622C92.892 35.2657 94.7312 35.2657 95.694 34.0622L94.1323 32.8128ZM93.4909 32.8128C92.2834 31.3035 90.3437 28.7622 88.7109 26.1002C87.8943 24.7689 87.1663 23.4265 86.6451 22.1815C86.1174 20.9207 85.835 19.8367 85.835 19H83.835C83.835 20.2258 84.2323 21.5969 84.8002 22.9537C85.3748 24.3264 86.1585 25.7643 87.006 27.1459C88.7013 29.9097 90.6991 32.5246 91.9291 34.0622L93.4909 32.8128ZM85.835 19C85.835 14.5801 89.3751 11 93.835 11V9C88.2637 9 83.835 13.4824 83.835 19H85.835ZM93.835 11C98.2515 11 101.835 14.5835 101.835 19H103.835C103.835 13.479 99.356 9 93.835 9V11Z" fill="#015EDE" mask="url(#path-12-outside-4_4115_35312)"/>
<mask id="path-14-outside-5_4115_35312" maskUnits="userSpaceOnUse" x="213" y="251" width="21" height="26" fill="black">
<rect fill="white" x="213" y="251" width="21" height="26"/>
<path d="M232.835 261C232.835 265.125 227.351 272.391 224.913 275.438C224.351 276.141 223.272 276.141 222.71 275.438C220.272 272.391 214.835 265.125 214.835 261C214.835 256.031 218.819 252 223.835 252C228.804 252 232.835 256.031 232.835 261Z"/>
</mask>
<path d="M232.835 261C232.835 265.125 227.351 272.391 224.913 275.438C224.351 276.141 223.272 276.141 222.71 275.438C220.272 272.391 214.835 265.125 214.835 261C214.835 256.031 218.819 252 223.835 252C228.804 252 232.835 256.031 232.835 261Z" fill="#D2B48C"/>
<path d="M231.835 261C231.835 261.835 231.551 262.918 231.019 264.179C230.493 265.424 229.76 266.766 228.937 268.098C227.293 270.76 225.341 273.301 224.132 274.813L225.694 276.062C226.922 274.527 228.932 271.912 230.639 269.149C231.492 267.767 232.282 266.329 232.861 264.956C233.434 263.6 233.835 262.227 233.835 261H231.835ZM224.132 274.813C223.97 275.016 223.653 275.016 223.491 274.813L221.929 276.062C222.892 277.266 224.731 277.266 225.694 276.062L224.132 274.813ZM223.491 274.813C222.283 273.304 220.344 270.762 218.711 268.1C217.894 266.769 217.166 265.427 216.645 264.182C216.117 262.921 215.835 261.837 215.835 261H213.835C213.835 262.226 214.232 263.597 214.8 264.954C215.375 266.326 216.159 267.764 217.006 269.146C218.701 271.91 220.699 274.525 221.929 276.062L223.491 274.813ZM215.835 261C215.835 256.58 219.375 253 223.835 253V251C218.264 251 213.835 255.482 213.835 261H215.835ZM223.835 253C228.251 253 231.835 256.584 231.835 261H233.835C233.835 255.479 229.356 251 223.835 251V253Z" fill="#015EDE" mask="url(#path-14-outside-5_4115_35312)"/>
<mask id="path-16-outside-6_4115_35312" maskUnits="userSpaceOnUse" x="139" y="159" width="21" height="26" fill="black">
<rect fill="white" x="139" y="159" width="21" height="26"/>
<path d="M158.835 169C158.835 173.125 153.351 180.391 150.913 183.438C150.351 184.141 149.272 184.141 148.71 183.438C146.272 180.391 140.835 173.125 140.835 169C140.835 164.031 144.819 160 149.835 160C154.804 160 158.835 164.031 158.835 169Z"/>
</mask>
<path d="M158.835 169C158.835 173.125 153.351 180.391 150.913 183.438C150.351 184.141 149.272 184.141 148.71 183.438C146.272 180.391 140.835 173.125 140.835 169C140.835 164.031 144.819 160 149.835 160C154.804 160 158.835 164.031 158.835 169Z" fill="#D2B48C"/>
<path d="M157.835 169C157.835 169.835 157.551 170.918 157.019 172.179C156.493 173.424 155.76 174.766 154.937 176.098C153.293 178.76 151.341 181.301 150.132 182.813L151.694 184.062C152.922 182.527 154.932 179.912 156.639 177.149C157.492 175.767 158.282 174.329 158.861 172.956C159.434 171.6 159.835 170.227 159.835 169H157.835ZM150.132 182.813C149.97 183.016 149.653 183.016 149.491 182.813L147.929 184.062C148.892 185.266 150.731 185.266 151.694 184.062L150.132 182.813ZM149.491 182.813C148.283 181.304 146.344 178.762 144.711 176.1C143.894 174.769 143.166 173.427 142.645 172.182C142.117 170.921 141.835 169.837 141.835 169H139.835C139.835 170.226 140.232 171.597 140.8 172.954C141.375 174.326 142.159 175.764 143.006 177.146C144.701 179.91 146.699 182.525 147.929 184.062L149.491 182.813ZM141.835 169C141.835 164.58 145.375 161 149.835 161V159C144.264 159 139.835 163.482 139.835 169H141.835ZM149.835 161C154.251 161 157.835 164.584 157.835 169H159.835C159.835 163.479 155.356 159 149.835 159V161Z" fill="#015EDE" mask="url(#path-16-outside-6_4115_35312)"/>
<mask id="path-18-outside-7_4115_35312" maskUnits="userSpaceOnUse" x="88" y="136" width="21" height="26" fill="black">
<rect fill="white" x="88" y="136" width="21" height="26"/>
<path d="M107.835 146C107.835 150.125 102.351 157.391 99.9131 160.438C99.3506 161.141 98.2725 161.141 97.71 160.438C95.2725 157.391 89.835 150.125 89.835 146C89.835 141.031 93.8194 137 98.835 137C103.804 137 107.835 141.031 107.835 146Z"/>
</mask>
<path d="M107.835 146C107.835 150.125 102.351 157.391 99.9131 160.438C99.3506 161.141 98.2725 161.141 97.71 160.438C95.2725 157.391 89.835 150.125 89.835 146C89.835 141.031 93.8194 137 98.835 137C103.804 137 107.835 141.031 107.835 146Z" fill="#D2B48C"/>
<path d="M106.835 146C106.835 146.835 106.551 147.918 106.019 149.179C105.493 150.424 104.76 151.766 103.937 153.098C102.293 155.76 100.341 158.301 99.1323 159.813L100.694 161.062C101.922 159.527 103.932 156.912 105.639 154.149C106.492 152.767 107.282 151.329 107.861 149.956C108.434 148.6 108.835 147.227 108.835 146H106.835ZM99.1323 159.813C98.9701 160.016 98.653 160.016 98.4909 159.813L96.9291 161.062C97.892 162.266 99.7312 162.266 100.694 161.062L99.1323 159.813ZM98.4909 159.813C97.2834 158.304 95.3437 155.762 93.7109 153.1C92.8943 151.769 92.1663 150.427 91.6451 149.182C91.1174 147.921 90.835 146.837 90.835 146H88.835C88.835 147.226 89.2323 148.597 89.8002 149.954C90.3748 151.326 91.1585 152.764 92.006 154.146C93.7013 156.91 95.6991 159.525 96.9291 161.062L98.4909 159.813ZM90.835 146C90.835 141.58 94.3751 138 98.835 138V136C93.2637 136 88.835 140.482 88.835 146H90.835ZM98.835 138C103.251 138 106.835 141.584 106.835 146H108.835C108.835 140.479 104.356 136 98.835 136V138Z" fill="#015EDE" mask="url(#path-18-outside-7_4115_35312)"/>
<mask id="path-20-outside-8_4115_35312" maskUnits="userSpaceOnUse" x="211" y="125" width="21" height="26" fill="black">
<rect fill="white" x="211" y="125" width="21" height="26"/>
<path d="M230.835 135C230.835 139.125 225.351 146.391 222.913 149.438C222.351 150.141 221.272 150.141 220.71 149.438C218.272 146.391 212.835 139.125 212.835 135C212.835 130.031 216.819 126 221.835 126C226.804 126 230.835 130.031 230.835 135Z"/>
</mask>
<path d="M230.835 135C230.835 139.125 225.351 146.391 222.913 149.438C222.351 150.141 221.272 150.141 220.71 149.438C218.272 146.391 212.835 139.125 212.835 135C212.835 130.031 216.819 126 221.835 126C226.804 126 230.835 130.031 230.835 135Z" fill="#D2B48C"/>
<path d="M229.835 135C229.835 135.835 229.551 136.918 229.019 138.179C228.493 139.424 227.76 140.766 226.937 142.098C225.293 144.76 223.341 147.301 222.132 148.813L223.694 150.062C224.922 148.527 226.932 145.912 228.639 143.149C229.492 141.767 230.282 140.329 230.861 138.956C231.434 137.6 231.835 136.227 231.835 135H229.835ZM222.132 148.813C221.97 149.016 221.653 149.016 221.491 148.813L219.929 150.062C220.892 151.266 222.731 151.266 223.694 150.062L222.132 148.813ZM221.491 148.813C220.283 147.304 218.344 144.762 216.711 142.1C215.894 140.769 215.166 139.427 214.645 138.182C214.117 136.921 213.835 135.837 213.835 135H211.835C211.835 136.226 212.232 137.597 212.8 138.954C213.375 140.326 214.159 141.764 215.006 143.146C216.701 145.91 218.699 148.525 219.929 150.062L221.491 148.813ZM213.835 135C213.835 130.58 217.375 127 221.835 127V125C216.264 125 211.835 129.482 211.835 135H213.835ZM221.835 127C226.251 127 229.835 130.584 229.835 135H231.835C231.835 129.479 227.356 125 221.835 125V127Z" fill="#015EDE" mask="url(#path-20-outside-8_4115_35312)"/>
<mask id="path-22-outside-9_4115_35312" maskUnits="userSpaceOnUse" x="88" y="29" width="21" height="26" fill="black">
<rect fill="white" x="88" y="29" width="21" height="26"/>
<path d="M107.835 39C107.835 43.125 102.351 50.3906 99.9131 53.4375C99.3506 54.1406 98.2725 54.1406 97.71 53.4375C95.2725 50.3906 89.835 43.125 89.835 39C89.835 34.0312 93.8194 30 98.835 30C103.804 30 107.835 34.0312 107.835 39Z"/>
</mask>
<path d="M107.835 39C107.835 43.125 102.351 50.3906 99.9131 53.4375C99.3506 54.1406 98.2725 54.1406 97.71 53.4375C95.2725 50.3906 89.835 43.125 89.835 39C89.835 34.0312 93.8194 30 98.835 30C103.804 30 107.835 34.0312 107.835 39Z" fill="#D2B48C"/>
<path d="M106.835 39C106.835 39.8351 106.551 40.918 106.019 42.1789C105.493 43.4237 104.76 44.7661 103.937 46.0975C102.293 48.7598 100.341 51.3015 99.1323 52.8128L100.694 54.0622C101.922 52.5266 103.932 49.9121 105.639 47.1486C106.492 45.7671 107.282 44.3292 107.861 42.9564C108.434 41.5996 108.835 40.2274 108.835 39H106.835ZM99.1323 52.8128C98.9701 53.0155 98.653 53.0155 98.4909 52.8128L96.9291 54.0622C97.892 55.2657 99.7312 55.2657 100.694 54.0622L99.1323 52.8128ZM98.4909 52.8128C97.2834 51.3035 95.3437 48.7622 93.7109 46.1002C92.8943 44.7689 92.1663 43.4265 91.6451 42.1815C91.1174 40.9207 90.835 39.8367 90.835 39H88.835C88.835 40.2258 89.2323 41.5969 89.8002 42.9537C90.3748 44.3264 91.1585 45.7643 92.006 47.1459C93.7013 49.9097 95.6991 52.5246 96.9291 54.0622L98.4909 52.8128ZM90.835 39C90.835 34.5801 94.3751 31 98.835 31V29C93.2637 29 88.835 33.4824 88.835 39H90.835ZM98.835 31C103.251 31 106.835 34.5835 106.835 39H108.835C108.835 33.479 104.356 29 98.835 29V31Z" fill="#015EDE" mask="url(#path-22-outside-9_4115_35312)"/>
<mask id="path-24-outside-10_4115_35312" maskUnits="userSpaceOnUse" x="74" y="38" width="21" height="26" fill="black">
<rect fill="white" x="74" y="38" width="21" height="26"/>
<path d="M93.835 48C93.835 52.125 88.3506 59.3906 85.9131 62.4375C85.3506 63.1406 84.2725 63.1406 83.71 62.4375C81.2725 59.3906 75.835 52.125 75.835 48C75.835 43.0312 79.8194 39 84.835 39C89.8037 39 93.835 43.0312 93.835 48Z"/>
</mask>
<path d="M93.835 48C93.835 52.125 88.3506 59.3906 85.9131 62.4375C85.3506 63.1406 84.2725 63.1406 83.71 62.4375C81.2725 59.3906 75.835 52.125 75.835 48C75.835 43.0312 79.8194 39 84.835 39C89.8037 39 93.835 43.0312 93.835 48Z" fill="#D2B48C"/>
<path d="M92.835 48C92.835 48.8351 92.5506 49.918 92.0186 51.1789C91.4934 52.4237 90.7598 53.7661 89.9374 55.0975C88.2928 57.7598 86.3413 60.3015 85.1323 61.8128L86.694 63.0622C87.9224 61.5266 89.9319 58.9121 91.6389 56.1486C92.4922 54.7671 93.2821 53.3292 93.8613 51.9564C94.4338 50.5996 94.835 49.2274 94.835 48H92.835ZM85.1323 61.8128C84.9701 62.0155 84.653 62.0155 84.4909 61.8128L82.9291 63.0622C83.892 64.2657 85.7312 64.2657 86.694 63.0622L85.1323 61.8128ZM84.4909 61.8128C83.2834 60.3035 81.3437 57.7622 79.7109 55.1002C78.8943 53.7689 78.1663 52.4265 77.6451 51.1815C77.1174 49.9207 76.835 48.8367 76.835 48H74.835C74.835 49.2258 75.2323 50.5969 75.8002 51.9537C76.3748 53.3264 77.1585 54.7643 78.006 56.1459C79.7013 58.9097 81.6991 61.5246 82.9291 63.0622L84.4909 61.8128ZM76.835 48C76.835 43.5801 80.3751 40 84.835 40V38C79.2637 38 74.835 42.4824 74.835 48H76.835ZM84.835 40C89.2515 40 92.835 43.5835 92.835 48H94.835C94.835 42.479 90.356 38 84.835 38V40Z" fill="#015EDE" mask="url(#path-24-outside-10_4115_35312)"/>
</g>
<defs>
<clipPath id="clip0_4115_35312">
<rect width="348" height="356" fill="white" transform="translate(0.5)"/>
</clipPath>
</defs>
</svg>
