<svg width="40" height="32" viewBox="0 0 40 32" fill="none" xmlns="http://www.w3.org/2000/svg">
<path d="M20 4C26.6094 4 32 9.39062 32 16C32 22.6562 26.6094 28 20 28C13.3438 28 8 22.6562 8 16C8 9.39062 13.3438 4 20 4ZM29.75 16C29.75 11.0312 25.9531 6.90625 21.125 6.34375V15.4844L28.25 21.2031C29.1875 19.7031 29.75 17.9219 29.75 16ZM18.875 25.7031V18.3438L13.1094 22.9375C14.6562 24.4375 16.625 25.4688 18.875 25.7031ZM21.125 18.3438V25.7031C23.3281 25.4219 25.2969 24.4375 26.8438 22.9375L21.125 18.3438ZM18.875 6.34375C14 6.90625 10.25 11.0312 10.25 16C10.25 17.9219 10.7656 19.7031 11.7031 21.2031L18.875 15.4844V6.34375Z" fill="currentColor"/>
</svg>
