<svg width="24" height="19" viewBox="0 0 24 19" fill="none" xmlns="http://www.w3.org/2000/svg">
<path d="M15.0234 2.42969C15.3398 2.5 15.4805 2.88672 15.2344 3.13281L13.8984 4.43359L14.2148 6.26172C14.25 6.57812 13.9336 6.82422 13.6172 6.68359L12 5.80469L10.3477 6.68359C10.0312 6.82422 9.71484 6.57812 9.75 6.26172L10.0664 4.43359L8.73047 3.13281C8.48438 2.88672 8.625 2.5 8.94141 2.42969L10.8047 2.18359L11.6133 0.496094C11.7891 0.179688 12.2109 0.214844 12.3516 0.496094L13.1602 2.18359L15.0234 2.42969ZM14.25 9.25C14.8477 9.25 15.375 9.77734 15.375 10.375V17.125C15.375 17.7578 14.8477 18.25 14.25 18.25H9.75C9.11719 18.25 8.625 17.7578 8.625 17.125V10.375C8.625 9.77734 9.11719 9.25 9.75 9.25H14.25ZM6.375 11.5C6.97266 11.5 7.5 12.0273 7.5 12.625V17.125C7.5 17.7578 6.97266 18.25 6.375 18.25H1.875C1.24219 18.25 0.75 17.7578 0.75 17.125V12.625C0.75 12.0273 1.24219 11.5 1.875 11.5H6.375ZM16.5 14.875C16.5 14.2773 16.9922 13.75 17.625 13.75H22.125C22.7227 13.75 23.25 14.2773 23.25 14.875V17.125C23.25 17.7578 22.7227 18.25 22.125 18.25H17.625C16.9922 18.25 16.5 17.7578 16.5 17.125V14.875Z" fill="currentColor"/>
</svg>
