<svg width="46" height="32" viewBox="0 0 46 32" fill="none" xmlns="http://www.w3.org/2000/svg">
<path d="M37.5781 14.5938L31.8125 17.9688C31.5312 18.7656 30.875 19.4219 30.0781 19.6562V20.3594C30.0781 21.9531 28.9531 23.3125 27.5 23.7344C27.0781 25.3281 25.5781 26.5 23.8438 26.5H18.5L16.0625 27.9062C15.6875 28.1406 15.2656 28 15.0312 27.6719L14.6562 27.0156C14.4688 26.6406 14.5625 26.1719 14.9375 25.9844L17.8906 24.25H23.8906C24.7344 24.25 25.4375 23.5938 25.4375 22.75V21.625H26.5625C27.2656 21.625 27.875 21.0625 27.875 20.3125V17.5H29.3281C29.5156 17.5 29.6562 17.3594 29.6562 17.125V15.625C29.6562 15.4375 29.4688 15.25 29.3281 15.25H24.5V16C24.5 18.1562 22.5781 19.9375 20.3281 19.7031C18.4062 19.5156 17 17.7344 17 15.7656V13.8438L15.4531 14.7344C14.9844 15.0156 14.75 15.4844 14.75 16.0469V18.9531L9.5 21.9531C9.17188 22.1875 8.70312 22.0469 8.51562 21.6719L8.14062 21.0156C7.95312 20.6875 8.09375 20.2188 8.42188 20.0312L12.5469 17.6406V16.0469C12.5469 14.6875 13.25 13.4688 14.375 12.8125L17.1875 11.125C17.375 10.1875 17.9375 9.34375 18.8281 8.78125L20.3281 7.84375C21.125 7.28125 22.1094 7.04688 23.0938 7.04688H27.4062L32.5156 4.1875C32.8906 3.95312 33.3594 4.09375 33.5469 4.46875L33.9219 5.07812C34.1094 5.45312 34.0156 5.92188 33.6875 6.10938L28.0625 9.29688H23.1406C22.625 9.29688 22.0156 9.48438 21.5469 9.76562L19.9531 10.7031C19.4844 10.9844 19.25 11.4531 19.25 11.9688V16C19.25 16.8438 19.9062 17.5 20.7031 17.5C21.5 17.5 22.1562 16.8438 22.1562 16V13H29.2344C30.5469 13 31.625 14.0312 31.8125 15.2969L36.3594 12.6719C36.7344 12.4375 37.1562 12.5781 37.3906 12.9531L37.7188 13.5625C38.0938 13.9375 37.9531 14.4062 37.5781 14.5938Z" fill="currentColor"/>
</svg>
