<svg width="40" height="32" viewBox="0 0 40 32" fill="none" xmlns="http://www.w3.org/2000/svg">
<path d="M20 20.5C21.7344 20.5 22.9531 19.7031 23.6562 18.9531C24.0781 18.4844 24.7812 18.4375 25.25 18.8594C25.7188 19.2812 25.7188 19.9844 25.2969 20.4531C24.2656 21.5781 22.4844 22.75 20 22.75C17.4688 22.75 15.6875 21.5781 14.6562 20.4531C14.2344 19.9844 14.2344 19.2812 14.7031 18.8594C15.1719 18.4375 15.875 18.4844 16.2969 18.9531C17 19.7031 18.2188 20.5 20 20.5ZM16.2031 14.3125C15.6875 14.3125 15.2656 14.5 15.0312 14.7812C14.6562 15.1562 14.0938 15.2031 13.6719 14.8281C13.2969 14.4531 13.2969 13.8906 13.6719 13.5156C14.3281 12.7656 15.3125 12.4375 16.2031 12.4375C17.0938 12.4375 18.0781 12.7656 18.7812 13.5156C19.1094 13.8906 19.1094 14.4531 18.7344 14.8281C18.3594 15.2031 17.75 15.1562 17.4219 14.7812C17.1406 14.5 16.7188 14.3125 16.2031 14.3125ZM21.1719 14.8281C20.7969 14.4531 20.7969 13.8906 21.1719 13.5156C21.8281 12.7656 22.8125 12.4375 23.7031 12.4375C24.5938 12.4375 25.5781 12.7656 26.2812 13.5156C26.6094 13.8906 26.6094 14.4531 26.2344 14.8281C25.8594 15.2031 25.25 15.1562 24.9219 14.7812C24.6406 14.5 24.2188 14.3125 23.7031 14.3125C23.1875 14.3125 22.7656 14.5 22.5312 14.7812C22.1562 15.1562 21.5938 15.2031 21.1719 14.8281ZM32 16C32 22.6562 26.6094 28 20 28C13.3438 28 8 22.6562 8 16C8 9.39062 13.3438 4 20 4C26.6094 4 32 9.39062 32 16ZM20 6.25C14.6094 6.25 10.25 10.6562 10.25 16C10.25 21.3906 14.6094 25.75 20 25.75C25.3438 25.75 29.75 21.3906 29.75 16C29.75 10.6562 25.3438 6.25 20 6.25Z" fill="currentColor"/>
</svg>
