<svg width="40" height="32" viewBox="0 0 40 32" fill="none" xmlns="http://www.w3.org/2000/svg">
<path d="M22.3438 19.2812L15.5938 21.8594C14.6562 22.2344 13.7656 21.2969 14.1406 20.4062L16.7188 13.6562C16.9062 13.2344 17.1875 12.9531 17.6094 12.7656L24.3594 10.1875C25.2969 9.8125 26.1875 10.7031 25.8125 11.6406L23.2344 18.3906C23.0469 18.8125 22.7656 19.0938 22.3438 19.2812ZM19.9531 14.5C19.1562 14.5 18.4531 15.2031 18.4531 16C18.4531 16.8438 19.1562 17.5 19.9531 17.5C20.7969 17.5 21.5 16.8438 21.5 16C21.5 15.2031 20.7969 14.5 19.9531 14.5ZM32 16C32 22.6562 26.6094 28 20 28C13.3438 28 8 22.6562 8 16C8 9.39062 13.3438 4 20 4C26.6094 4 32 9.39062 32 16ZM20 6.25C14.6094 6.25 10.25 10.6562 10.25 16C10.25 21.3906 14.6094 25.75 20 25.75C25.3438 25.75 29.75 21.3906 29.75 16C29.75 10.6562 25.3438 6.25 20 6.25Z" fill="currentColor"/>
</svg>
