<svg width="37" height="32" viewBox="0 0 37 32" fill="none" xmlns="http://www.w3.org/2000/svg">
<path d="M20.75 18.25C25.2969 18.25 29 21.9531 29 26.5C29 27.3438 28.2969 28 27.5 28H9.5C8.65625 28 8 27.3438 8 26.5C8 21.9531 11.6562 18.25 16.25 18.25H20.75ZM10.25 25.75H26.7031C26.3281 22.7969 23.7969 20.5 20.75 20.5H16.25C13.1562 20.5 10.625 22.7969 10.25 25.75ZM18.5 16C15.1719 16 12.5 13.3281 12.5 10C12.5 6.71875 15.1719 4 18.5 4C21.7812 4 24.5 6.71875 24.5 10C24.5 13.3281 21.7812 16 18.5 16ZM18.5 6.25C16.3906 6.25 14.75 7.9375 14.75 10C14.75 12.1094 16.3906 13.75 18.5 13.75C20.5625 13.75 22.25 12.1094 22.25 10C22.25 7.9375 20.5625 6.25 18.5 6.25Z" fill="currentColor"/>
</svg>
