<svg width="104" height="25" viewBox="0 0 104 25" fill="none" xmlns="http://www.w3.org/2000/svg">
<path d="M14.6908 2.48983C14.8484 1.8741 15.478 1.49749 16.0758 1.71335C18.4444 2.56865 20.4942 4.1519 21.9217 6.25014C23.5658 8.66686 24.2714 11.6006 23.9058 14.5006C23.5403 17.4006 22.1289 20.0675 19.9365 22.0007C17.7441 23.9339 14.9215 25.0004 11.9986 25C9.0756 24.9997 6.25326 23.9325 4.06135 21.9988C1.86943 20.0651 0.458661 17.3978 0.0938559 14.4977C-0.270949 11.5976 0.435298 8.66404 2.08002 6.24772C3.508 4.14983 5.55816 2.56708 7.92702 1.71236C8.52489 1.49664 9.15434 1.8734 9.31183 2.48918C9.46932 3.10496 9.09429 3.72543 8.50149 3.9547C6.67453 4.6613 5.09509 5.90871 3.98276 7.54286C2.65351 9.49571 2.08273 11.8666 2.37756 14.2104C2.67239 16.5543 3.81256 18.7099 5.58405 20.2727C7.35554 21.8355 9.63653 22.698 11.9988 22.6983C14.3612 22.6986 16.6424 21.8367 18.4142 20.2743C20.1861 18.7119 21.3268 16.5565 21.6222 14.2128C21.9176 11.869 21.3474 9.49799 20.0186 7.54482C18.9067 5.91039 17.3276 4.6626 15.5008 3.95555C14.908 3.72613 14.5332 3.10557 14.6908 2.48983Z" fill="#015EDE"/>
<path d="M19.0018 15.0044H5.00177M17.0018 12.3361H7.00177M15.0018 9.66866H9.00177M13.0018 7H11.0018" stroke="#015EDE" stroke-width="2" stroke-linecap="round"/>
<path d="M14.0017 2C14.0017 3.10457 13.1063 4 12.0017 4C10.8971 4 10.0017 3.10457 10.0017 2C10.0017 0.89543 10.8971 0 12.0017 0C13.1063 0 14.0017 0.89543 14.0017 2Z" fill="#015EDE"/>
<path d="M92.6984 22.7856H85.4201V2.21509H95.289C98.5581 2.21509 100.439 3.54122 101.303 4.37391C102.999 6.03929 103.4 8.13643 103.4 9.77097C103.4 11.4672 103.03 13.4101 101.365 14.9213C99.73 16.4016 97.8796 16.5867 96.3067 16.5867H92.6984V22.7856ZM92.6984 7.85887V11.4055H93.9629C94.333 11.4055 95.104 11.3747 95.6283 10.8504C95.9058 10.6037 96.1217 10.2027 96.1217 9.58593C96.1217 8.93828 95.8441 8.53736 95.5666 8.32148C95.2273 8.04391 94.6105 7.85887 94.0554 7.85887H92.6984Z" fill="#015EDE"/>
<path d="M82.226 22.7856H68.1628V2.21509H82.0409V7.85887H75.6261V9.77097H81.455V15.168H75.6261V17.1418H82.226V22.7856Z" fill="#015EDE"/>
<path d="M61.6735 22.7856H54.3335V8.7224L50.1392 8.90744V2.21509H65.8678V8.90744L61.6735 8.7224V22.7856Z" fill="#015EDE"/>
<path d="M48.0987 3.54094L46.0941 8.78379C45.1997 8.16699 43.5652 7.24178 41.8998 7.24178C41.4989 7.24178 40.8821 7.30346 40.4812 7.61186C40.2036 7.82774 40.1111 8.04363 40.1111 8.35203C40.1111 8.78379 40.1727 9.18472 41.3138 9.43144L43.6885 9.95573C45.5081 10.3566 46.5875 11.0968 47.2043 11.7136C48.4996 12.9781 48.7772 14.5509 48.7772 15.7845C48.7772 17.5424 48.3146 19.177 46.9268 20.6265C45.7548 21.8293 43.5343 23.2479 39.6793 23.2479C36.5336 23.2479 34.4364 22.3535 32.6785 21.6442L32.0001 21.3666L34.2514 15.5687L35.0533 16.1855C35.8243 16.7714 37.3971 17.6966 39.2167 17.6966C40.2344 17.6966 40.6662 17.4499 40.8204 17.3266C41.1596 17.049 41.2213 16.7098 41.2213 16.4014C41.2213 16.2163 41.1905 15.9079 40.9746 15.692C40.7279 15.4453 40.327 15.3528 39.5559 15.1986L37.7364 14.8593C36.5644 14.6435 35.3 14.2734 34.1589 13.1014C33.1103 12.022 32.6785 10.7884 32.6785 9.30808C32.6785 7.39598 33.3262 5.76144 34.6832 4.40447C36.256 2.80077 38.5691 1.7522 41.8381 1.7522C43.4727 1.7522 45.6006 2.02976 48.0987 3.54094Z" fill="#015EDE"/>
</svg>
