<svg width="24" height="25" viewBox="0 0 24 25" fill="none" xmlns="http://www.w3.org/2000/svg">
<path d="M14.6908 2.48983C14.8484 1.8741 15.478 1.49749 16.0758 1.71335C18.4444 2.56865 20.4942 4.1519 21.9217 6.25014C23.5658 8.66686 24.2714 11.6006 23.9058 14.5006C23.5403 17.4006 22.1289 20.0675 19.9365 22.0007C17.7441 23.9339 14.9215 25.0004 11.9986 25C9.0756 24.9997 6.25326 23.9325 4.06135 21.9988C1.86943 20.0651 0.458661 17.3978 0.0938559 14.4977C-0.270949 11.5976 0.435298 8.66404 2.08002 6.24772C3.508 4.14983 5.55816 2.56708 7.92702 1.71236C8.52489 1.49664 9.15434 1.8734 9.31183 2.48918C9.46932 3.10496 9.09429 3.72543 8.50149 3.9547C6.67453 4.6613 5.09509 5.90871 3.98276 7.54286C2.65351 9.49571 2.08273 11.8666 2.37756 14.2104C2.67239 16.5543 3.81256 18.7099 5.58405 20.2727C7.35554 21.8355 9.63653 22.698 11.9988 22.6983C14.3612 22.6986 16.6424 21.8367 18.4142 20.2743C20.1861 18.7119 21.3268 16.5565 21.6222 14.2128C21.9176 11.869 21.3474 9.49799 20.0186 7.54482C18.9067 5.91039 17.3276 4.6626 15.5008 3.95555C14.908 3.72613 14.5332 3.10557 14.6908 2.48983Z" fill="url(#paint0_linear_4265_9635)"/>
<path d="M14.0017 2C14.0017 3.10457 13.1063 4 12.0017 4C10.8972 4 10.0017 3.10457 10.0017 2C10.0017 0.89543 10.8972 0 12.0017 0C13.1063 0 14.0017 0.89543 14.0017 2Z" fill="url(#paint1_linear_4265_9635)"/>
<path fill-rule="evenodd" clip-rule="evenodd" d="M10.0018 7C10.0018 6.44772 10.4495 6 11.0018 6H13.0018C13.5541 6 14.0018 6.44772 14.0018 7C14.0018 7.55228 13.5541 8 13.0018 8H11.0018C10.4495 8 10.0018 7.55228 10.0018 7ZM8.00177 9.66866C8.00177 9.11638 8.44949 8.66866 9.00177 8.66866H15.0018C15.5541 8.66866 16.0018 9.11638 16.0018 9.66866C16.0018 10.2209 15.5541 10.6687 15.0018 10.6687H9.00177C8.44949 10.6687 8.00177 10.2209 8.00177 9.66866ZM6.00177 12.3361C6.00177 11.7838 6.44949 11.3361 7.00177 11.3361H17.0018C17.5541 11.3361 18.0018 11.7838 18.0018 12.3361C18.0018 12.8884 17.5541 13.3361 17.0018 13.3361H7.00177C6.44949 13.3361 6.00177 12.8884 6.00177 12.3361ZM4.00177 15.0044C4.00177 14.4521 4.44949 14.0044 5.00177 14.0044H19.0018C19.5541 14.0044 20.0018 14.4521 20.0018 15.0044C20.0018 15.5567 19.5541 16.0044 19.0018 16.0044H5.00177C4.44949 16.0044 4.00177 15.5567 4.00177 15.0044Z" fill="url(#paint2_linear_4265_9635)"/>
<defs>
<linearGradient id="paint0_linear_4265_9635" x1="-5.58798e-09" y1="12.5" x2="24.0014" y2="12.5432" gradientUnits="userSpaceOnUse">
<stop stop-color="#002D6B"/>
<stop offset="1" stop-color="#015EDE"/>
</linearGradient>
<linearGradient id="paint1_linear_4265_9635" x1="-5.58798e-09" y1="12.5" x2="24.0014" y2="12.5432" gradientUnits="userSpaceOnUse">
<stop stop-color="#002D6B"/>
<stop offset="1" stop-color="#015EDE"/>
</linearGradient>
<linearGradient id="paint2_linear_4265_9635" x1="4.00177" y1="11.0022" x2="20.0026" y2="11.0502" gradientUnits="userSpaceOnUse">
<stop stop-color="#002D6B"/>
<stop offset="1" stop-color="#015EDE"/>
</linearGradient>
</defs>
</svg>
