<svg width="40" height="32" viewBox="0 0 40 32" fill="none" xmlns="http://www.w3.org/2000/svg">
<path d="M18.875 9.625C18.875 9.01562 19.3438 8.5 20 8.5C20.6094 8.5 21.125 9.01562 21.125 9.625V15.4375L25.1094 18.0625C25.625 18.4375 25.7656 19.1406 25.3906 19.6562C25.0625 20.1719 24.3594 20.3125 23.8438 19.9375L19.3438 16.9375C19.0625 16.75 18.875 16.375 18.875 16V9.625ZM20 4C26.6094 4 32 9.39062 32 16C32 22.6562 26.6094 28 20 28C13.3438 28 8 22.6562 8 16C8 9.39062 13.3438 4 20 4ZM10.25 16C10.25 21.3906 14.6094 25.75 20 25.75C25.3438 25.75 29.75 21.3906 29.75 16C29.75 10.6562 25.3438 6.25 20 6.25C14.6094 6.25 10.25 10.6562 10.25 16Z" fill="currentColor"/>
</svg>
