<svg width="37" height="32" viewBox="0 0 37 32" fill="none" xmlns="http://www.w3.org/2000/svg">
<path d="M21.1719 10.1875C21.4531 10.375 21.5469 10.75 21.4062 11.0781L19.625 15.25H22.625C22.9062 15.25 23.1875 15.4844 23.3281 15.7656C23.4219 16.0469 23.3281 16.4219 23.0938 16.6094L16.7188 21.8594C16.4375 22.0469 16.0625 22.0938 15.7812 21.8594C15.5 21.6719 15.4062 21.2969 15.5469 20.9688L17.3281 16.75H14.375C14.0469 16.75 13.7656 16.5625 13.625 16.2812C13.5312 15.9531 13.625 15.625 13.8594 15.4375L20.2344 10.1875C20.5156 9.95312 20.8906 9.95312 21.1719 10.1875ZM8 8.5C8 6.85938 9.3125 5.5 11 5.5H26C27.6406 5.5 29 6.85938 29 8.5V23.5C29 25.1875 27.6406 26.5 26 26.5H11C9.3125 26.5 8 25.1875 8 23.5V8.5ZM10.25 8.5V23.5C10.25 23.9219 10.5781 24.25 11 24.25H26C26.375 24.25 26.75 23.9219 26.75 23.5V8.5C26.75 8.125 26.375 7.75 26 7.75H11C10.5781 7.75 10.25 8.125 10.25 8.5Z" fill="currentColor"/>
</svg>
