<svg width="40" height="32" viewBox="0 0 40 32" fill="none" xmlns="http://www.w3.org/2000/svg">
<path d="M29.5156 13C30.5 13 32 13.7031 32 15.3906V23.7344C32 24.9531 30.9688 25.9844 29.7031 26.0781C28.1094 26.1719 24.0781 26.5 21.4062 27.8125C21.1719 27.9531 20.8906 28 20.6094 28H19.3438C19.0625 28 18.7812 27.9531 18.5469 27.8125C15.875 26.5 11.8438 26.1719 10.25 26.0781C8.98438 25.9844 8 24.9531 8 23.6875V15.3906C8 13.7031 9.45312 13 10.4375 13C10.4375 13 10.4844 13 10.5312 13.0469C12.875 13.1406 17.0938 13.6562 20 15.25C22.8594 13.6562 27.125 13.1406 29.4219 13.0469C29.4688 13 29.5156 13 29.5156 13ZM18.875 25.5156V17.2188C16.25 15.7656 12.0781 15.3438 10.3906 15.25C10.3438 15.2969 10.25 15.2969 10.2031 15.3438L10.25 23.7344C10.25 23.7812 10.2969 23.8281 10.3438 23.8281C12.3594 23.9219 16.0156 24.2969 18.875 25.5156ZM29.75 23.7344V15.3906C29.7031 15.3438 29.6094 15.2969 29.5156 15.25C27.875 15.3906 23.7031 15.7656 21.125 17.2188V25.5156C23.9375 24.2969 27.5938 23.9219 29.6094 23.8281C29.6562 23.8281 29.75 23.7812 29.75 23.7344ZM20 13C17.5156 13 15.5 10.9844 15.5 8.5C15.5 6.01562 17.5156 4 20 4C22.4844 4 24.5 6.01562 24.5 8.5C24.5 10.9844 22.4844 13 20 13ZM20 6.25C18.7344 6.25 17.75 7.28125 17.75 8.5C17.75 9.76562 18.7344 10.75 20 10.75C21.2188 10.75 22.25 9.76562 22.25 8.5C22.25 7.28125 21.2188 6.25 20 6.25Z" fill="currentColor"/>
</svg>
